<svg width="30" height="30" viewBox="0 0 30 30" fill="none" xmlns="http://www.w3.org/2000/svg">
<path fill-rule="evenodd" clip-rule="evenodd" d="M18.0343 1.87439L21.7057 5.54573V21.0555L18.9477 27.5122H5.5514C4.65993 27.5122 3.93066 26.7829 3.93066 25.8915V3.49512C3.93066 2.60366 4.65993 1.87439 5.5514 1.87439H18.0343Z" fill="#DDEDFC"/>
<path fill-rule="evenodd" clip-rule="evenodd" d="M18.0342 1.87439L21.7055 5.54573H18.0342V1.87439Z" fill="#B5D5F5"/>
<path fill-rule="evenodd" clip-rule="evenodd" d="M16.3339 18.0255C16.1717 18.0255 16.04 17.8938 16.04 17.7316C16.04 17.5695 16.1717 17.4377 16.3339 17.4377H19.2589C19.4211 17.4377 19.5528 17.5695 19.5528 17.7316C19.5528 17.8938 19.4211 18.0255 19.2589 18.0255H16.3339Z" fill="#3B566A"/>
<path fill-rule="evenodd" clip-rule="evenodd" d="M6.37691 20.4311C6.21472 20.4311 6.08301 20.2994 6.08301 20.1372C6.08301 19.975 6.21472 19.8433 6.37691 19.8433H18.1781C18.3403 19.8433 18.472 19.975 18.472 20.1372C18.472 20.2994 18.3403 20.4311 18.1781 20.4311H6.37691Z" fill="#3B566A"/>
<path fill-rule="evenodd" clip-rule="evenodd" d="M6.37691 18.0255C6.21472 18.0255 6.08301 17.8938 6.08301 17.7316C6.08301 17.5695 6.21472 17.4377 6.37691 17.4377H14.3086C14.4708 17.4377 14.6025 17.5695 14.6025 17.7316C14.6025 17.8938 14.4708 18.0255 14.3086 18.0255H6.37691Z" fill="#3B566A"/>
<path fill-rule="evenodd" clip-rule="evenodd" d="M6.37691 25.2421C6.21472 25.2421 6.08301 25.1104 6.08301 24.9482C6.08301 24.786 6.21472 24.6543 6.37691 24.6543H12.2342C12.3964 24.6543 12.5281 24.786 12.5281 24.9482C12.5281 25.1104 12.3964 25.2421 12.2342 25.2421H6.37691Z" fill="#3B566A"/>
<path fill-rule="evenodd" clip-rule="evenodd" d="M6.37691 22.8366C6.21472 22.8366 6.08301 22.7049 6.08301 22.5427C6.08301 22.3805 6.21472 22.2488 6.37691 22.2488H13.544C13.7062 22.2488 13.8379 22.3805 13.8379 22.5427C13.8379 22.7049 13.7062 22.8366 13.544 22.8366H6.37691Z" fill="#3B566A"/>
<path fill-rule="evenodd" clip-rule="evenodd" d="M15.7255 22.8366C15.5633 22.8366 15.4316 22.7049 15.4316 22.5427C15.4316 22.3805 15.5633 22.2488 15.7255 22.2488H16.831C16.9932 22.2488 17.1249 22.3805 17.1249 22.5427C17.1249 22.7049 16.9932 22.8366 16.831 22.8366H15.7255Z" fill="#3B566A"/>
<path fill-rule="evenodd" clip-rule="evenodd" d="M14.4023 25.2421C14.2401 25.2421 14.1084 25.1104 14.1084 24.9482C14.1084 24.786 14.2401 24.6543 14.4023 24.6543H16.9468C17.109 24.6543 17.2407 24.786 17.2407 24.9482C17.2407 25.1104 17.109 25.2421 16.9468 25.2421H14.4023Z" fill="#3B566A"/>
<path fill-rule="evenodd" clip-rule="evenodd" d="M7.32804 15.3293C7.32804 15.4915 7.19633 15.6232 7.03414 15.6232C6.87194 15.6232 6.74023 15.4915 6.74023 15.3293V3.81221C6.74023 3.65002 6.87194 3.51831 7.03414 3.51831H15.153C15.3152 3.51831 15.4469 3.65002 15.4469 3.81221C15.4469 3.97441 15.3152 4.10612 15.153 4.10612H7.32804V15.3293Z" fill="#3B566A"/>
<path fill-rule="evenodd" clip-rule="evenodd" d="M16.1438 12.8463H16.1535V15.3287H9.4834V12.8463V12.7969C9.4834 11.9085 10.056 11.1476 10.8499 10.8634C11.0645 10.7866 11.295 10.7451 11.5352 10.7451H11.9364L12.3749 11.5049L12.8133 12.2646L13.2517 11.5049L13.6901 10.7451H14.0913C14.331 10.7451 14.5621 10.7866 14.7767 10.8634C15.5706 11.1469 16.1432 11.9085 16.1432 12.7969V12.8463H16.1438Z" fill="#B93C64"/>
<path fill-rule="evenodd" clip-rule="evenodd" d="M10.758 15.328H10.5293V13.692C10.5293 13.5487 10.5805 13.4323 10.6439 13.4323C10.7073 13.4323 10.7586 13.5487 10.7586 13.692V15.328H10.758Z" fill="#A7365A"/>
<path fill-rule="evenodd" clip-rule="evenodd" d="M15.0988 15.328H14.8701V13.692C14.8701 13.5487 14.9213 13.4323 14.9848 13.4323C15.0482 13.4323 15.0994 13.5487 15.0994 13.692V15.328H15.0988Z" fill="#A7365A"/>
<path fill-rule="evenodd" clip-rule="evenodd" d="M12.9279 15.328H12.6992V12.0664L12.8139 12.2646L12.9279 12.0664V15.328Z" fill="#A7365A"/>
<path fill-rule="evenodd" clip-rule="evenodd" d="M11.8633 10.7031L12.3383 11.5256L12.8133 12.3482L13.2883 11.5256L13.7633 10.7031C13.4249 10.4701 13.6627 10.1512 13.6627 10.1512L13.6633 10.15C13.1127 10.5311 12.5127 10.5311 11.9621 10.15L11.9627 10.1512C11.9639 10.1512 12.2023 10.4708 11.8633 10.7031Z" fill="#FFC294"/>
<path fill-rule="evenodd" clip-rule="evenodd" d="M11.0449 8.38169L12.0028 10.2866C12.5272 10.6494 13.0992 10.65 13.6236 10.2866L14.5815 8.38169C13.2602 7.70181 12.8132 6.60852 12.8132 6.60852C12.8132 6.60852 12.3663 7.70181 11.0449 8.38169Z" fill="#FFCC99"/>
<path fill-rule="evenodd" clip-rule="evenodd" d="M12.8136 6.66949C12.8136 6.66949 13.2472 7.72924 14.5277 8.38778L13.599 10.2341L13.5984 10.2353C13.5984 10.2353 13.3783 10.5299 13.6911 10.7451H14.0923C14.3325 10.7451 14.563 10.7866 14.7777 10.8634C16.4142 8.45973 13.8588 4.02375 12.8142 5.40302C11.7691 4.02375 9.21425 8.45973 10.8508 10.8634C11.0655 10.7866 11.296 10.7451 11.5362 10.7451H11.9374C12.2502 10.5305 12.0301 10.2353 12.0301 10.2353L12.0295 10.2341L11.1008 8.38778C12.3795 7.72863 12.8136 6.66949 12.8136 6.66949Z" fill="#2C3E50"/>
<path fill-rule="evenodd" clip-rule="evenodd" d="M12.7257 8.96643H12.8837C12.9379 8.96643 12.9824 9.01094 12.9824 9.06521C12.9824 9.11948 12.9379 9.16399 12.8837 9.16399H12.7257C12.6715 9.16399 12.627 9.11948 12.627 9.06521C12.6276 9.01094 12.6715 8.96643 12.7257 8.96643Z" fill="#F09372"/>
<path fill-rule="evenodd" clip-rule="evenodd" d="M12.1494 9.09146C12.314 9.09146 12.4481 8.95731 12.4481 8.79268C12.4481 8.62804 12.314 8.4939 12.1494 8.4939C11.9847 8.4939 11.8506 8.62804 11.8506 8.79268C11.8506 8.95731 11.9847 9.09146 12.1494 9.09146Z" fill="#FFFFFE"/>
<path fill-rule="evenodd" clip-rule="evenodd" d="M12.1904 8.95968C12.2703 8.95968 12.3349 8.89444 12.3349 8.81517C12.3349 8.7359 12.2697 8.67065 12.1904 8.67065C12.1105 8.67065 12.0459 8.7359 12.0459 8.81517C12.0459 8.89444 12.1105 8.95968 12.1904 8.95968Z" fill="#2C3E50"/>
<path d="M11.6606 8.26584C11.7655 8.15913 12.002 7.91828 12.4508 8.17377C12.5014 8.20243 12.5191 8.26645 12.4905 8.31645C12.4618 8.36706 12.3978 8.38474 12.3478 8.35609C12.0392 8.18048 11.8807 8.34145 11.8106 8.41279C11.7703 8.45365 11.7429 8.4817 11.6898 8.4817C11.6319 8.4817 11.585 8.43475 11.585 8.37682C11.5844 8.33353 11.6606 8.26645 11.6606 8.26584Z" fill="#2C3E50"/>
<path d="M13.4775 9.09146C13.6425 9.09146 13.7763 8.95769 13.7763 8.79268C13.7763 8.62766 13.6425 8.4939 13.4775 8.4939C13.3125 8.4939 13.1787 8.62766 13.1787 8.79268C13.1787 8.95769 13.3125 9.09146 13.4775 9.09146Z" fill="#FFFFFE"/>
<path fill-rule="evenodd" clip-rule="evenodd" d="M13.4375 8.95968C13.5174 8.95968 13.582 8.89444 13.582 8.81517C13.582 8.7359 13.5167 8.67065 13.4375 8.67065C13.3576 8.67065 13.293 8.7359 13.293 8.81517C13.293 8.89444 13.3576 8.95968 13.4375 8.95968Z" fill="#2C3E50"/>
<path d="M13.9666 8.26584C13.8618 8.15913 13.6252 7.91828 13.1764 8.17377C13.1258 8.20243 13.1081 8.26645 13.1368 8.31645C13.1654 8.36706 13.2294 8.38474 13.2794 8.35609C13.588 8.18048 13.7465 8.34145 13.8166 8.41279C13.8569 8.45365 13.8843 8.4817 13.9374 8.4817C13.9953 8.4817 14.0423 8.43475 14.0423 8.37682C14.0429 8.33535 13.9666 8.26645 13.9666 8.26584Z" fill="#2C3E50"/>
<path d="M13.1856 9.80907C13.0673 9.89993 12.799 10.106 12.3905 9.79078C12.3447 9.75541 12.3362 9.68956 12.3709 9.64383C12.4063 9.5981 12.4722 9.58956 12.5179 9.62432C12.799 9.84139 12.9783 9.70358 13.0575 9.64261C13.1033 9.60785 13.1344 9.58346 13.1868 9.59078C13.2441 9.59871 13.2844 9.65176 13.2764 9.70968C13.2709 9.75054 13.1856 9.80846 13.1856 9.80907Z" fill="#F09372"/>
<path d="M21.413 28.2158C24.0024 28.2158 26.1014 26.1167 26.1014 23.5274C26.1014 20.9381 24.0024 18.839 21.413 18.839C18.8237 18.839 16.7246 20.9381 16.7246 23.5274C16.7246 26.1167 18.8237 28.2158 21.413 28.2158Z" fill="#FFAE06"/>
<path d="M21.2984 28.2146C23.8244 28.2146 25.8722 26.1161 25.8722 23.5274C25.8722 20.9387 23.8244 18.8402 21.2984 18.8402C18.7724 18.8402 16.7246 20.9387 16.7246 23.5274C16.7246 26.1161 18.7724 28.2146 21.2984 28.2146Z" fill="#FFC107"/>
<path d="M21.4128 27.4743C23.5926 27.4743 25.3597 25.7072 25.3597 23.5274C25.3597 21.3476 23.5926 19.5804 21.4128 19.5804C19.2329 19.5804 17.4658 21.3476 17.4658 23.5274C17.4658 25.7072 19.2329 27.4743 21.4128 27.4743Z" fill="#FF9D05"/>
<path d="M21.2631 27.4707C23.3598 27.4707 25.0595 25.7052 25.0595 23.5274C25.0595 21.3496 23.3598 19.5841 21.2631 19.5841C19.1665 19.5841 17.4668 21.3496 17.4668 23.5274C17.4668 25.7052 19.1665 27.4707 21.2631 27.4707Z" fill="#FFAE06"/>
<path fill-rule="evenodd" clip-rule="evenodd" d="M22.8499 22.1079C22.9645 21.9933 23.1505 21.9933 23.2657 22.1079C23.3803 22.2226 23.3803 22.4092 23.2657 22.5238L20.8431 24.9464C20.7285 25.061 20.5425 25.061 20.4273 24.9464L19.5596 24.0787C19.445 23.964 19.445 23.7775 19.5596 23.6628C19.6742 23.5482 19.8602 23.5482 19.9755 23.6628L20.6358 24.3232L22.8499 22.1079Z" fill="#3B566A"/>
</svg>
