<svg width="25" height="25" viewBox="0 0 25 25" fill="none" xmlns="http://www.w3.org/2000/svg">
<path fill-rule="evenodd" clip-rule="evenodd" d="M14.0757 20.5101C16.9799 17.1834 20.7501 12.5592 20.7501 8.74033C20.7501 4.18391 17.0565 0.490234 12.5 0.490234C7.94363 0.490234 4.25 4.18391 4.25 8.74033C4.25 12.5592 8.0202 17.1834 10.9245 20.5102C11.4947 21.1634 12.0316 21.7667 12.5 22.304C12.9685 21.7667 13.5054 21.1634 14.0757 20.5101Z" fill="#FD6050"/>
<path fill-rule="evenodd" clip-rule="evenodd" d="M10.9248 20.5101C7.82662 20.726 5.6377 21.5427 5.6377 22.4829C5.6377 23.6024 8.71024 24.5098 12.5004 24.5098C16.2906 24.5098 19.3632 23.6023 19.3632 22.4829C19.3632 21.5427 17.1743 20.726 14.0761 20.5101C13.5058 21.1634 12.9689 21.7667 12.5004 22.304C12.032 21.7667 11.4951 21.1634 10.9248 20.5101Z" fill="#B1D952"/>
<path fill-rule="evenodd" clip-rule="evenodd" d="M10.9072 4.9413C10.9072 5.68581 11.5108 6.28934 12.2553 6.28934C12.9998 6.28934 13.6033 5.68581 13.6033 4.9413C13.6033 4.19679 12.9998 3.59326 12.2553 3.59326C11.5108 3.59326 10.9072 4.19679 10.9072 4.9413Z" fill="white"/>
<path fill-rule="evenodd" clip-rule="evenodd" d="M12.7079 6.78352L10.9169 6.97323C10.3112 7.0374 9.87209 7.58048 9.93626 8.18622C10.0004 8.79195 10.546 9.23102 11.1518 9.16686V11.6816H10.9067C10.2975 11.6816 9.80371 12.1754 9.80371 12.7845C9.80371 13.3936 10.2975 13.8874 10.9067 13.8874H14.0929C14.702 13.8874 15.1959 13.3936 15.1959 12.7845C15.1959 12.1754 14.702 11.6816 14.0929 11.6816H13.8478V7.80882C13.8478 7.19965 13.3452 6.71602 12.7079 6.78352Z" fill="white"/>
<path fill-rule="evenodd" clip-rule="evenodd" d="M14.1835 20.3866C10.2125 17.3794 7.64716 12.6133 7.64716 7.24815C7.64716 5.19217 8.02387 3.22418 8.71201 1.40942C6.06142 2.78183 4.25 5.54957 4.25 8.74036C4.25 12.5592 8.0202 17.1834 10.9245 20.5102C11.4948 21.1634 12.0317 21.7667 12.5001 22.304C12.9685 21.7667 13.5054 21.1634 14.0757 20.5102C14.1115 20.4692 14.1475 20.428 14.1835 20.3866Z" fill="#BC3C85"/>
<path d="M15.0707 20.1104C17.9308 16.7799 21.2403 12.4616 21.2403 8.74029C21.2404 3.92088 17.3195 0 12.5001 0C7.68065 0 3.75977 3.92088 3.75977 8.74029C3.75977 12.4616 7.06928 16.7799 9.92937 20.1104C7.48521 20.3967 5.14707 21.1399 5.14707 22.4829C5.14707 23.0331 5.55673 23.8099 7.50844 24.3863C8.84854 24.7821 10.6212 25 12.5001 25C14.3789 25 16.1516 24.7821 17.4916 24.3862C19.4433 23.8099 19.853 23.033 19.853 22.4829C19.853 21.1398 17.5149 20.3966 15.0707 20.1104ZM12.5001 0.980392C16.7789 0.980392 20.26 4.46147 20.26 8.74029C20.26 12.7548 15.8126 17.8011 12.8696 21.1403C12.7433 21.2837 12.62 21.4236 12.5001 21.56C12.3801 21.4236 12.2568 21.2837 12.1305 21.1403C9.18756 17.8011 4.74016 12.7547 4.74016 8.74029C4.74016 4.46147 8.22124 0.980392 12.5001 0.980392ZM17.2139 23.446C15.9616 23.8159 14.2875 24.0196 12.5001 24.0196C10.7127 24.0196 9.03854 23.8159 7.78619 23.446C6.4255 23.0442 6.12751 22.6146 6.12751 22.4829C6.12751 22.3594 6.36339 22.0362 7.25619 21.6971C8.11829 21.3695 9.34325 21.1292 10.7168 21.0174C10.9494 21.2829 11.1762 21.5403 11.395 21.7885C11.6539 22.0824 11.9005 22.3622 12.1306 22.626C12.2236 22.7328 12.3584 22.7941 12.5001 22.7941C12.6417 22.7941 12.7765 22.7328 12.8696 22.626C13.0996 22.3622 13.3462 22.0824 13.6052 21.7885C13.8239 21.5403 14.0508 21.2829 14.2834 21.0174C15.6569 21.1292 16.8819 21.3695 17.744 21.6971C18.6367 22.0362 18.8726 22.3594 18.8726 22.4829C18.8726 22.6146 18.5746 23.0442 17.2139 23.446Z" fill="#052A75"/>
</svg>
