<svg width="44" height="44" viewBox="0 0 44 44" fill="none" xmlns="http://www.w3.org/2000/svg">
<g clip-path="url(#clip0_3888_6898)">
<path d="M43.2467 7.86999C42.8462 4.11761 39.8827 1.15344 36.13 0.753295C26.7192 -0.251098 17.2808 -0.251098 7.87032 0.753295C4.11761 1.15378 1.15378 4.11761 0.753295 7.86999C-0.251098 17.2805 -0.251098 26.7192 0.753295 36.1296C1.15378 39.8824 4.11761 42.8462 7.86999 43.2467C17.2805 44.2511 26.7192 44.2511 36.13 43.2467C39.8827 42.8462 42.8462 39.8824 43.2467 36.1296C44.2511 26.7192 44.2511 17.2808 43.2467 7.86999Z" fill="url(#paint0_radial_3888_6898)"/>
<path d="M40.8531 9.4615C40.498 6.13176 37.8682 3.5016 34.5381 3.1461C26.1874 2.25517 17.8118 2.25517 9.46113 3.1461C6.13139 3.5016 3.50124 6.13176 3.14574 9.4615C2.25481 17.8122 2.25481 26.1877 3.14574 34.5381C3.50124 37.8682 6.13139 40.4983 9.46113 40.8535C17.8118 41.7448 26.1874 41.7448 34.5377 40.8535C37.8678 40.4983 40.498 37.8682 40.8531 34.5381C41.7444 26.1877 41.7444 17.8122 40.8531 9.4615Z" fill="url(#paint1_linear_3888_6898)"/>
<path d="M0.65918 35.2175C0.689392 35.5217 0.720612 35.8258 0.753174 36.1299C1.15366 39.8823 4.11749 42.8462 7.8702 43.2466C17.2807 44.251 26.7194 44.251 36.1299 43.2466C39.8826 42.8462 42.8461 39.8823 43.2465 36.1299C43.2791 35.8258 43.3103 35.5217 43.3409 35.2175H0.65918Z" fill="url(#paint2_linear_3888_6898)"/>
<path d="M43.2468 36.1296C43.7866 31.0731 44.0356 26.0085 43.9954 20.9445L33.938 10.8872C32.6815 9.45276 30.8463 8.55746 28.6898 8.47992C24.2549 8.32013 19.806 8.32819 15.3705 8.48059C11.6866 8.60748 9.11047 11.0836 8.44983 14.7228C8.33334 15.3653 8.26352 16.0162 8.17188 16.6634V27.3324C8.22256 27.6782 8.29709 28.0223 8.32025 28.3701C8.46796 30.5836 9.37768 32.4796 10.8343 33.7623L21.0689 43.9966C26.0915 44.0318 31.1145 43.7821 36.1301 43.2466C39.8828 42.8462 42.8463 39.8823 43.2468 36.1296Z" fill="url(#paint3_linear_3888_6898)"/>
<path d="M43.2463 36.13C42.8462 39.882 39.8817 42.8465 36.1296 43.2467C31.1147 43.7818 26.0907 44.0319 21.0688 43.9966L10.8496 33.7774C12.0343 34.8144 13.5785 35.4458 15.3704 35.5133C19.8049 35.6798 24.2548 35.6755 28.6893 35.5157C32.7002 35.3706 35.6026 32.4021 35.7278 28.3912C35.8614 24.1326 35.8614 19.863 35.7278 15.6044C35.6708 13.754 35.0212 12.1259 33.9443 10.8939L43.9953 20.9449C44.0349 26.0082 43.7858 31.0734 43.2463 36.13Z" fill="url(#paint4_linear_3888_6898)"/>
<path d="M27.1915 17.2354C25.9031 15.8326 24.0545 14.9524 21.9997 14.9524C18.1077 14.9524 14.9521 18.1079 14.9521 21.9999C14.9521 24.0547 15.8323 25.9034 17.2352 27.1918L33.5408 43.4974C34.4039 43.4222 35.267 43.3386 36.1293 43.2466C39.8821 42.8461 42.8459 39.8823 43.2464 36.1296C43.3384 35.2672 43.4219 34.4041 43.4971 33.5411L27.1915 17.2354Z" fill="url(#paint5_linear_3888_6898)"/>
<path d="M43.9146 26.7396L30.7917 13.617C30.4856 13.2152 30.0032 12.9543 29.459 12.9543C28.5332 12.9543 27.7822 13.705 27.7822 14.6311C27.7822 15.1753 28.0431 15.6577 28.4449 15.9638L43.68 31.1993C43.7834 29.7132 43.8616 28.2264 43.9146 26.7396Z" fill="url(#paint6_linear_3888_6898)"/>
<path d="M8.17188 16.6634C8.26352 16.0162 8.33334 15.3653 8.44983 14.7228C9.11014 11.0836 11.6866 8.60748 15.3705 8.48059C19.806 8.32819 24.2549 8.32013 28.6898 8.47992C32.6993 8.62427 35.603 11.5931 35.7282 15.604C35.8615 19.8629 35.8615 24.1323 35.7282 28.3912C35.603 32.4021 32.7003 35.3706 28.6901 35.5153C24.2553 35.6754 19.8053 35.6795 15.3708 35.5129C11.3606 35.3622 8.58847 32.3866 8.32025 28.3697C8.29709 28.0223 8.22256 27.6779 8.17188 27.3321C8.17188 23.7758 8.17188 20.2194 8.17188 16.6634ZM22.0038 33.1383C24.0334 33.1383 26.065 33.199 28.0919 33.1242C31.2699 33.0063 33.2246 31.1097 33.2988 27.9347C33.3908 23.9785 33.3908 20.017 33.2988 16.0605C33.2246 12.8862 31.2686 10.9452 28.0919 10.8778C24.0599 10.7925 20.0235 10.7932 15.9915 10.8778C12.839 10.9439 10.8786 12.8456 10.793 15.985C10.6842 19.9912 10.6842 24.0044 10.793 28.0105C10.8786 31.1496 12.839 33.0073 15.9918 33.1242C17.9932 33.1987 19.9997 33.1383 22.0038 33.1383Z" fill="url(#paint7_linear_3888_6898)"/>
<path d="M8.17188 16.6634C8.26352 16.0162 8.33334 15.3653 8.44983 14.7228C9.11014 11.0836 11.6866 8.60748 15.3705 8.48059C19.806 8.32819 24.2549 8.32013 28.6898 8.47992C32.6993 8.62427 35.603 11.5931 35.7282 15.604C35.8615 19.8629 35.8615 24.1323 35.7282 28.3912C35.603 32.4021 32.7003 35.3706 28.6901 35.5153C24.2553 35.6754 19.8053 35.6795 15.3708 35.5129C11.3606 35.3622 8.58847 32.3866 8.32025 28.3697C8.29709 28.0223 8.22256 27.6779 8.17188 27.3321C8.17188 23.7758 8.17188 20.2194 8.17188 16.6634ZM22.0038 33.1383C24.0334 33.1383 26.065 33.199 28.0919 33.1242C31.2699 33.0063 33.2246 31.1097 33.2988 27.9347C33.3908 23.9785 33.3908 20.017 33.2988 16.0605C33.2246 12.8862 31.2686 10.9452 28.0919 10.8778C24.0599 10.7925 20.0235 10.7932 15.9915 10.8778C12.839 10.9439 10.8786 12.8456 10.793 15.985C10.6842 19.9912 10.6842 24.0044 10.793 28.0105C10.8786 31.1496 12.839 33.0073 15.9918 33.1242C17.9932 33.1987 19.9997 33.1383 22.0038 33.1383Z" fill="white"/>
<path d="M21.9997 14.9528C18.1077 14.9528 14.9521 18.1079 14.9521 22C14.9521 25.8923 18.1077 29.0475 21.9997 29.0475C25.8921 29.0475 29.0472 25.8923 29.0472 22C29.0472 18.1079 25.8921 14.9528 21.9997 14.9528ZM21.9997 26.6211C19.4474 26.6211 17.3785 24.5522 17.3785 22C17.3785 19.4477 19.4474 17.3788 21.9997 17.3788C24.552 17.3788 26.6208 19.4477 26.6208 22C26.6208 24.5522 24.552 26.6211 21.9997 26.6211Z" fill="white"/>
<path d="M31.1355 14.6311C31.1355 15.557 30.3849 16.3076 29.459 16.3076C28.5332 16.3076 27.7822 15.557 27.7822 14.6311C27.7822 13.705 28.5332 12.9543 29.459 12.9543C30.3849 12.9543 31.1355 13.705 31.1355 14.6311Z" fill="white"/>
</g>
<defs>
<radialGradient id="paint0_radial_3888_6898" cx="0" cy="0" r="1" gradientUnits="userSpaceOnUse" gradientTransform="translate(9.01975 38.4525) scale(48.5242)">
<stop stop-color="#FAE100"/>
<stop offset="0.0544" stop-color="#FADC04"/>
<stop offset="0.1167" stop-color="#FBCE0E"/>
<stop offset="0.1829" stop-color="#FCB720"/>
<stop offset="0.2514" stop-color="#FE9838"/>
<stop offset="0.3054" stop-color="#FF7950"/>
<stop offset="0.4922" stop-color="#FF1C74"/>
<stop offset="1" stop-color="#6C1CD1"/>
</radialGradient>
<linearGradient id="paint1_linear_3888_6898" x1="16.8754" y1="19.1176" x2="-57.6658" y2="-22.8118" gradientUnits="userSpaceOnUse">
<stop stop-color="#A1B5D8" stop-opacity="0"/>
<stop offset="0.3094" stop-color="#90A2BD" stop-opacity="0.309804"/>
<stop offset="0.7554" stop-color="#7C8B9C" stop-opacity="0.756863"/>
<stop offset="1" stop-color="#748290"/>
</linearGradient>
<linearGradient id="paint2_linear_3888_6898" x1="21.9999" y1="38.8408" x2="21.9999" y2="45.6993" gradientUnits="userSpaceOnUse">
<stop stop-color="#FAE100" stop-opacity="0"/>
<stop offset="0.3068" stop-color="#FCA800" stop-opacity="0.305882"/>
<stop offset="0.6275" stop-color="#FE7300" stop-opacity="0.627451"/>
<stop offset="0.8685" stop-color="#FF5200" stop-opacity="0.866667"/>
<stop offset="1" stop-color="#FF4500"/>
</linearGradient>
<linearGradient id="paint3_linear_3888_6898" x1="19.4969" y1="19.4346" x2="8.60765" y2="8.54526" gradientUnits="userSpaceOnUse">
<stop stop-color="#833AB4" stop-opacity="0"/>
<stop offset="1" stop-color="#833AB4"/>
</linearGradient>
<linearGradient id="paint4_linear_3888_6898" x1="30.1551" y1="40.2434" x2="24.7201" y2="14.6212" gradientUnits="userSpaceOnUse">
<stop stop-color="#833AB4" stop-opacity="0"/>
<stop offset="1" stop-color="#833AB4"/>
</linearGradient>
<linearGradient id="paint5_linear_3888_6898" x1="32.2232" y1="32.2235" x2="10.3931" y2="10.3933" gradientUnits="userSpaceOnUse">
<stop stop-color="#833AB4" stop-opacity="0"/>
<stop offset="1" stop-color="#833AB4"/>
</linearGradient>
<linearGradient id="paint6_linear_3888_6898" x1="33.8427" y1="19.0147" x2="26.6238" y2="11.7959" gradientUnits="userSpaceOnUse">
<stop stop-color="#833AB4" stop-opacity="0"/>
<stop offset="1" stop-color="#833AB4"/>
</linearGradient>
<linearGradient id="paint7_linear_3888_6898" x1="30.7363" y1="13.3245" x2="12.9373" y2="31.1235" gradientUnits="userSpaceOnUse">
<stop stop-color="#833AB4"/>
<stop offset="0.0922" stop-color="#9C3495"/>
<stop offset="0.2927" stop-color="#DC2546"/>
<stop offset="0.392" stop-color="#FD1D1D"/>
<stop offset="0.5589" stop-color="#FC6831"/>
<stop offset="0.6887" stop-color="#FC9B40"/>
<stop offset="0.7521" stop-color="#FCAF45"/>
<stop offset="0.7806" stop-color="#FDB750"/>
<stop offset="0.8656" stop-color="#FECB6A"/>
<stop offset="0.9415" stop-color="#FFD87A"/>
<stop offset="1" stop-color="#FFDC80"/>
</linearGradient>
<clipPath id="clip0_3888_6898">
<rect width="44" height="44" fill="white"/>
</clipPath>
</defs>
</svg>
