<svg width="25" height="25" viewBox="0 0 25 25" fill="none" xmlns="http://www.w3.org/2000/svg">
<g clip-path="url(#clip0_4174_9542)">
<path d="M12.3637 0.496921C12.922 0.433049 13.427 0.83393 13.4915 1.39226C13.4945 1.41687 13.6817 2.93187 14.4677 4.7226C14.9838 5.89828 15.6239 6.91059 16.3823 7.75377H16.4194C15.7781 7.17598 15.3858 6.3273 15.4234 5.38779C15.4872 3.79765 16.8024 2.5178 18.3936 2.49481C20.0804 2.4704 21.4555 3.83049 21.4555 5.51177C21.4555 6.40171 21.07 7.20152 20.4571 7.75377C20.4571 7.75377 22.5979 7.55549 22.9913 9.48303C23.2275 10.6407 23.1802 11.8497 23.196 13.026C23.1924 14.8344 23.1008 16.6422 23.0512 17.0926C22.9197 18.2856 21.4556 18.2507 21.4556 17.1441V23.3155C21.4556 23.9751 20.9209 24.5098 20.2612 24.5098C19.6016 24.5098 19.0669 23.9751 19.0669 23.3155L18.4715 17.1639L17.8097 23.3155C17.8097 23.9751 17.2749 24.5098 16.6153 24.5098C15.9557 24.5098 15.421 23.9751 15.421 23.3155V9.68181C14.2548 8.55019 13.2909 7.13284 12.5734 5.47775C11.678 3.41226 11.4749 1.69697 11.4666 1.62496C11.4028 1.06574 11.8045 0.560696 12.3637 0.496921Z" fill="#67CCD1"/>
<path d="M23.1959 13.026C23.192 14.8343 23.1003 16.6421 23.0508 17.0926C22.9194 18.2853 21.4552 18.2505 21.4552 17.1441V23.3157C21.4552 23.975 20.9204 24.5098 20.2611 24.5098C19.6013 24.5098 19.0665 23.975 19.0665 23.3157L18.4714 17.1637L17.8091 23.3157C17.8091 23.975 17.2748 24.5098 16.615 24.5098C16.2851 24.5098 15.9866 24.376 15.7704 24.1598C15.5547 23.9441 15.4209 23.6451 15.4209 23.3157V17.1833C18.7341 16.4725 21.5336 14.3765 23.1831 11.5309C23.1939 12.0309 23.1895 12.5314 23.1959 13.026Z" fill="#27A2CC"/>
<path d="M12.6243 0.496921C12.066 0.433049 11.561 0.83393 11.4964 1.39226C11.4934 1.41687 11.3063 2.93187 10.5202 4.7226C10.0041 5.89828 9.36409 6.91059 8.6057 7.75377H8.5686C9.20982 7.17598 9.60217 6.3273 9.56453 5.38779C9.5008 3.79765 8.18561 2.5178 6.59438 2.49481C4.90753 2.4704 3.53243 3.83049 3.53243 5.51177C3.53243 6.40171 3.91792 7.20152 4.53081 7.75377C4.53081 7.75377 2.39008 7.55549 1.9967 9.48303C1.76047 10.6407 1.80778 11.8497 1.79199 13.026C1.79552 14.8344 1.88714 16.6422 1.9368 17.0926C2.06827 18.2856 3.53238 18.2507 3.53238 17.1441V23.3155C3.53238 23.9751 4.06709 24.5098 4.72674 24.5098C5.38635 24.5098 5.9211 23.9751 5.9211 23.3155L6.51649 17.164L7.17835 23.3155C7.17835 23.9751 7.71306 24.5098 8.37267 24.5098C9.03227 24.5098 9.56698 23.9751 9.56698 23.3155V9.68181C10.7332 8.55019 11.6971 7.13284 12.4146 5.47775C13.31 3.41226 13.5131 1.69697 13.5214 1.62496C13.5852 1.06574 13.1835 0.560696 12.6243 0.496921Z" fill="#FD7DA0"/>
<path d="M9.56698 16.9657V23.3157C9.56698 23.6451 9.43315 23.9441 9.21698 24.1598C9.0008 24.376 8.70276 24.5098 8.37286 24.5098C7.71306 24.5098 7.17826 23.975 7.17826 23.3157L6.51649 17.1638L5.9214 23.3157C5.9214 23.975 5.38659 24.5098 4.72679 24.5098C4.06699 24.5098 3.53268 23.975 3.53268 23.3157V17.1441C3.53268 18.2505 2.06846 18.2853 1.93709 17.0927C1.88709 16.6422 1.79542 14.8343 1.79199 13.026C1.80523 12.0201 1.77287 10.9902 1.91111 9.98877C3.24934 13.3393 6.07238 15.9358 9.56698 16.9657Z" fill="#DB4B86"/>
<path d="M23.4849 9.38497C23.2867 8.41419 22.6843 7.73806 21.7426 7.42963C21.6393 7.39581 21.5374 7.36855 21.4387 7.34645C21.7746 6.79919 21.9591 6.16478 21.9591 5.5117C21.9591 4.56523 21.5878 3.67802 20.9136 3.01356C20.2396 2.3492 19.3453 1.99092 18.3998 2.00455C17.5043 2.01749 16.6545 2.37185 16.007 3.00229C15.5124 3.48391 15.1759 4.08773 15.0285 4.74469C14.9951 4.67224 14.9622 4.59915 14.9299 4.52547C14.3225 3.14175 14.0849 1.91533 14.0179 1.5094C14.0184 0.752587 13.4492 0.0975391 12.68 0.00979415C11.8543 -0.0849606 11.105 0.510136 11.0097 1.33347C11.0079 1.34808 10.8229 2.81327 10.0713 4.52542C10.0389 4.5991 10.0061 4.67219 9.97267 4.74464C9.82527 4.08768 9.4888 3.48391 8.99419 3.00224C8.34674 2.37175 7.49694 2.01744 6.6014 2.0045C5.65582 1.99082 4.76165 2.3491 4.08759 3.01351C3.41347 3.67807 3.0422 4.56523 3.0422 5.51174C3.0422 6.16488 3.22666 6.79924 3.56254 7.3465C3.46381 7.36855 3.3619 7.39586 3.25867 7.42968C2.31695 7.73811 1.71445 8.41424 1.51632 9.38502C1.31338 10.3793 1.30975 11.3956 1.30617 12.3784C1.30539 12.5929 1.30465 12.8067 1.30181 13.0194C1.30176 13.0219 1.30176 13.0244 1.30176 13.027C1.30539 14.8839 1.39985 16.6957 1.4495 17.1463C1.54661 18.0272 2.18533 18.4709 2.7894 18.4708C2.81185 18.4708 2.8343 18.4702 2.85661 18.469C2.91867 18.4656 2.98073 18.4569 3.0422 18.4436V23.3155C3.0422 24.2444 3.79788 25 4.7267 25C5.64699 25 6.39729 24.2582 6.41106 23.3411L6.54224 21.9859L6.68836 23.344C6.70361 24.2597 7.45331 25 8.37263 25C9.3015 25 10.0572 24.2444 10.0572 23.3155V9.88669C11.0225 8.91703 11.8407 7.76512 12.4989 6.45336C13.175 7.75635 14.0334 8.96561 14.944 9.8862V23.3155C14.944 24.2444 15.6997 25 16.6285 25C17.5492 25 18.2997 24.2575 18.3129 23.34L18.4379 21.9903L18.5902 23.3452C18.6061 24.2604 19.3555 25 20.2745 25C21.2033 25 21.959 24.2444 21.959 23.3155V18.4436C22.0204 18.4569 22.0826 18.4655 22.1446 18.4689C22.1669 18.4701 22.1893 18.4708 22.2118 18.4708C22.8158 18.4707 23.4546 18.0271 23.5516 17.1463C23.6351 16.3892 23.8679 11.2619 23.4849 9.38497ZM9.22562 9.33002C9.13047 9.42232 9.07679 9.54924 9.07679 9.68183V23.3155C9.07679 23.7038 8.76091 24.0196 8.37263 24.0196C7.98439 24.0196 7.66851 23.7037 7.66851 23.3155C7.66851 23.298 7.66758 23.2805 7.66572 23.263L7.00381 17.1115C6.97694 16.8615 6.76371 16.673 6.51381 16.6737C6.26239 16.6751 6.05273 16.8664 6.02851 17.1167L5.43312 23.2683C5.4316 23.284 5.43087 23.2997 5.43087 23.3155C5.43087 23.7038 5.11499 24.0196 4.7267 24.0196C4.33847 24.0196 4.02259 23.7037 4.02259 23.3155V10.5441C4.02259 10.2734 3.80313 10.0539 3.53239 10.0539C3.26166 10.0539 3.0422 10.2734 3.0422 10.5441V17.1441C3.0422 17.3556 2.95494 17.4817 2.80283 17.4901C2.6519 17.4985 2.4622 17.3852 2.42401 17.0389C2.37774 16.6189 2.28578 14.8234 2.2822 13.0287C2.28509 12.8141 2.28582 12.5983 2.28661 12.3819C2.28999 11.4469 2.29347 10.4801 2.47695 9.581C2.6022 8.96728 2.94921 8.5712 3.53778 8.37007C4.01685 8.2064 4.47582 8.24105 4.48739 8.24198C4.49062 8.24228 4.49381 8.24213 4.497 8.24233C4.70209 8.2563 4.90651 8.12939 4.9843 7.93875C5.05999 7.75326 5.00793 7.52365 4.85891 7.38949C4.32739 6.91056 4.02259 6.22615 4.02259 5.51165C4.02259 4.82974 4.29009 4.19052 4.77582 3.71175C5.26141 3.23312 5.904 2.97459 6.58724 2.98484C7.92841 3.00425 9.02101 4.06827 9.07468 5.40728C9.10493 6.16199 8.80086 6.88449 8.24042 7.38949C8.08969 7.52532 8.03817 7.73997 8.11096 7.92944C8.18371 8.11885 8.36562 8.2439 8.56856 8.2439H8.60567C8.74468 8.2439 8.87718 8.18488 8.97013 8.08154C9.76199 7.20115 10.4345 6.13733 10.969 4.91959C11.7831 3.06503 11.9753 1.51553 11.9833 1.44857C12.0168 1.1593 12.279 0.950871 12.5687 0.98391C12.839 1.01474 13.0388 1.24543 13.0376 1.51141C13.0372 1.51734 13.037 1.52332 13.0369 1.5293C13.0364 1.54259 13.0359 1.55587 13.0344 1.56925C13.0267 1.63582 12.8447 3.16641 12.0572 5.06439C12.0433 5.09062 12.0319 5.11802 12.0229 5.1463C12.0037 5.19165 11.9846 5.23699 11.9648 5.28272C11.275 6.87405 10.3534 8.23576 9.22562 9.33002ZM22.5772 17.0389C22.539 17.3852 22.3496 17.4984 22.1984 17.4901C22.0463 17.4817 21.959 17.3555 21.959 17.144V10.5441C21.959 10.2734 21.7396 10.0539 21.4688 10.0539C21.1981 10.0539 20.9786 10.2734 20.9786 10.5441V23.3155C20.9786 23.7038 20.6628 24.0196 20.2745 24.0196C19.8862 24.0196 19.5703 23.7037 19.5703 23.3155C19.5703 23.2971 19.5693 23.2789 19.5673 23.2607L18.8778 17.1281C18.8499 16.8799 18.64 16.6927 18.3907 16.6927C18.3891 16.6927 18.3875 16.6927 18.3858 16.6927C18.1345 16.6951 17.9257 16.8873 17.9026 17.1377L17.3348 23.2702C17.3334 23.2853 17.3328 23.3003 17.3328 23.3154C17.3328 23.7037 17.0169 24.0196 16.6286 24.0196C16.2404 24.0196 15.9245 23.7037 15.9245 23.3154V9.68178C15.9245 9.54919 15.8708 9.42228 15.7757 9.32997C14.7193 8.30502 13.7239 6.84169 13.024 5.29062C13.2522 4.72405 13.4298 4.18949 13.5676 3.71341C13.6938 4.09082 13.8469 4.49743 14.0322 4.91959C14.5668 6.13733 15.2393 7.20115 16.0311 8.08154C16.1241 8.18488 16.2566 8.2439 16.3956 8.2439H16.4327C16.6356 8.2439 16.8176 8.1189 16.8903 7.92944C16.9631 7.73997 16.9116 7.52532 16.7608 7.38949C16.2004 6.88454 15.8963 6.16204 15.9266 5.40728C15.9802 4.06827 17.0729 3.0042 18.414 2.98484C19.0963 2.9744 19.7399 3.23312 20.2254 3.7118C20.7112 4.19057 20.9787 4.82978 20.9787 5.5117C20.9787 6.22615 20.6738 6.91061 20.1424 7.38953C20.1385 7.39301 20.1352 7.39684 20.1314 7.40042C20.1279 7.40385 20.1244 7.40733 20.1209 7.41086C20.1124 7.41958 20.1041 7.4285 20.0963 7.43772C20.095 7.43934 20.0936 7.44101 20.0923 7.44262C19.9404 7.62689 19.9416 7.89909 20.1063 8.08179C20.1998 8.18556 20.3276 8.23958 20.457 8.24316C20.4597 8.24326 20.4623 8.24355 20.465 8.24355C20.4669 8.24355 20.4687 8.24385 20.4706 8.24385C20.4848 8.24385 20.4991 8.24316 20.5132 8.24193H20.5136H20.5138C20.5141 8.24189 20.5144 8.24189 20.5147 8.24189C20.5289 8.24076 20.9858 8.20679 21.4634 8.37002C22.052 8.57115 22.399 8.96728 22.5242 9.58095C22.8656 11.2537 22.6769 16.1347 22.5772 17.0389Z" fill="#052A75"/>
<path d="M19.1469 5.83003C18.9277 5.67105 18.6221 5.71875 18.463 5.93792C18.463 5.93802 18.4565 5.94365 18.4408 5.94365C18.4275 5.94365 18.4208 5.93963 18.419 5.93831C18.2597 5.72061 17.9542 5.67248 17.7355 5.83105C17.5164 5.99007 17.4677 6.29659 17.6267 6.51571C17.8122 6.7714 18.1166 6.92404 18.4408 6.92404C18.765 6.92404 19.0694 6.7714 19.2549 6.51571C19.4139 6.29654 19.3659 5.98904 19.1469 5.83003Z" fill="#052A75"/>
<path d="M17.6156 5.41674C17.766 5.20111 17.7017 4.8788 17.4803 4.73684C17.3194 4.62743 17.0967 4.62743 16.9357 4.73684C16.6824 4.89743 16.6446 5.28444 16.8612 5.49125C17.0681 5.70768 17.4556 5.67042 17.6156 5.41674Z" fill="#052A75"/>
<path d="M20.0654 5.41675C20.3079 5.05944 19.9853 4.57768 19.562 4.66381C19.2269 4.72293 19.0549 5.13827 19.2502 5.41675C19.4325 5.70386 19.8836 5.70459 20.0654 5.41675Z" fill="#052A75"/>
<path d="M7.25722 5.83003C7.03805 5.67105 6.73241 5.71875 6.5734 5.93792C6.57335 5.93802 6.56683 5.94365 6.55114 5.94365C6.53781 5.94365 6.53109 5.93958 6.52938 5.93831C6.37001 5.72056 6.06438 5.67238 5.84585 5.8311C5.62673 5.99012 5.57805 6.29664 5.73707 6.51576C5.92266 6.7714 6.22697 6.92404 6.55114 6.92404C6.87536 6.92404 7.17972 6.7714 7.36521 6.51571C7.52428 6.29654 7.47633 5.98904 7.25722 5.83003Z" fill="#052A75"/>
<path d="M5.72567 5.41672C5.96797 5.05951 5.64532 4.5778 5.22224 4.66378C4.88694 4.72265 4.71498 5.13838 4.91047 5.41672C5.09243 5.70431 5.54322 5.70392 5.72567 5.41672Z" fill="#052A75"/>
<path d="M8.17589 5.41665C8.37118 5.13807 8.19917 4.72278 7.86412 4.66371C7.44133 4.57626 7.11809 5.05959 7.36069 5.41665C7.54236 5.7041 7.99383 5.70385 8.17589 5.41665Z" fill="#052A75"/>
</g>
<defs>
<clipPath id="clip0_4174_9542">
<rect width="25" height="25" fill="white"/>
</clipPath>
</defs>
</svg>
