<svg width="25" height="25" viewBox="0 0 25 25" fill="none" xmlns="http://www.w3.org/2000/svg">
<path d="M8.92133 13.7609L7.80078 12.6404L10.3692 10.0719C10.6787 9.76248 11.1803 9.76248 11.4897 10.0719C11.7992 10.3814 11.7992 10.883 11.4897 11.1925L8.92133 13.7609Z" fill="#EFEFEF"/>
<path d="M12.1694 17.0092L11.0488 15.8886L13.6172 13.3202C13.9267 13.0108 14.4283 13.0108 14.7378 13.3202C15.0473 13.6297 15.0473 14.1313 14.7378 14.4408L12.1694 17.0092Z" fill="#EFEFEF"/>
<path d="M3.00852 23.1023V23.1033L1.56046 24.5504L0.249023 23.2589L1.70706 21.8019L3.00852 23.1023Z" fill="#AFAFAF"/>
<path d="M12.2236 19.6291L5.18074 12.5863C4.94887 12.3544 4.94887 11.9785 5.18074 11.7466L5.95344 10.974C6.18531 10.7421 6.56118 10.7421 6.79305 10.974L13.8359 18.0168C14.0678 18.2487 14.0678 18.6245 13.8359 18.8564L13.0632 19.6291C12.8313 19.861 12.4555 19.861 12.2236 19.6291Z" fill="#F0C020"/>
<path d="M11.972 19.3771L11.5035 19.8456L9.45823 21.8908C8.29888 23.0502 6.4193 23.0502 5.25985 21.8908L2.91931 19.5503C1.75997 18.3909 1.75997 16.5113 2.91931 15.3519L5.43308 12.8381L11.972 19.3771Z" fill="#72C2E9"/>
<path d="M4.96191 13.3064L5.4303 12.838L11.9682 19.3759L11.4998 19.8443L4.96191 13.3064Z" fill="#4BA5C8"/>
<path d="M1.61824 21.713L3.09642 23.1912C3.32829 23.4231 3.70416 23.4231 3.93603 23.1912L5.24767 21.8796L2.92987 19.5618L1.61824 20.8734C1.38637 21.1053 1.38637 21.4811 1.61824 21.713Z" fill="#F0C020"/>
<path d="M6.58308 19.0896C7.05989 19.0896 7.44643 18.7031 7.44643 18.2263C7.44643 17.7495 7.05989 17.3629 6.58308 17.3629C6.10626 17.3629 5.71973 17.7495 5.71973 18.2263C5.71973 18.7031 6.10626 19.0896 6.58308 19.0896Z" fill="#AFAFAF"/>
<path d="M24.5515 1.55995L23.0944 3.01798H23.0935L21.792 1.71652H21.793L23.259 0.249512L24.5515 1.55995Z" fill="#AFAFAF"/>
<path d="M12.5772 5.18977L19.6201 12.2326C19.8519 12.4645 19.8519 12.8404 19.6201 13.0722L18.8474 13.8449C18.6155 14.0768 18.2396 14.0768 18.0078 13.8449L10.9649 6.80209C10.733 6.57022 10.733 6.19434 10.9649 5.96247L11.7376 5.18977C11.9694 4.9579 12.3454 4.9579 12.5772 5.18977Z" fill="#F0C020"/>
<path d="M12.8291 5.44187L13.2976 4.97334L15.3429 2.9281C16.5022 1.76876 18.3818 1.76876 19.5412 2.9281L21.8818 5.26864C23.0411 6.42799 23.0411 8.30757 21.8818 9.46702L19.368 11.9808L12.8291 5.44187Z" fill="#72C2E9"/>
<path d="M12.8271 5.44336L13.2955 4.97497L19.8334 11.5129L19.365 11.9812L12.8271 5.44336Z" fill="#4BA5C8"/>
<path d="M23.1822 3.10582L21.704 1.62764C21.4721 1.39577 21.0962 1.39577 20.8644 1.62764L19.5527 2.93927L21.8705 5.25707L23.1822 3.94543C23.414 3.71366 23.414 3.33769 23.1822 3.10582Z" fill="#F0C020"/>
<path d="M18.2169 7.45595C18.6937 7.45595 19.0802 7.06942 19.0802 6.5926C19.0802 6.11578 18.6937 5.72925 18.2169 5.72925C17.7401 5.72925 17.3535 6.11578 17.3535 6.5926C17.3535 7.06942 17.7401 7.45595 18.2169 7.45595Z" fill="#AFAFAF"/>
<path d="M21.0961 17.4595C20.3318 17.4595 19.6228 17.6952 19.0367 18.0971L18.2721 17.3325C18.0101 17.0705 17.5854 17.0705 17.3234 17.3325C17.0615 17.5945 17.0615 18.0192 17.3234 18.2811L18.0881 19.0457C17.6861 19.6317 17.4505 20.3408 17.4505 21.1051C17.4505 23.1185 19.0827 24.7507 21.0961 24.7507C23.1095 24.7507 24.7417 23.1185 24.7417 21.1051C24.7417 19.0917 23.1095 17.4595 21.0961 17.4595Z" fill="#FC5D3D"/>
<path d="M22.0484 21.1052L22.6002 20.5534C22.8632 20.2904 22.8632 19.864 22.6002 19.601C22.3372 19.3381 21.9108 19.3381 21.6478 19.601L21.096 20.1528L20.5442 19.601C20.2812 19.3381 19.8548 19.3381 19.5918 19.601C19.3288 19.864 19.3289 20.2904 19.5918 20.5534L20.1436 21.1052L19.5918 21.657C19.3288 21.9199 19.3288 22.3463 19.5918 22.6093C19.8548 22.8723 20.2812 22.8723 20.5442 22.6093L21.096 22.0575L21.6478 22.6093C21.9108 22.8723 22.3372 22.8723 22.6002 22.6093C22.8632 22.3463 22.8631 21.9199 22.6002 21.657L22.0484 21.1052Z" fill="#EFEFEF"/>
<path d="M5.75238 21.3978L4.32875 19.974C4.23132 19.8767 4.23132 19.7188 4.32875 19.6215C4.42619 19.5241 4.58396 19.5241 4.68129 19.6215L6.10492 21.0452C6.79993 21.7401 7.91998 21.7374 8.6123 21.0452L9.92274 19.7349C10.0202 19.6376 10.1779 19.6376 10.2753 19.7349C10.3727 19.8322 10.3727 19.9901 10.2753 20.0875L8.96484 21.3978C8.07835 22.2844 6.64276 22.2881 5.75238 21.3978ZM3.62347 19.2689L3.41194 19.0572C3.31451 18.9598 3.31451 18.8019 3.41194 18.7046C3.50938 18.6073 3.66715 18.6073 3.76448 18.7046L3.97601 18.9162C4.07344 19.0137 4.07344 19.1715 3.97601 19.2689C3.87857 19.3663 3.7209 19.3663 3.62347 19.2689Z" fill="#C5E5FE"/>
<path d="M21.036 6.11414L20.8245 5.90261C20.7271 5.80528 20.7271 5.64741 20.8245 5.55007C20.9219 5.45264 21.0797 5.45264 21.177 5.55007L21.3886 5.7616C21.486 5.85893 21.486 6.0168 21.3886 6.11414C21.2911 6.21157 21.1334 6.21157 21.036 6.11414ZM20.1192 5.19743L18.6955 3.7737C18.002 3.08029 16.8817 3.07999 16.1881 3.7737L14.8778 5.08404C14.7803 5.18147 14.6226 5.18147 14.5252 5.08404C14.4278 4.9867 14.4278 4.82883 14.5252 4.7315L15.8356 3.42116C16.7236 2.53268 18.1594 2.53258 19.048 3.42116L20.4718 4.84489C20.5692 4.94222 20.5692 5.1001 20.4718 5.19743C20.3744 5.29477 20.2166 5.29477 20.1192 5.19743Z" fill="#C5E5FE"/>
<path d="M0.42573 23.4353L1.70744 22.1545L2.65626 23.1033L1.38452 24.3742C1.28709 24.4715 1.28709 24.6294 1.38442 24.7268C1.48186 24.8244 1.63963 24.8243 1.73706 24.7269L3.01618 23.4487C3.35387 23.6985 3.8199 23.6605 4.1127 23.3675L5.2543 22.2259C5.65391 22.5723 6.13181 22.8142 6.6494 22.9307C6.78633 22.9612 6.91877 22.8725 6.94759 22.7422C6.97851 22.6086 6.89374 22.4749 6.75901 22.444C6.25837 22.3313 5.80071 22.079 5.43561 21.714C5.43521 21.7136 5.43471 21.7134 5.43431 21.713L3.09527 19.3739C2.58167 18.8603 2.29874 18.1773 2.29874 17.451C2.29874 16.7247 2.58167 16.0417 3.09527 15.5281L5.43261 13.1908L11.6189 19.3771C10.9294 20.0668 12.038 18.9585 9.28105 21.714C9.06464 21.9314 8.81531 22.1089 8.54106 22.2416C8.4164 22.3014 8.36454 22.45 8.42438 22.5747C8.48601 22.6993 8.63809 22.7502 8.75747 22.6904C9.08159 22.5338 9.37679 22.3243 9.63409 22.067C13.1535 18.5476 10.7517 20.9494 11.9714 19.7296L12.0471 19.8053C12.3764 20.1348 12.9098 20.1348 13.2393 19.8053L14.012 19.0326C14.3406 18.704 14.3406 18.1691 14.012 17.8403L12.8514 16.6797L14.914 14.6171C15.3201 14.2109 15.3201 13.55 14.914 13.144C14.5079 12.7378 13.847 12.7378 13.4409 13.144L11.3783 15.2066L9.60327 13.4315L11.6659 11.3689C12.0739 10.961 12.072 10.3018 11.6659 9.89585C11.2588 9.48866 10.5999 9.48866 10.1928 9.89585L8.13018 11.9584L6.96943 10.7977C6.63993 10.4683 6.10668 10.4682 5.77728 10.7977L5.00458 11.5704C4.67497 11.9 4.67497 12.4331 5.00458 12.7627L5.08027 12.8383L2.74293 15.1757C2.13508 15.7835 1.80029 16.5916 1.80029 17.4512C1.80029 18.2325 2.07774 18.9707 2.58446 19.5552L1.44227 20.6973C1.14358 20.9963 1.11745 21.4651 1.36208 21.7949L0.0730887 23.0825C-0.0243463 23.1798 -0.0243463 23.3377 0.072989 23.4351C0.170424 23.5327 0.328195 23.5327 0.42573 23.4353ZM13.7935 13.4965C14.0058 13.2842 14.3491 13.2841 14.5615 13.4965C14.7732 13.7082 14.7731 14.0527 14.5615 14.2645L12.4989 16.3271L11.7309 15.559L13.7935 13.4965ZM10.5452 10.2484C10.7575 10.0362 11.101 10.036 11.3132 10.2484C11.5245 10.4596 11.526 10.8034 11.3132 11.0164L9.25063 13.079L8.48262 12.311L10.5452 10.2484ZM5.35702 11.9228L6.12972 11.1501C6.26445 11.0155 6.48216 11.0156 6.61679 11.1501C7.63812 12.1715 12.6735 17.207 13.6595 18.193C13.7939 18.3273 13.7939 18.5458 13.6596 18.6801L12.8869 19.4528C12.7568 19.5828 12.53 19.5829 12.3999 19.4528L12.1485 19.2014C12.1483 19.2011 12.1481 19.2009 12.148 19.2006C10.9252 17.9779 6.10748 13.1603 5.35702 12.4098C5.22238 12.2754 5.22238 12.0575 5.35702 11.9228ZM1.79481 21.0497L2.93022 19.9144L4.89547 21.8797L3.76016 23.0149C3.62573 23.1492 3.40742 23.1492 3.27299 23.0149C2.99055 22.7324 2.11693 21.8588 1.79481 21.5367C1.66057 21.4025 1.66057 21.184 1.79481 21.0497Z" fill="black"/>
<path d="M6.58328 17.1136C5.96985 17.1136 5.4707 17.6128 5.4707 18.2262C5.4707 18.8398 5.96985 19.3389 6.58328 19.3389C7.19681 19.3389 7.69595 18.8398 7.69595 18.2262C7.69595 17.6128 7.19681 17.1136 6.58328 17.1136ZM6.58328 18.8403C6.2447 18.8403 5.96935 18.5648 5.96935 18.2262C5.96935 17.8876 6.2448 17.6123 6.58328 17.6123C6.92196 17.6123 7.19731 17.8877 7.19731 18.2262C7.19731 18.5649 6.92186 18.8403 6.58328 18.8403Z" fill="black"/>
<path d="M7.72313 22.9885H7.72523C7.86265 22.9719 7.95889 22.8478 7.94264 22.7133C7.92778 22.5777 7.80401 22.4789 7.66838 22.4929H7.66738C7.53076 22.5088 7.43202 22.6325 7.44798 22.7691C7.46533 22.9265 7.62121 23.0113 7.72313 22.9885Z" fill="black"/>
<path d="M18.2172 7.70521C18.8306 7.70521 19.3297 7.20606 19.3297 6.59253C19.3297 5.979 18.8306 5.47986 18.2172 5.47986C17.6036 5.47986 17.1045 5.979 17.1045 6.59253C17.1045 7.20606 17.6036 7.70521 18.2172 7.70521ZM18.2172 5.9786C18.5557 5.9786 18.8311 6.25405 18.8311 6.59263C18.8311 6.93121 18.5556 7.20666 18.2172 7.20666C17.8785 7.20666 17.6031 6.93121 17.6031 6.59263C17.6031 6.25405 17.8785 5.9786 18.2172 5.9786Z" fill="black"/>
<path d="M17.0773 1.83011C16.9411 1.84437 16.8425 1.96784 16.8569 2.10636C16.8718 2.23202 16.9775 2.32676 17.1052 2.32676C17.263 2.32676 17.3694 2.18774 17.3525 2.04952C17.3377 1.91388 17.2149 1.81515 17.0773 1.83011Z" fill="black"/>
<path d="M11.5612 5.01345L10.7884 5.78615C10.4599 6.11486 10.4599 6.6497 10.7885 6.97841L17.8313 14.0214C18.1603 14.3502 18.6953 14.3498 19.0236 14.0214L19.7962 13.2487C20.1252 12.9197 20.1264 12.3866 19.7962 12.0564L19.7205 11.9807L22.0579 9.64336C23.257 8.44422 23.3092 6.52674 22.2162 5.26397L23.3584 4.12178C23.6569 3.82319 23.6833 3.35506 23.4395 3.02526L24.7276 1.73617C24.8249 1.63873 24.8249 1.48086 24.7275 1.38352C24.63 1.28619 24.4721 1.28619 24.3748 1.38362L23.0941 2.66524L22.1452 1.71632L23.435 0.42563C23.5323 0.328195 23.5323 0.170324 23.4349 0.072989C23.3374 -0.0243463 23.1796 -0.0243463 23.0822 0.0730887L21.7855 1.37076C21.4522 1.12263 20.9855 1.15325 20.6878 1.45124L19.5463 2.59264C19.1454 2.24618 18.6674 2.00434 18.1508 1.88775C18.0182 1.85783 17.8816 1.9456 17.8526 2.07624C17.8224 2.20669 17.9019 2.34232 18.0411 2.37443C18.5419 2.48712 18.9995 2.73944 19.3646 3.10444C19.365 3.10484 19.3655 3.10514 19.366 3.10554L21.7053 5.44478C22.7655 6.505 22.7655 8.2303 21.7053 9.29062L19.3678 11.628L13.1816 5.44169C13.8173 4.80592 13.0942 5.52825 15.519 3.10454C15.7355 2.88714 15.9848 2.70962 16.2591 2.57698C16.3882 2.51455 16.4339 2.36516 16.3758 2.24488C16.3179 2.12521 16.1633 2.06936 16.0426 2.1282C15.7185 2.28477 15.4233 2.4942 15.1661 2.7515C13.2395 4.67797 12.8584 5.05963 12.8289 5.08905L12.7532 5.01335C12.4246 4.68485 11.89 4.68485 11.5612 5.01345ZM21.0405 1.80398C21.1707 1.67394 21.3975 1.67403 21.5276 1.80398C21.9741 2.25057 22.3755 2.65198 23.0056 3.28216C23.14 3.4165 23.14 3.635 23.0057 3.76924L21.8703 4.90455L19.9052 2.93929L21.0405 1.80398ZM19.4436 12.896L18.671 13.6687C18.5366 13.8031 18.3183 13.8029 18.1838 13.6687L11.141 6.62587C11.0068 6.49153 11.0068 6.27303 11.141 6.13879L11.9137 5.36619C12.048 5.23196 12.2664 5.23186 12.4009 5.36619C12.5198 5.48507 19.1121 12.0775 19.4436 12.409C19.5783 12.5436 19.5783 12.7614 19.4436 12.896Z" fill="black"/>
<path d="M6.89971 6.96252C6.76199 6.96252 6.65039 7.07412 6.65039 7.21185V7.59401C6.65039 7.73173 6.76199 7.84333 6.89971 7.84333C7.03744 7.84333 7.14903 7.73173 7.14903 7.59401V7.21185C7.14903 7.07412 7.03744 6.96252 6.89971 6.96252Z" fill="black"/>
<path d="M7.14903 4.497C7.14903 4.35928 7.03744 4.24768 6.89971 4.24768C6.76199 4.24768 6.65039 4.35928 6.65039 4.497V6.05487C6.65039 6.19259 6.76199 6.30419 6.89971 6.30419C7.03744 6.30419 7.14903 6.19259 7.14903 6.05487V4.497Z" fill="black"/>
<path d="M8.46807 6.96252C8.33035 6.96252 8.21875 7.07412 8.21875 7.21185V7.59401C8.21875 7.73173 8.33035 7.84333 8.46807 7.84333C8.6058 7.84333 8.71739 7.73173 8.71739 7.59401V7.21185C8.71739 7.07412 8.6058 6.96252 8.46807 6.96252Z" fill="black"/>
<path d="M8.71739 4.497C8.71739 4.35928 8.6058 4.24768 8.46807 4.24768C8.33035 4.24768 8.21875 4.35928 8.21875 4.497V6.05487C8.21875 6.19259 8.33035 6.30419 8.46807 6.30419C8.6058 6.30419 8.71739 6.19259 8.71739 6.05487V4.497Z" fill="black"/>
<path d="M19.4154 22.7855C19.776 23.1462 20.3597 23.1461 20.7203 22.7855L21.0959 22.41L21.4714 22.7855C21.832 23.146 22.4156 23.1462 22.7763 22.7855C23.1376 22.4244 23.1364 21.8404 22.7763 21.4806L22.4009 21.1051L22.7763 20.7296C23.1369 20.3692 23.1372 19.7854 22.7764 19.4248C22.4157 19.064 21.8321 19.0639 21.4714 19.4248L21.0959 19.8002L20.7203 19.4248C20.3598 19.064 19.7759 19.064 19.4154 19.4248C19.0557 19.7845 19.0557 20.3699 19.4154 20.7297L19.7909 21.1052L19.4154 21.4807C19.0556 21.8403 19.0556 22.4257 19.4154 22.7855ZM19.7679 21.8332L20.3197 21.2814C20.417 21.184 20.417 21.0262 20.3197 20.9288L19.7679 20.3771C19.6027 20.2117 19.6027 19.9426 19.768 19.7773C19.9337 19.6115 20.2018 19.6114 20.3678 19.7773L20.9196 20.3291C21.0131 20.4226 21.1787 20.4225 21.2721 20.3291L21.8238 19.7774C21.9894 19.6118 22.2574 19.6112 22.4237 19.7774C22.589 19.9425 22.5897 20.2109 22.4237 20.3772L21.872 20.929C21.7746 21.0263 21.7746 21.1842 21.872 21.2815L22.4237 21.8333C22.5895 21.9992 22.5892 22.2676 22.4237 22.4331C22.2574 22.5992 21.9894 22.5985 21.8238 22.4331L21.2721 21.8813C21.1746 21.7837 21.0167 21.7841 20.9196 21.8813L20.3678 22.4331C20.2019 22.5988 19.9339 22.5988 19.7679 22.4331C19.6027 22.2676 19.6027 21.9986 19.7679 21.8332Z" fill="black"/>
<path d="M21.0957 25.0001C23.2434 25.0001 24.9906 23.2528 24.9906 21.1051C24.9906 18.9575 23.2434 17.2102 21.0957 17.2102C20.3758 17.2102 19.6799 17.406 19.0701 17.7784L18.4479 17.1563C18.0891 16.7975 17.5054 16.7976 17.1467 17.1563C16.787 17.5159 16.787 18.0979 17.1467 18.4575L17.7688 19.0797C17.3966 19.6894 17.2007 20.3854 17.2007 21.1052C17.2007 23.2528 18.948 25.0001 21.0957 25.0001ZM18.264 18.8695L17.4994 18.1049C17.3362 17.9417 17.333 17.6753 17.4994 17.5088C17.6637 17.3446 17.931 17.3446 18.0955 17.5088L18.8602 18.2735C18.9451 18.3584 19.0784 18.3709 19.1775 18.3028C19.744 17.9142 20.4073 17.7089 21.0958 17.7089C22.9684 17.7089 24.4921 19.2324 24.4921 21.1051C24.4921 22.9779 22.9685 24.5014 21.0958 24.5014C19.2231 24.5014 17.6994 22.9779 17.6994 21.1051C17.6994 20.4166 17.9049 19.7532 18.2933 19.1869C18.3612 19.0878 18.3489 18.9545 18.264 18.8695Z" fill="black"/>
</svg>
