<svg width="25" height="25" viewBox="0 0 25 25" fill="none" xmlns="http://www.w3.org/2000/svg">
<g clip-path="url(#clip0_4174_9613)">
<path d="M17.9688 5.85938V9.375H15.625V5.85938C15.625 4.13672 14.2227 2.73438 12.5 2.73438C10.7773 2.73438 9.375 4.13672 9.375 5.85938V9.375H7.03125V5.85938C7.03125 2.84375 9.48438 0.390625 12.5 0.390625C15.5156 0.390625 17.9688 2.84375 17.9688 5.85938Z" fill="#CACAE5"/>
<path d="M16.8824 7.82335C16.9637 6.4008 16.6366 4.90084 15.9012 3.64498C15.1785 2.41085 13.8386 1.70343 12.4086 1.72497C8.77197 1.77975 8.1481 4.84728 7.8125 8.20314C7.8125 8.56696 7.47227 8.67536 7.03125 8.68869V9.37501H9.375V5.97033C9.375 4.30783 10.6262 2.85343 12.285 2.74166C14.1044 2.61906 15.625 4.06554 15.625 5.85939V9.37501H17.9688V8.58126C17.8486 8.58512 17.7278 8.58781 17.6066 8.58961C17.1868 8.59601 16.8584 8.24264 16.8824 7.82335Z" fill="#7876AB"/>
<path d="M17.9688 9.375C19.2617 9.375 20.3125 10.4258 20.3125 11.7188V22.2656C20.3125 23.5586 19.2617 24.6094 17.9688 24.6094H7.03125C5.73828 24.6094 4.6875 23.5586 4.6875 22.2656V11.7188C4.6875 10.4258 5.73828 9.375 7.03125 9.375H9.375H15.625H17.9688Z" fill="#FFC32C"/>
<path d="M17.9688 9.375C19.2617 9.375 20.3125 10.4258 20.3125 11.7188V22.2656C20.3125 23.5586 19.2617 24.6094 17.9688 24.6094H7.03125C5.73828 24.6094 4.6875 23.5586 4.6875 22.2656V11.7188C4.6875 10.4258 5.73828 9.375 7.03125 9.375H9.375H15.625H17.9688Z" fill="#FFC32C"/>
<path d="M20.3125 11.7188V22.2656C20.3125 23.5586 19.2617 24.6094 17.9687 24.6094H7.03125C5.97266 24.6094 5.07812 23.9062 4.78906 22.9453C5.00391 23.0117 5.23437 23.0469 5.46875 23.0469H16.4062C17.6992 23.0469 18.75 21.9961 18.75 20.7031V10.1563C18.75 9.92188 18.7148 9.69141 18.6484 9.47656C19.6094 9.76562 20.3125 10.6602 20.3125 11.7188Z" fill="#FFA300"/>
<path d="M2.34375 10.1562C2.77522 10.1562 3.125 9.80647 3.125 9.375C3.125 8.94353 2.77522 8.59375 2.34375 8.59375C1.91228 8.59375 1.5625 8.94353 1.5625 9.375C1.5625 9.80647 1.91228 10.1562 2.34375 10.1562Z" fill="#FFC32C"/>
<path d="M1.17188 15.625C1.60335 15.625 1.95312 15.2752 1.95312 14.8438C1.95312 14.4123 1.60335 14.0625 1.17188 14.0625C0.740403 14.0625 0.390625 14.4123 0.390625 14.8438C0.390625 15.2752 0.740403 15.625 1.17188 15.625Z" fill="#FFC32C"/>
<path d="M1.95312 23.8281C2.3846 23.8281 2.73438 23.4783 2.73438 23.0469C2.73438 22.6154 2.3846 22.2656 1.95312 22.2656C1.52165 22.2656 1.17188 22.6154 1.17188 23.0469C1.17188 23.4783 1.52165 23.8281 1.95312 23.8281Z" fill="#FFC32C"/>
<path d="M23.0469 23.8281C23.4783 23.8281 23.8281 23.4783 23.8281 23.0469C23.8281 22.6154 23.4783 22.2656 23.0469 22.2656C22.6154 22.2656 22.2656 22.6154 22.2656 23.0469C22.2656 23.4783 22.6154 23.8281 23.0469 23.8281Z" fill="#FFC32C"/>
<path d="M23.8281 15.625C24.2596 15.625 24.6094 15.2752 24.6094 14.8438C24.6094 14.4123 24.2596 14.0625 23.8281 14.0625C23.3967 14.0625 23.0469 14.4123 23.0469 14.8438C23.0469 15.2752 23.3967 15.625 23.8281 15.625Z" fill="#FFC32C"/>
<path d="M22.6562 10.1562C23.0877 10.1562 23.4375 9.80647 23.4375 9.375C23.4375 8.94353 23.0877 8.59375 22.6562 8.59375C22.2248 8.59375 21.875 8.94353 21.875 9.375C21.875 9.80647 22.2248 10.1562 22.6562 10.1562Z" fill="#FFC32C"/>
<path d="M14.1136 20.3477C14.1957 20.7149 13.9144 21.0665 13.5355 21.0665H11.4652C11.0863 21.0665 10.805 20.7149 10.8871 20.3477L11.6917 16.7266C11.0394 16.3907 10.6175 15.668 10.7542 14.8555C10.8753 14.1368 11.4574 13.543 12.1761 13.4141C13.2972 13.2149 14.2738 14.0743 14.2738 15.1563C14.2738 15.8438 13.8792 16.4336 13.3089 16.7266L14.1136 20.3477Z" fill="#7876AB"/>
<path d="M7.88833 11.0229L6.64414 11.8006C6.47256 11.9078 6.25 11.7845 6.25 11.5821V10.8045C6.25 10.6622 6.36533 10.5469 6.50762 10.5469H7.75181C8.01064 10.5469 8.10781 10.8857 7.88833 11.0229Z" fill="#FFEDC5"/>
<path d="M14.6626 15.1581C14.6626 14.5169 14.3806 13.9126 13.8888 13.5003C13.3975 13.0882 12.7484 12.9166 12.1079 13.0301C11.2309 13.1854 10.5155 13.9088 10.368 14.7894C10.2291 15.6193 10.5784 16.4379 11.2501 16.9142L10.5063 20.2616C10.4413 20.5536 10.5114 20.855 10.6987 21.0885C10.8858 21.3219 11.1649 21.4558 11.4642 21.4558H13.5355C13.8348 21.4558 14.1139 21.3219 14.301 21.0885C14.4883 20.855 14.5584 20.5537 14.4934 20.2616L13.7498 16.9146C14.3193 16.512 14.6626 15.8629 14.6626 15.1581ZM13.1286 16.3798C12.971 16.4612 12.888 16.6386 12.9266 16.8116L13.7309 20.431C13.749 20.5127 13.7141 20.5718 13.6916 20.5996C13.6691 20.6276 13.6191 20.6746 13.5356 20.6746H11.4642C11.3807 20.6746 11.3307 20.6276 11.3082 20.5996C11.2857 20.5718 11.2508 20.5127 11.2689 20.431L12.0732 16.8116C12.1118 16.6386 12.0288 16.4612 11.8712 16.38C11.3248 16.0975 11.0372 15.5238 11.1386 14.9184C11.2325 14.3582 11.687 13.8981 12.2441 13.7995C12.3309 13.7841 12.4173 13.7764 12.5024 13.7764C12.827 13.7764 13.1343 13.8873 13.3868 14.0989C13.7012 14.3624 13.8814 14.7484 13.8814 15.1581C13.8814 15.672 13.593 16.14 13.1286 16.3798Z" fill="#383455"/>
<path d="M23.8281 13.6721C23.1819 13.6721 22.6562 14.1978 22.6562 14.844C22.6562 15.0244 22.7006 15.1933 22.7737 15.3461L21.7133 16.4065H20.7031V12.8909H22.6562C22.872 12.8909 23.0469 12.716 23.0469 12.5002V10.4751C23.5006 10.3134 23.8281 9.88384 23.8281 9.37524C23.8281 8.72905 23.3024 8.20337 22.6562 8.20337C22.0101 8.20337 21.4844 8.72905 21.4844 9.37524C21.4844 9.88384 21.8119 10.3133 22.2656 10.4751V12.1096H20.7031V11.719C20.7031 10.3442 19.6823 9.20635 18.3594 9.01582V5.85962C18.3594 2.62876 15.7309 0.000244141 12.5 0.000244141C9.26914 0.000244141 6.64062 2.62876 6.64062 5.85962V9.01582C5.31772 9.20635 4.29688 10.3442 4.29688 11.719V12.1096H2.73438V10.4751C3.18809 10.3134 3.51562 9.88384 3.51562 9.37524C3.51562 8.72905 2.98994 8.20337 2.34375 8.20337C1.69756 8.20337 1.17188 8.72905 1.17188 9.37524C1.17188 9.88384 1.49941 10.3133 1.95312 10.4751V12.5002C1.95312 12.716 2.12803 12.8909 2.34375 12.8909H4.29688V16.4065H3.28672L2.22632 15.3461C2.29941 15.1933 2.34375 15.0244 2.34375 14.844C2.34375 14.1978 1.81807 13.6721 1.17188 13.6721C0.525684 13.6721 0 14.1978 0 14.844C0 15.4902 0.525684 16.0159 1.17188 16.0159C1.35225 16.0159 1.52119 15.9715 1.67397 15.8984L2.84883 17.0733C2.92207 17.1465 3.02144 17.1877 3.125 17.1877H4.29688V20.7034H3.90625C3.80269 20.7034 3.70332 20.7446 3.63008 20.8178L2.45522 21.9927C2.30244 21.9196 2.1335 21.8752 1.95312 21.8752C1.30693 21.8752 0.78125 22.4009 0.78125 23.0471C0.78125 23.6933 1.30693 24.219 1.95312 24.219C2.59932 24.219 3.125 23.6933 3.125 23.0471C3.125 22.8667 3.08066 22.6978 3.00757 22.545L4.06797 21.4846H4.29688V22.2659C4.29688 23.7736 5.52349 25.0002 7.03125 25.0002H17.9688C19.4765 25.0002 20.7031 23.7736 20.7031 22.2659V21.4846H20.932L21.9924 22.545C21.9193 22.6978 21.875 22.8667 21.875 23.0471C21.875 23.6933 22.4007 24.219 23.0469 24.219C23.6931 24.219 24.2188 23.6933 24.2188 23.0471C24.2188 22.4009 23.6931 21.8752 23.0469 21.8752C22.8665 21.8752 22.6976 21.9196 22.5448 21.9927L21.3699 20.8178C21.2967 20.7446 21.1973 20.7034 21.0938 20.7034H20.7031V17.1877H21.875C21.9786 17.1877 22.0779 17.1465 22.1512 17.0733L23.326 15.8984C23.4788 15.9715 23.6478 16.0159 23.8281 16.0159C24.4743 16.0159 25 15.4902 25 14.844C25 14.1978 24.4743 13.6721 23.8281 13.6721ZM22.6562 8.98462C22.8716 8.98462 23.0469 9.15991 23.0469 9.37524C23.0469 9.59058 22.8716 9.76587 22.6562 9.76587C22.4409 9.76587 22.2656 9.59058 22.2656 9.37524C22.2656 9.15991 22.4409 8.98462 22.6562 8.98462ZM2.34375 8.98462C2.55908 8.98462 2.73438 9.15991 2.73438 9.37524C2.73438 9.59058 2.55908 9.76587 2.34375 9.76587C2.12842 9.76587 1.95312 9.59058 1.95312 9.37524C1.95312 9.15991 2.12842 8.98462 2.34375 8.98462ZM0.78125 14.844C0.78125 14.6287 0.956543 14.4534 1.17188 14.4534C1.38721 14.4534 1.5625 14.6287 1.5625 14.844C1.5625 15.0593 1.38721 15.2346 1.17188 15.2346C0.956543 15.2346 0.78125 15.0593 0.78125 14.844ZM1.95312 23.4377C1.73779 23.4377 1.5625 23.2625 1.5625 23.0471C1.5625 22.8318 1.73779 22.6565 1.95312 22.6565C2.16846 22.6565 2.34375 22.8318 2.34375 23.0471C2.34375 23.2625 2.16846 23.4377 1.95312 23.4377ZM23.4375 23.0471C23.4375 23.2625 23.2622 23.4377 23.0469 23.4377C22.8315 23.4377 22.6562 23.2625 22.6562 23.0471C22.6562 22.8318 22.8315 22.6565 23.0469 22.6565C23.2622 22.6565 23.4375 22.8318 23.4375 23.0471ZM12.5 0.781494C15.3002 0.781494 17.5781 3.05942 17.5781 5.85962V8.98462H16.0156V5.85962C16.0156 3.92119 14.4384 2.34399 12.5 2.34399C10.5616 2.34399 8.98438 3.92119 8.98438 5.85962V8.98462H7.42188V5.85962C7.42188 3.05942 9.6998 0.781494 12.5 0.781494ZM15.2344 8.98462H9.76562V5.85962C9.76562 4.35186 10.9922 3.12524 12.5 3.12524C14.0078 3.12524 15.2344 4.35186 15.2344 5.85962V8.98462ZM19.9219 22.2659C19.9219 23.3428 19.0457 24.219 17.9688 24.219H7.03125C5.95435 24.219 5.07812 23.3428 5.07812 22.2659V11.719C5.07812 10.6421 5.95435 9.76587 7.03125 9.76587H17.9688C19.0457 9.76587 19.9219 10.6421 19.9219 11.719V22.2659ZM23.8281 15.2346C23.6128 15.2346 23.4375 15.0593 23.4375 14.844C23.4375 14.6287 23.6128 14.4534 23.8281 14.4534C24.0435 14.4534 24.2188 14.6287 24.2188 14.844C24.2188 15.0593 24.0435 15.2346 23.8281 15.2346Z" fill="#383455"/>
</g>
<defs>
<clipPath id="clip0_4174_9613">
<rect width="25" height="25" fill="white"/>
</clipPath>
</defs>
</svg>
