<svg width="21" height="21" viewBox="0 0 21 21" fill="none" xmlns="http://www.w3.org/2000/svg">
<g clip-path="url(#clip0_4174_9536)">
<path d="M18.2446 18.6421V20.5312H2.71875V18.6421C2.71875 14.3746 6.16882 10.8792 10.4817 10.8792C14.7698 10.8773 18.2466 14.3539 18.2446 18.6421Z" fill="#00B9C7"/>
<path d="M10.3659 0.46875C12.5513 0.468567 14.323 2.24011 14.323 4.42548C14.3232 6.61084 12.5516 8.38257 10.3663 8.38257C8.18091 8.38275 6.40936 6.61139 6.40918 4.42603C6.409 2.24048 8.18054 0.46875 10.3659 0.46875Z" fill="#00B9C7"/>
<path d="M10.3659 8.85132C12.8102 8.8515 14.7917 6.87012 14.7917 4.42584C14.7919 1.98138 12.8104 0 10.3661 0C7.92181 0 5.94025 1.98157 5.94043 4.42603C5.94336 6.86884 7.92291 8.84857 10.3659 8.85132ZM10.3659 0.9375C12.2924 0.937317 13.8542 2.49902 13.8542 4.42548C13.8544 6.35193 12.2929 7.91382 10.3663 7.91382C8.43982 7.914 6.87811 6.35248 6.87793 4.42603C6.87994 2.50031 8.44037 0.93988 10.3659 0.9375Z" fill="#083863"/>
<path d="M10.4817 10.4104C5.93463 10.4084 2.24799 14.095 2.25 18.6421V20.5312C2.25 20.7901 2.45984 20.9999 2.71875 20.9999H18.2446C18.5035 20.9999 18.7134 20.7901 18.7134 20.5312V18.6421C18.7154 14.095 15.0288 10.4086 10.4817 10.4104ZM17.7759 20.0624H3.1875V18.6421C3.1875 14.6136 6.45319 11.3479 10.4817 11.3479C14.5102 11.3479 17.7761 14.6136 17.7761 18.6421V20.0624H17.7759Z" fill="#083863"/>
</g>
<defs>
<clipPath id="clip0_4174_9536">
<rect width="21" height="21" fill="white"/>
</clipPath>
</defs>
</svg>
