<svg width="44" height="44" viewBox="0 0 44 44" fill="none" xmlns="http://www.w3.org/2000/svg">
<g clip-path="url(#clip0_3888_6893)">
<path d="M36.1294 43.2496C26.7394 44.2514 17.2694 44.2514 7.87939 43.2496C6.05594 43.0571 4.35358 42.2453 3.05612 40.9497C1.75867 39.654 0.944513 37.9528 0.749395 36.1296C-0.252402 26.7396 -0.252402 17.2697 0.749395 7.87964C0.941954 6.05618 1.75372 4.35382 3.04936 3.05637C4.34499 1.75891 6.04621 0.944757 7.86939 0.749639C17.2594 -0.252158 26.7294 -0.252158 36.1194 0.749639C37.9428 0.942198 39.6452 1.75396 40.9427 3.0496C42.2401 4.34524 43.0543 6.04645 43.2494 7.86964C44.2512 17.2597 44.2512 26.7296 43.2494 36.1196C43.0568 37.9431 42.2451 39.6455 40.9494 40.9429C39.6538 42.2404 37.9526 43.0545 36.1294 43.2496Z" fill="#E60000"/>
<path d="M35.1071 15.3849C34.5571 13.6924 32.7371 12.6674 31.0621 12.4324C25.0374 11.7924 18.9619 11.7924 12.9371 12.4324C11.2621 12.6674 9.43714 13.6824 8.89214 15.3849C8.03465 19.7541 8.03465 24.2482 8.89214 28.6174C9.44214 30.3074 11.2621 31.3349 12.9371 31.5699C18.9619 32.2099 25.0374 32.2099 31.0621 31.5699C32.7371 31.3349 34.5621 30.3199 35.1071 28.6174C35.9646 24.2482 35.9646 19.7541 35.1071 15.3849ZM18.7096 27.2699V16.7299L27.2896 21.9999C24.3971 23.7774 21.5896 25.4999 18.7096 27.2699Z" fill="white"/>
</g>
<defs>
<clipPath id="clip0_3888_6893">
<rect width="44" height="44" fill="white"/>
</clipPath>
</defs>
</svg>
