<svg width="215" height="215" viewBox="0 0 215 215" fill="none" xmlns="http://www.w3.org/2000/svg">
<g clip-path="url(#clip0_3888_5411)">
<path d="M145.34 215.43C96.893 215.43 48.6614 215.43 0.429705 215.43C0.429696 143.764 0.429696 72.0969 0.429688 0.430219C72.0963 0.430197 143.763 0.430197 215.43 0.430176C215.43 72.0968 215.43 143.763 215.43 215.43C192.138 215.43 168.846 215.43 145.34 215.43ZM139.423 171.123C138.664 171.702 137.905 172.281 136.783 172.861C135.586 173.004 134.372 173.068 133.193 173.305C128.813 174.187 124.408 174.987 120.092 176.125C118.677 176.499 116.563 176.927 116.586 179.047C116.611 181.275 118.654 181.742 120.299 182.332C126.868 184.689 133.773 185.444 140.64 185.664C151.325 186.007 162.066 186.278 172.666 184.402C176.001 183.811 179.265 182.674 182.46 181.507C183.429 181.153 184.718 179.809 184.659 179.007C184.594 178.124 183.153 177.335 182.29 176.528C182.146 176.394 181.899 176.36 181.692 176.307C178.256 175.423 174.818 174.544 171.503 173.371C171.71 172.998 171.998 172.647 172.111 172.248C172.905 169.425 173.85 166.716 175.983 164.532C176.573 163.928 176.896 162.882 176.975 162.005C177.083 160.801 176.861 159.661 175.133 159.594C173.51 159.531 171.898 159.188 170.159 158.738C169.895 158.313 169.631 157.888 169.467 157.185C169.518 157.101 169.569 157.016 169.898 156.913C172.172 154.545 174.926 153.207 178.219 152.989C178.481 152.971 178.744 152.764 178.981 152.606C180.137 151.838 181.056 150.86 180.344 149.407C179.723 148.141 178.804 147.301 177.069 147.689C176.152 147.894 175.072 147.37 174.205 146.902C177.656 143.284 179.273 138.85 179.716 133.983C180.352 126.987 178.326 120.543 175.016 114.514C172.179 109.346 168.646 104.526 167.843 98.2244C169.944 95.7883 168.858 93.4516 167.773 90.8441C169.665 89.6179 167.801 88.535 167.68 87.0136C167.876 85.605 167.988 84.179 168.281 82.7908C169.732 75.9007 171.401 69.0512 172.653 62.1258C173.47 57.6019 172.87 53.119 170.121 49.2114C168.19 46.4662 165.213 45.1287 162.298 43.7416C157.31 41.3679 152.019 40.3439 146.683 41.7175C141.82 42.9692 137.026 44.7018 132.433 46.7439C124.601 50.2264 116.914 54.1143 108.303 55.2195C103.159 55.8797 97.8938 56.5588 92.7667 56.1586C85.5102 55.5922 78.2758 54.6694 70.9988 55.106C67.127 55.3384 63.1989 55.8643 59.3838 58.0418C57.0529 57.7729 54.7691 58.154 53.5143 60.2158C52.23 62.326 51.1111 64.3533 48.7774 65.5762C48.0642 65.9499 47.9153 67.4005 47.2419 68.44C43.7326 73.959 43.4598 80.0724 44.0724 86.3069C44.2198 87.8075 44.8177 89.2638 45.2705 91.0933C45.3066 102.941 45.3444 114.788 45.3715 126.635C45.3723 126.987 45.2613 127.339 44.9428 127.86C44.1701 129.666 43.3973 131.472 42.511 132.968C41.082 127.952 39.6548 122.936 38.2229 117.921C37.8368 116.569 37.0114 115.753 35.5411 116.142C34.0589 116.535 33.8108 117.684 34.0949 119.03C34.2517 119.773 34.4181 120.515 34.5872 121.289C34.1159 121.483 33.8335 121.549 33.6089 121.7C32.7831 122.258 31.4326 122.728 31.28 123.444C30.9956 124.779 32.2938 124.846 33.4079 125.128C34.4203 125.385 34.8707 126.336 33.8071 127.404C33.299 127.915 33.116 128.749 32.7858 129.436C33.59 129.648 34.3883 129.887 35.2003 130.062C35.8864 130.211 37.1837 130.247 37.1934 130.398C37.3263 132.472 39.8822 134.389 37.6713 136.655C37.4834 136.847 37.6637 137.717 37.9453 137.978C38.4043 138.403 39.0881 138.586 39.6951 138.88C38.4001 140.862 38.3856 141.534 39.5382 142.13C41.7494 143.274 41.8856 145.182 39.8911 146.704C37.2053 148.753 35.7456 151.386 36.1055 154.859C36.43 157.99 38.566 159.713 40.5912 161.23C39.0453 161.23 37.4994 161.23 35.9534 161.23C35.9542 161.476 35.955 161.721 35.9558 161.967C36.5489 162.015 37.142 162.104 37.7351 162.104C49.9363 162.112 62.1375 162.115 74.3386 162.097C74.9557 162.096 75.5725 161.894 76.4751 161.812C80.7852 163.94 85.0954 166.067 89.6366 168.417C92.4942 167.752 95.3538 167.095 98.2089 166.419C100.457 165.888 101.514 164.415 101.919 162.121C113.618 162.132 125.317 162.142 137.092 162.542C137.117 163.897 137.282 165.268 137.136 166.604C136.911 168.658 137.716 169.703 139.742 170.167C139.737 170.477 139.732 170.786 139.423 171.123ZM34.747 80.7613C34.4211 81.2734 33.9344 81.7599 33.8467 82.3099C33.8103 82.5377 34.6109 83.0964 35.0642 83.1376C35.3857 83.1669 36.1098 82.4661 36.0517 82.2906C35.8653 81.7271 35.3989 81.2564 34.747 80.7613ZM34.4095 84.7568C33.4998 85.4853 33.3251 86.3228 34.4032 86.9324C34.7509 87.1289 35.792 86.8306 35.952 86.4922C36.4558 85.426 35.9904 84.7234 34.4095 84.7568ZM34.4354 88.7681C33.447 89.4806 33.3756 90.3251 34.3914 90.9504C34.7172 91.151 35.7749 90.8408 35.9413 90.4958C36.4551 89.4311 35.9467 88.7468 34.4354 88.7681Z" fill="white"/>
<path d="M89.406 168.195C85.0958 166.068 80.7857 163.94 76.2056 161.726C75.5824 161.501 75.2292 161.363 74.7842 161.106C71.7905 159.519 68.9044 158.019 65.9746 156.609C65.3164 156.292 64.5056 156.293 63.7302 155.994C61.7654 154.692 59.8774 153.463 57.8978 152.407C50.716 148.575 52.1717 150.963 52.1664 142.68C52.7921 141.779 53.6428 140.965 53.6891 140.108C53.8571 136.997 53.7012 133.871 53.7795 130.754C53.8157 129.314 53.4456 128.265 52.0163 127.55C52.0184 120.575 52.0252 113.804 52.1715 106.96C52.7922 106.123 53.6543 105.377 53.6893 104.593C53.8422 101.174 53.8604 97.7374 53.6759 94.3208C53.6333 93.5305 52.6 92.7938 52.0173 91.8321C52.0112 90.9157 52.1091 90.1831 51.9923 89.4865C51.4936 86.5124 52.8537 84.903 55.5337 83.7574C58.6062 82.4439 61.501 80.7148 64.6352 79.1423C65.6499 78.7723 66.5259 78.4743 67.3514 78.0727C74.862 74.4196 82.3639 70.7484 89.8755 67.2837C89.8847 100.32 89.8899 133.155 89.8686 165.99C89.8681 166.725 89.5669 167.46 89.406 168.195ZM62.3198 128.008C63.545 131.028 65.123 133.603 69.4269 133.302C69.8565 133.308 70.2861 133.318 70.7157 133.319C76.3843 133.338 77.1133 132.923 78.6701 127.411C80.4893 120.971 80.5488 114.437 78.746 107.975C76.8261 101.093 75.1272 100.942 68.0841 101.854C65.1367 102.068 63.0392 104.118 62.0626 107.468C60.2414 107.414 59.3455 108.672 58.7419 110.06C56.5823 115.029 56.6666 120.058 58.7598 125.018C59.383 126.494 60.427 127.718 62.3198 128.008ZM86.4298 142.545C86.4298 148.197 86.4298 153.848 86.4298 159.5C86.5284 159.498 86.6269 159.497 86.7255 159.495C86.7255 147.488 86.7255 135.481 86.7255 123.474C86.6269 123.474 86.5284 123.473 86.4298 123.473C86.4298 129.687 86.4298 135.901 86.4298 142.545ZM86.4298 113.669C86.4298 114.623 86.4298 115.577 86.4298 116.532C86.5323 116.53 86.6348 116.528 86.7373 116.526C86.7373 111.384 86.7373 106.242 86.7373 101.1C86.6348 101.099 86.5323 101.099 86.4298 101.098C86.4298 105.151 86.4298 109.204 86.4298 113.669ZM86.2241 160.524L86.1726 160.629C86.1726 160.629 86.2833 160.608 86.2241 160.524Z" fill="#6EC3F4"/>
<path d="M89.8681 67.0821C82.3637 70.748 74.8618 74.4192 67.3512 78.0723C66.5257 78.4739 65.6498 78.7719 64.4357 79.1255C59.1447 79.1287 54.2152 79.1162 49.2857 79.1231C46.1183 79.1275 45.4775 79.8269 45.4331 83.0712C45.3982 85.628 45.2863 88.1838 45.2086 90.7401C44.8179 89.2634 44.2201 87.8071 44.0726 86.3065C43.4601 80.072 43.7328 73.9586 47.4011 68.5729C47.9227 71.6722 49.2446 73.1554 51.9834 73.1895C58.5493 73.2715 65.1174 73.2599 71.6835 73.1896C73.8514 73.1664 75.2188 71.8517 75.3668 70.0412C75.5244 68.1128 74.4963 66.8696 72.3778 66.2071C71.8098 66.0295 71.1283 65.6036 70.8845 65.1036C69.7138 62.7027 67.9047 61.5819 65.2209 61.766C64.6951 61.802 64.0481 61.5498 63.6175 61.2205C62.2899 60.2052 61.0399 59.0883 59.7598 58.0109C63.1991 55.8639 67.1273 55.338 70.9991 55.1057C78.2761 54.669 85.5105 55.5918 92.767 56.1582C97.8941 56.5584 103.159 55.8793 108.303 55.2191C116.914 54.1139 124.602 50.226 132.434 46.7435C137.026 44.7014 141.82 42.9688 146.683 41.7171C152.019 40.3435 157.31 41.3675 162.299 43.7412C165.214 45.1283 168.19 46.4658 170.121 49.211C172.87 53.1186 173.47 57.6015 172.653 62.1254C171.402 69.0508 169.733 75.9003 168.281 82.7904C167.989 84.1786 167.876 85.6046 167.546 87.1055C165.215 82.222 161.739 78.4496 156.891 75.7972C157.068 73.3334 157.175 71.0487 157.426 68.7799C157.479 68.3034 157.967 67.7009 158.416 67.4731C160.258 66.5375 160.484 65.6218 159.247 63.7179C159.688 61.7008 160.259 59.8273 160.296 57.9433C160.315 56.9875 159.437 55.9688 158.839 55.0609C158.401 54.3953 157.645 53.9336 157.231 53.2585C156.298 51.7405 155.11 50.9798 153.313 51.5277C150.986 52.2369 148.747 52.2018 146.416 51.3051C144.643 50.6229 143.016 51.3421 141.974 52.9603C140.946 54.5563 140.966 56.2222 142.183 57.7232C142.712 58.3751 143.447 58.8594 144.081 59.609C144.046 60.7243 143.945 61.6554 144.007 62.5754C144.182 65.1626 144.203 67.7899 144.713 70.3152C145.103 72.2522 146.411 73.7661 148.667 74.1666C148.705 74.6305 148.725 74.9405 148.743 75.4211C148.753 76.1591 148.763 76.7265 148.639 77.3627C148.056 77.6574 147.608 77.8833 147.076 77.9652C143.308 72.8549 138.518 70.6128 132.295 71.7522C127.663 72.6002 124.573 75.4671 121.958 79.2158C115.005 79.1688 108.25 79.1756 101.492 78.9773C101.488 76.7711 101.484 74.7702 101.483 72.7692C101.483 70.987 100.601 69.5985 98.9939 69.1399C96.0001 68.2852 92.9151 67.7502 89.8681 67.0821Z" fill="#DCF8FA"/>
<path d="M89.8754 67.2837C92.9153 67.7506 96.0003 68.2856 98.9941 69.1403C100.601 69.599 101.483 70.9874 101.484 72.7696C101.484 74.7706 101.488 76.7716 101.503 79.1719C101.508 81.4152 101.501 83.2591 101.495 85.3074C101.491 91.8475 101.485 98.1834 101.487 104.715C101.5 106.628 101.505 108.344 101.501 110.261C101.493 112.145 101.493 113.827 101.493 115.472C102.945 115.645 104.031 115.775 105.118 115.905C105.101 116.067 105.083 116.229 105.066 116.391C103.958 116.486 102.85 116.581 101.483 116.698C101.483 118.711 101.483 120.621 101.482 122.648C101.481 122.843 101.482 122.921 101.483 123.198C101.483 125.258 101.483 127.119 101.482 129.098C101.481 129.293 101.482 129.371 101.483 129.648C101.565 131.468 101.298 133.236 101.892 134.64C102.144 135.236 104.202 135.066 105.439 135.253C105.463 135.256 105.47 135.372 105.507 135.527C105.387 135.615 105.251 135.793 105.09 135.819C103.934 136.007 102.284 135.768 101.742 136.436C101.135 137.185 101.522 138.746 101.486 139.953C101.471 140.452 101.483 140.952 101.482 141.568C101.481 141.763 101.482 141.841 101.483 142.118C101.485 144.056 101.485 145.797 101.488 147.718C101.491 148.636 101.492 149.371 101.504 150.304C101.504 152.234 101.491 153.967 101.489 155.895C101.507 157.807 101.514 159.524 101.514 161.391C101.514 161.74 101.52 161.94 101.527 162.14C101.514 164.415 100.457 165.888 98.2093 166.419C95.3542 167.095 92.4947 167.752 89.5215 168.306C89.5669 167.46 89.8681 166.725 89.8686 165.99C89.8898 133.155 89.8846 100.32 89.8754 67.2837Z" fill="#A7DAFA"/>
<path d="M169.621 156.932C169.57 157.016 169.519 157.1 169.297 157.379C167.775 158.938 166.423 160.303 164.93 161.732C163.675 163.047 162.488 162.683 161.208 161.85C160.744 161.566 160.356 161.386 159.919 161.073C158.774 160.176 157.677 159.412 156.514 158.517C154.029 156.62 151.612 154.854 149.2 152.886C149.206 149.956 149.206 147.228 149.206 144.5C149.085 144.501 148.964 144.502 148.843 144.503C148.843 147.394 148.843 150.286 148.859 153.372C148.728 156.392 148.58 159.217 148.395 162.244C148.368 163.921 148.39 165.395 148.384 166.87C148.371 169.675 148.259 169.787 145.239 169.929C143.277 169.864 141.512 169.861 139.747 169.857C137.717 169.703 136.912 168.658 137.137 166.604C137.283 165.268 137.118 163.897 137.073 162.22C136.924 161.68 136.794 161.461 136.699 161.044C136.814 155.215 136.284 149.495 137.107 143.976C138.587 134.05 140.88 124.245 142.981 114.425C145.343 115.175 147.512 116.212 149.782 116.532C153.779 117.095 157.837 117.219 161.87 117.707C162.091 120.397 160.989 122.45 159.667 124.452C159.128 125.267 158.523 126.142 158.335 127.067C157.712 130.146 157.265 133.261 156.672 136.497C156.337 138.168 155.957 139.696 155.872 141.24C155.828 142.048 156.056 143.126 156.586 143.664C158.266 145.372 160.145 146.883 162.016 148.588C162.509 149.046 162.933 149.386 163.411 149.855C165.148 151.508 166.895 152.969 168.481 154.588C169.058 155.176 169.252 156.14 169.621 156.932ZM152.487 137.395L152.415 137.352C152.415 137.352 152.424 137.439 152.487 137.395ZM151.996 138.301L152.039 138.224C152.039 138.224 151.955 138.236 151.996 138.301ZM151.524 139.097L151.596 139.141C151.596 139.141 151.587 139.053 151.524 139.097ZM151.136 140.021L151.179 139.944C151.179 139.944 151.095 139.956 151.136 140.021ZM150.664 140.817L150.736 140.861C150.736 140.861 150.727 140.773 150.664 140.817ZM150.337 141.695L150.265 141.652C150.265 141.652 150.274 141.739 150.337 141.695ZM149.846 142.601L149.889 142.524C149.889 142.524 149.805 142.536 149.846 142.601ZM149.374 143.397L149.446 143.441C149.446 143.441 149.437 143.353 149.374 143.397Z" fill="#181D25"/>
<path d="M161.869 117.527C157.837 117.219 153.778 117.095 149.782 116.532C147.512 116.212 145.343 115.174 142.883 114.292C142.206 113.24 141.406 112.353 141.412 111.472C141.427 108.877 141.762 106.284 142.117 103.653C145.289 102.122 145.473 99.0261 146.67 96.3086C144.153 95.581 141.904 94.9308 139.517 94.2284C139.503 92.8132 139.629 91.4503 139.842 89.965C140.015 89.3556 140.101 88.8686 140.308 88.2759C140.633 87.3735 140.837 86.5768 141.14 85.648C142.099 83.2658 142.526 80.7545 145.046 79.3963C145.838 78.9464 146.499 78.5278 147.16 78.1092C147.608 77.8833 148.056 77.6574 148.83 77.3836C151.728 76.8845 154.301 76.4332 156.873 75.9819C161.738 78.4496 165.215 82.222 167.526 87.2923C167.801 88.5346 169.665 89.6175 167.562 91.0312C163.822 92.6378 162.764 95.3374 163.367 98.8992C163.391 99.0398 163.4 99.1829 163.386 99.506C163.226 104.577 163.156 109.469 162.923 114.354C162.871 115.426 162.236 116.47 161.869 117.527Z" fill="#496AFE"/>
<path d="M171.381 173.663C174.818 174.544 178.256 175.423 181.693 176.307C181.899 176.36 182.147 176.394 182.29 176.528C183.153 177.335 184.595 178.124 184.66 179.007C184.719 179.809 183.43 181.153 182.46 181.507C179.266 182.675 176.002 183.811 172.666 184.402C162.066 186.278 151.326 186.007 140.64 185.664C133.773 185.444 126.869 184.689 120.3 182.332C118.655 181.742 116.611 181.275 116.587 179.047C116.564 176.927 118.677 176.499 120.093 176.125C124.408 174.987 128.814 174.187 133.194 173.305C134.373 173.068 135.586 173.005 136.956 173.01C136.239 173.935 135.452 174.901 134.438 175.446C132.944 176.248 131.265 176.7 129.714 177.407C129.127 177.674 128.263 178.238 128.265 178.662C128.268 179.197 128.931 179.879 129.48 180.233C132.147 181.951 134.895 182.417 137.99 181.106C139.683 180.388 141.668 180.381 143.498 179.954C144.793 179.651 146.134 179.343 147.299 178.739C148.491 178.12 148.7 177.151 147.7 175.932C146.862 174.911 146.339 173.633 145.884 172.457C152.425 172.584 158.758 172.723 165.093 173.023C164.979 173.52 164.799 173.85 164.764 174.194C164.689 174.93 164.689 175.674 164.659 176.415C165.465 176.394 166.392 176.622 167.051 176.301C168.564 175.564 169.946 174.559 171.381 173.663Z" fill="#DFF0FE"/>
<path d="M45.24 90.9169C45.2866 88.1842 45.3985 85.6284 45.4334 83.0716C45.4778 79.8273 46.1186 79.1279 49.286 79.1235C54.2155 79.1166 59.145 79.1291 64.2738 79.1498C61.5011 80.7148 58.6063 82.4439 55.5338 83.7574C52.8538 84.903 51.4937 86.5124 51.9924 89.4865C52.1092 90.1831 52.0113 90.9157 51.8491 91.8667C49.0923 92.308 48.7277 92.6756 48.7156 95.1926C48.7026 97.9029 48.711 100.613 48.7131 103.324C48.7154 106.45 48.9194 106.677 52.0322 107.034C52.0253 113.804 52.0185 120.575 51.8505 127.573C49.004 128.126 48.6518 128.496 48.6401 131.092C48.6283 133.716 48.6361 136.34 48.6378 138.964C48.64 142.237 48.8266 142.444 52.0224 142.748C52.1718 150.963 50.7161 148.575 57.8979 152.407C59.8775 153.463 61.7655 154.692 63.6953 156.163C63.5151 157.492 63.335 158.499 63.0589 159.625C62.8944 160.246 62.826 160.747 62.6285 161.372C60.1946 161.405 57.8899 161.315 55.5728 161.057C55.1576 159.662 54.7547 158.434 54.3207 157.03C53.3711 155 51.8086 156.209 50.364 155.981C49.9194 155.869 49.6418 155.822 49.3632 155.815C45.8255 155.727 45.6191 155.531 45.3545 151.987C45.3284 151.638 45.2987 151.289 45.3509 150.807C45.3778 149.754 45.3245 148.833 45.2975 147.716C45.3257 146.051 45.3277 144.584 45.396 142.986C45.3783 141.99 45.2944 141.125 45.1853 140.083C45.146 139.434 45.1318 138.96 45.228 138.346C45.2932 134.7 45.2481 131.195 45.203 127.69C45.2619 127.339 45.3728 126.987 45.372 126.635C45.3449 114.788 45.3072 102.941 45.24 90.9169Z" fill="#4A6CFF"/>
<path d="M161.87 117.707C162.236 116.47 162.872 115.426 162.923 114.354C163.157 109.47 163.226 104.577 163.567 99.508C165.085 99.054 166.391 98.7792 167.698 98.5044C168.647 104.526 172.179 109.346 175.017 114.514C178.326 120.543 180.352 126.987 179.716 133.983C179.273 138.85 177.656 143.284 173.979 147.005C171.722 146.44 170.063 146.834 168.631 148.547C168.132 149.145 167.155 149.477 166.338 149.641C165.377 149.833 164.353 149.711 163.356 149.726C162.932 149.386 162.509 149.046 162.119 148.46C164.53 147.216 166.953 146.323 167.23 143.15C167.426 140.905 168.949 139.726 170.92 138.854C172.533 138.141 174.124 137.268 175.524 136.203C177.97 134.341 178.741 131.164 177.444 129.217C175.888 126.882 173.509 126.787 170.216 128.366C168.635 129.124 166.685 129.32 164.89 129.375C161.09 129.491 159.101 130.79 157.801 134.361C157.546 135.062 157.105 135.696 156.75 136.362C157.265 133.261 157.712 130.146 158.335 127.068C158.523 126.142 159.128 125.268 159.666 124.452C160.989 122.45 162.091 120.397 161.87 117.707Z" fill="#DCF9FA"/>
<path d="M59.5719 58.0262C61.0399 59.0884 62.2899 60.2053 63.6175 61.2207C64.048 61.5499 64.695 61.8022 65.2209 61.7661C67.9047 61.5821 69.7138 62.7028 70.8845 65.1038C71.1283 65.6037 71.8097 66.0296 72.3778 66.2072C74.4962 66.8697 75.5244 68.1129 75.3668 70.0413C75.2188 71.8518 73.8514 73.1665 71.6835 73.1897C65.1174 73.26 58.5493 73.2716 51.9834 73.1897C49.2446 73.1555 47.9227 71.6724 47.5342 68.5319C47.9156 67.4002 48.0645 65.9497 48.7777 65.5759C51.1114 64.3531 52.2303 62.3257 53.5146 60.2155C54.7694 58.1538 57.0532 57.7727 59.5719 58.0262Z" fill="#496BFF"/>
<path d="M45.117 138.487C45.1312 138.96 45.1454 139.434 45.1083 140.211C45.1477 141.382 45.2384 142.249 45.3291 143.116C45.3271 144.583 45.3251 146.051 45.1514 147.741C44.4614 148.193 43.9429 148.421 43.2763 148.69C40.886 150.009 39.5448 151.818 40.0138 154.512C40.3553 156.474 41.7361 157.731 43.5554 158.145C46.1807 158.742 48.6942 158.392 50.5298 156.065C51.808 156.209 53.3705 155 54.2197 157.16C52.5537 158.715 50.957 159.966 49.181 161.221C46.3396 161.215 43.6775 161.205 41.0154 161.195C38.566 159.713 36.4299 157.989 36.1054 154.859C35.7455 151.386 37.2052 148.753 39.891 146.704C41.8855 145.182 41.7494 143.273 39.5382 142.13C38.3856 141.533 38.4001 140.861 39.6951 138.88C39.088 138.586 38.4042 138.403 37.9453 137.978C37.6636 137.717 37.4833 136.847 37.6713 136.655C39.8821 134.389 37.3263 132.472 37.1934 130.398C37.1837 130.247 35.8863 130.21 35.2002 130.062C34.3882 129.887 33.5899 129.648 32.7857 129.436C33.116 128.749 33.2989 127.915 33.8071 127.404C34.8706 126.336 34.4202 125.384 33.4079 125.128C32.2938 124.846 30.9956 124.778 31.28 123.444C31.4325 122.728 32.783 122.258 33.6088 121.7C33.8334 121.549 34.1159 121.483 34.5871 121.289C34.418 120.514 34.2516 119.773 34.0948 119.03C33.8107 117.684 34.0589 116.535 35.541 116.142C37.0114 115.753 37.8367 116.568 38.2229 117.921C39.6547 122.936 41.0819 127.952 42.5559 133.291C42.7176 133.859 42.7946 134.287 42.9571 134.322C45.0299 134.775 45.297 135.769 44.0083 137.383C43.9728 137.428 44.7296 138.105 45.117 138.487Z" fill="#FFD952"/>
<path d="M171.441 173.517C169.945 174.559 168.563 175.564 167.051 176.301C166.391 176.623 165.464 176.394 164.658 176.415C164.689 175.674 164.688 174.93 164.763 174.194C164.798 173.85 164.979 173.52 165.181 172.888C166.236 170.106 167.117 167.646 165.761 164.964C165.5 164.448 165.883 163.606 166.121 162.882C168.662 162.642 169.254 160.581 170.281 158.968C171.898 159.188 173.51 159.531 175.133 159.594C176.861 159.661 177.083 160.801 176.975 162.005C176.896 162.882 176.573 163.928 175.983 164.532C173.85 166.716 172.905 169.426 172.111 172.248C171.998 172.648 171.71 172.998 171.441 173.517Z" fill="#7F463A"/>
<path d="M145.676 172.468C146.338 173.633 146.861 174.911 147.699 175.932C148.699 177.151 148.49 178.12 147.298 178.739C146.133 179.343 144.793 179.651 143.498 179.954C141.668 180.381 139.683 180.388 137.989 181.106C134.894 182.417 132.147 181.951 129.48 180.233C128.931 179.879 128.267 179.196 128.265 178.662C128.263 178.238 129.127 177.674 129.713 177.407C131.265 176.7 132.943 176.248 134.437 175.446C135.451 174.901 136.239 173.935 137.137 173.009C137.905 172.281 138.664 171.702 139.666 171.237C141.537 173.165 143.506 171.956 145.369 172.065C145.44 172.314 145.532 172.415 145.676 172.468Z" fill="#7F463A"/>
<path d="M163.41 149.855C164.353 149.711 165.377 149.833 166.338 149.64C167.155 149.477 168.132 149.144 168.631 148.547C170.063 146.834 171.722 146.439 173.909 147.141C175.072 147.37 176.152 147.894 177.069 147.689C178.804 147.301 179.723 148.14 180.344 149.407C181.057 150.859 180.137 151.838 178.982 152.606C178.745 152.764 178.482 152.971 178.22 152.988C174.927 153.207 172.173 154.545 169.76 156.922C169.252 156.14 169.058 155.176 168.481 154.588C166.894 152.969 165.147 151.508 163.41 149.855Z" fill="#8ACDFC"/>
<path d="M167.771 98.3644C166.392 98.7793 165.085 99.054 163.598 99.327C163.401 99.1833 163.392 99.0402 163.368 98.8996C162.765 95.3377 163.823 92.6382 167.486 91.1694C168.859 93.4517 169.944 95.7883 167.771 98.3644Z" fill="#FDC2A1"/>
<path d="M40.804 161.212C43.6782 161.205 46.3403 161.215 49.3903 161.231C51.7138 161.233 53.6495 161.228 55.5852 161.224C57.89 161.314 60.1947 161.404 62.8321 161.374C66.3243 161.242 69.4838 161.231 72.8283 161.23C73.6342 161.235 74.2552 161.23 74.8762 161.225C75.2294 161.363 75.5826 161.501 76.063 161.712C75.5732 161.894 74.9564 162.095 74.3393 162.096C62.1382 162.115 49.937 162.112 37.7358 162.104C37.1427 162.103 36.5496 162.015 35.9565 161.967C35.9557 161.721 35.9549 161.475 35.9541 161.229C37.5 161.229 39.046 161.229 40.804 161.212Z" fill="#CAC0D5"/>
<path d="M136.663 161.243C136.793 161.461 136.923 161.68 137.034 162.025C125.317 162.142 113.618 162.131 101.722 162.13C101.52 161.94 101.513 161.74 101.711 161.391C105.772 161.242 109.629 161.24 113.616 161.368C115.99 161.41 118.234 161.324 120.674 161.24C126.134 161.243 131.398 161.243 136.663 161.243Z" fill="#CAC0D5"/>
<path d="M45.228 138.346C44.7303 138.105 43.9734 137.427 44.0089 137.383C45.2977 135.769 45.0306 134.774 42.9578 134.322C42.7952 134.287 42.7182 133.859 42.6133 133.446C43.3979 131.472 44.1707 129.666 45.0732 127.775C45.2481 131.195 45.2932 134.7 45.228 138.346Z" fill="#DCF8FA"/>
<path d="M170.221 158.853C169.255 160.58 168.663 162.642 166.063 162.767C165.592 162.346 165.332 162.007 165.071 161.668C166.423 160.303 167.775 158.938 169.247 157.518C169.632 157.888 169.896 158.313 170.221 158.853Z" fill="#FCC19F"/>
<path d="M145.337 171.964C143.506 171.956 141.538 173.165 139.819 171.224C139.732 170.786 139.738 170.476 139.745 170.012C141.512 169.861 143.277 169.864 145.227 170.094C145.387 170.868 145.362 171.416 145.337 171.964Z" fill="#FCC19F"/>
<path d="M34.894 80.7554C35.3991 81.2562 35.8655 81.727 36.0519 82.2904C36.11 82.4659 35.386 83.1667 35.0645 83.1374C34.6111 83.0962 33.8106 82.5375 33.8469 82.3098C33.9346 81.7597 34.4213 81.2732 34.894 80.7554Z" fill="#363635"/>
<path d="M34.5733 84.7251C35.9909 84.7235 36.4564 85.4261 35.9525 86.4923C35.7926 86.8307 34.7515 87.129 34.4038 86.9324C33.3257 86.3229 33.5004 85.4854 34.5733 84.7251Z" fill="#363635"/>
<path d="M34.5867 88.7124C35.9468 88.7464 36.4552 89.4307 35.9414 90.4954C35.7749 90.8404 34.7173 91.1506 34.3915 90.9501C33.3757 90.3248 33.4471 89.4802 34.5867 88.7124Z" fill="#363635"/>
<path d="M68.9895 133.286C65.1229 133.603 63.5449 131.028 62.4547 127.814C62.7846 127.582 62.9796 127.543 63.362 127.557C68.2836 127.726 69.7775 126.837 70.5076 122.152C71.0001 118.992 70.9338 115.625 70.4349 112.458C69.7363 108.024 68.1967 107.169 63.4736 107.527C63.0124 107.468 62.703 107.441 62.3936 107.414C63.0391 104.118 65.1366 102.068 68.4082 101.862C70.0371 103.122 71.8013 104.143 72.567 105.665C75.9034 112.299 75.9028 119.278 73.9237 126.31C73.1119 129.195 71.6901 131.708 68.9895 133.286Z" fill="#FAFBFF"/>
<path d="M69.2085 133.294C71.6905 131.708 73.1123 129.195 73.924 126.31C75.9031 119.277 75.9037 112.298 72.5674 105.665C71.8017 104.142 70.0374 103.122 68.584 101.836C75.1274 100.941 76.8263 101.093 78.7463 107.975C80.549 114.436 80.4895 120.971 78.6704 127.411C77.1135 132.922 76.3845 133.338 70.7159 133.319C70.2863 133.318 69.8567 133.307 69.2085 133.294Z" fill="#4E76EF"/>
<path d="M63.174 127.505C62.9791 127.543 62.7842 127.582 62.4436 127.654C60.4264 127.718 59.3825 126.494 58.7593 125.017C56.6661 120.057 56.5817 115.029 58.7414 110.06C59.3449 108.671 60.2409 107.413 62.2276 107.44C62.7025 107.441 63.012 107.468 63.4936 107.676C67.2374 114.5 67.665 121.064 63.174 127.505Z" fill="#2766E9"/>
<path d="M52.1711 106.96C48.9189 106.676 48.7149 106.45 48.7126 103.323C48.7105 100.613 48.7021 97.9027 48.7151 95.1924C48.7272 92.6754 49.0918 92.3078 51.8539 92.0669C52.5996 92.7936 53.6329 93.5303 53.6756 94.3205C53.86 97.7372 53.8418 101.173 53.6889 104.593C53.6539 105.377 52.7919 106.123 52.1711 106.96Z" fill="#DBEBFF"/>
<path d="M52.1666 142.68C48.8267 142.444 48.6401 142.236 48.6379 138.963C48.6362 136.339 48.6284 133.715 48.6402 131.092C48.6519 128.496 49.0041 128.126 51.8554 127.777C53.4458 128.264 53.8159 129.313 53.7797 130.753C53.7013 133.871 53.8572 136.997 53.6892 140.107C53.6429 140.964 52.7923 141.778 52.1666 142.68Z" fill="#DBEBFF"/>
<path d="M74.7837 161.106C74.2545 161.23 73.6334 161.236 72.7104 161.111C69.3237 160.49 66.239 159.998 63.1543 159.507C63.3344 158.499 63.5145 157.492 63.7296 156.316C64.5051 156.293 65.3159 156.292 65.9741 156.609C68.9039 158.019 71.79 159.519 74.7837 161.106Z" fill="#DCF8FA"/>
<path d="M86.4297 142.33C86.4297 135.901 86.4297 129.687 86.4297 123.473C86.5283 123.473 86.6269 123.474 86.7254 123.474C86.7254 135.481 86.7254 147.488 86.7254 159.495C86.6269 159.497 86.5283 159.498 86.4297 159.5C86.4297 153.848 86.4297 148.197 86.4297 142.33Z" fill="#BAE2FA"/>
<path d="M86.4297 113.462C86.4297 109.203 86.4297 105.151 86.4297 101.098C86.5322 101.098 86.6347 101.099 86.7372 101.099C86.7372 106.242 86.7372 111.384 86.7372 116.526C86.6347 116.528 86.5322 116.53 86.4297 116.531C86.4297 115.577 86.4297 114.623 86.4297 113.462Z" fill="#BAE2FA"/>
<path d="M86.2543 160.566C86.2841 160.608 86.1729 160.629 86.1729 160.629C86.1729 160.629 86.2246 160.523 86.2543 160.566Z" fill="#BAE2FA"/>
<path d="M156.891 75.7974C154.3 76.4334 151.728 76.8847 148.964 77.3151C148.762 76.7268 148.752 76.1594 148.919 75.4215C150.202 74.9061 151.306 74.5613 152.411 74.2164C152.334 74.0035 152.257 73.7906 152.18 73.5778C151.003 73.7228 149.826 73.8678 148.649 74.0128C146.411 73.7664 145.103 72.2525 144.712 70.3155C144.203 67.7902 144.182 65.1629 144.007 62.5756C143.944 61.6556 144.046 60.7245 144.235 59.6204C145.412 59.3149 146.43 59.2102 147.44 59.051C147.965 58.9683 148.723 58.5033 148.951 58.7008C150.34 59.9058 151.709 59.4897 153.177 58.9679C154.762 58.4046 155.434 59.035 155.316 60.719C155.222 62.0693 155.297 63.4314 155.297 64.774C156.964 64.3783 158.06 64.1179 159.157 63.8576C160.484 65.622 160.258 66.5377 158.416 67.4733C157.967 67.7011 157.479 68.3037 157.426 68.7801C157.174 71.0489 157.067 73.3337 156.891 75.7974Z" fill="#FDC2A1"/>
<path d="M159.247 63.718C158.06 64.1178 156.964 64.3781 155.297 64.7738C155.297 63.4313 155.222 62.0691 155.316 60.7188C155.434 59.0348 154.763 58.4044 153.177 58.9677C151.709 59.4895 150.34 59.9056 148.951 58.7006C148.723 58.5031 147.965 58.9681 147.441 59.0508C146.431 59.21 145.412 59.3148 144.242 59.431C143.447 58.8595 142.711 58.3752 142.183 57.7233C140.966 56.2223 140.946 54.5564 141.974 52.9603C143.016 51.3422 144.643 50.623 146.416 51.3052C148.746 52.2019 150.986 52.2369 153.312 51.5278C155.11 50.9799 156.298 51.7405 157.23 53.2585C157.645 53.9337 158.4 54.3954 158.839 55.061C159.436 55.9689 160.315 56.9875 160.296 57.9434C160.259 59.8274 159.687 61.7008 159.247 63.718Z" fill="#22034E"/>
<path d="M101.493 85.1028C101.501 83.2589 101.508 81.4149 101.505 79.3768C108.25 79.1758 115.005 79.1689 121.928 79.3634C121.644 81.4103 121.192 83.2559 120.545 85.1132C114.064 85.1176 107.779 85.1102 101.493 85.1028Z" fill="#4A6CFF"/>
<path d="M120.74 85.1015C121.192 83.2559 121.644 81.4103 122.126 79.4172C124.573 75.4672 127.664 72.6004 132.295 71.7524C138.518 70.6129 143.308 72.855 147.076 77.9654C146.499 78.5279 145.838 78.9465 144.973 79.2801C140.583 74.1931 135.031 72.8095 129.75 75.4519C124.696 77.9812 122.476 83.2207 123.685 89.4046C122.692 89.2483 121.862 89.0718 120.981 88.714C120.866 87.3889 120.803 86.2452 120.74 85.1015Z" fill="#FCC405"/>
<path d="M148.668 74.1667C149.827 73.8677 151.004 73.7227 152.181 73.5776C152.258 73.7905 152.335 74.0034 152.412 74.2163C151.307 74.5612 150.203 74.906 148.921 75.2507C148.725 74.9406 148.706 74.6307 148.668 74.1667Z" fill="#FCC19F"/>
<path d="M120.545 85.1133C120.803 86.2453 120.866 87.389 120.921 88.8833C120.85 91.194 121.615 92.7125 123.352 93.8755C123.981 94.7998 124.573 95.5794 125.134 96.556C125.092 108.141 125.09 119.53 125.067 130.918C125.055 136.86 125.006 142.802 124.835 148.728C123.535 147.789 122.38 146.856 121.21 145.944C119.44 144.565 117.659 143.2 115.841 141.662C115.768 141.036 115.735 140.578 115.701 140.036C115.698 139.954 115.693 139.789 115.706 139.589C115.706 129.047 115.695 118.705 115.704 108.193C115.932 106.465 114.775 105.958 113.675 105.817C109.62 105.3 105.546 104.939 101.479 104.519C101.485 98.1831 101.491 91.8473 101.495 85.3072C107.778 85.1102 114.064 85.1176 120.545 85.1133Z" fill="#FEFEFF"/>
<path d="M124.973 148.745C125.006 142.802 125.055 136.86 125.067 130.918C125.091 119.529 125.093 108.141 125.265 96.6094C127.524 97.5832 129.621 98.7007 131.717 100.016C131.714 117.269 131.712 134.325 131.709 151.381C131.708 155.584 131.507 155.788 127.37 155.789C121.988 155.789 121.987 155.789 120.445 160.814C120.407 160.94 120.466 161.096 120.479 161.238C118.235 161.324 115.991 161.41 113.633 161.201C113.233 159.959 112.832 159.03 112.688 158.061C112.425 156.305 111.428 155.786 109.769 155.811C107.007 155.853 104.242 155.744 101.479 155.699C101.491 153.966 101.504 152.234 101.704 150.278C108.729 150.044 115.569 150.079 122.406 149.967C123.268 149.953 124.118 149.171 124.973 148.745Z" fill="#496BFF"/>
<path d="M115.703 140.119C115.735 140.577 115.767 141.036 115.778 141.854C115.602 146.016 115.163 146.609 111.248 147.009C108.01 147.339 104.741 147.372 101.486 147.536C101.485 145.796 101.484 144.056 101.683 142.113C105.626 141.701 109.369 141.491 113.112 141.282C113.1 141.11 113.088 140.939 113.076 140.768C109.212 140.995 105.347 141.223 101.482 141.451C101.482 140.951 101.471 140.452 101.485 139.953C101.521 138.745 101.134 137.185 101.742 136.435C102.284 135.767 103.933 136.007 105.089 135.819C105.25 135.793 105.386 135.615 105.506 135.527C105.469 135.372 105.462 135.256 105.438 135.252C104.202 135.065 102.143 135.235 101.891 134.64C101.297 133.236 101.564 131.468 101.684 129.644C105.057 129.357 108.23 129.273 111.402 129.19C111.396 129.12 111.389 129.05 111.383 128.981C108.083 128.981 104.782 128.981 101.482 128.981C101.482 127.119 101.483 125.257 101.684 123.193C105.797 122.908 109.764 123.368 113.679 121.968C109.518 122.16 105.5 122.345 101.482 122.531C101.482 120.62 101.482 118.71 101.482 116.697C102.849 116.58 103.957 116.485 105.065 116.39C105.083 116.228 105.1 116.067 105.117 115.905C104.031 115.775 102.944 115.645 101.492 115.472C101.492 113.826 101.492 112.144 101.699 110.268C106.59 110.248 111.227 110.036 115.682 108.362C115.694 118.705 115.706 129.047 115.592 139.585C115.359 139.827 115.252 139.873 115.144 139.92C115.33 139.986 115.516 140.052 115.703 140.119ZM113.199 128.139C112.992 128.19 112.784 128.24 112.576 128.291C112.618 128.389 112.66 128.488 112.702 128.586C112.947 128.45 113.192 128.314 113.199 128.139Z" fill="#87CDFC"/>
<path d="M101.488 147.718C104.741 147.372 108.01 147.34 111.248 147.009C115.163 146.609 115.602 146.017 115.82 142.021C117.659 143.201 119.44 144.565 121.21 145.944C122.38 146.857 123.535 147.789 124.835 148.729C124.118 149.171 123.268 149.954 122.406 149.968C115.568 150.079 108.729 150.044 101.691 150.081C101.492 149.371 101.491 148.636 101.488 147.718Z" fill="#DBEBFF"/>
<path d="M115.703 108.193C111.227 110.036 106.59 110.248 101.707 110.068C101.504 108.344 101.499 106.628 101.486 104.715C105.545 104.939 109.62 105.3 113.675 105.818C114.774 105.958 115.932 106.466 115.703 108.193Z" fill="#6EC3F4"/>
<path d="M101.488 155.895C104.241 155.745 107.006 155.854 109.768 155.811C111.427 155.786 112.424 156.306 112.687 158.062C112.832 159.03 113.233 159.96 113.502 161.073C109.629 161.241 105.772 161.242 101.718 161.242C101.513 159.524 101.506 157.807 101.488 155.895Z" fill="#DCF9FA"/>
<path d="M101.481 122.648C105.501 122.346 109.519 122.16 113.679 121.968C109.765 123.368 105.798 122.909 101.684 122.995C101.482 122.921 101.481 122.843 101.481 122.648Z" fill="#BAE2FA"/>
<path d="M101.481 141.568C105.347 141.223 109.212 140.996 113.077 140.768C113.089 140.939 113.101 141.111 113.113 141.282C109.37 141.492 105.627 141.701 101.683 141.915C101.482 141.841 101.481 141.763 101.481 141.568Z" fill="#BAE2FA"/>
<path d="M101.481 129.098C104.783 128.981 108.083 128.981 111.384 128.981C111.39 129.051 111.396 129.12 111.403 129.19C108.23 129.274 105.057 129.357 101.684 129.445C101.482 129.371 101.481 129.293 101.481 129.098Z" fill="#BAE2FA"/>
<path d="M120.674 161.241C120.465 161.096 120.406 160.94 120.445 160.815C121.987 155.789 121.988 155.79 127.369 155.789C131.506 155.788 131.708 155.584 131.708 151.382C131.711 134.326 131.714 117.27 131.873 100.001C132.456 99.8016 132.883 99.8145 133.395 99.941C134.219 100.481 134.918 101 135.7 101.317C137.771 102.155 139.879 102.905 141.972 103.691C141.762 106.284 141.427 108.877 141.412 111.472C141.406 112.354 142.206 113.24 142.735 114.257C140.879 124.246 138.587 134.05 137.106 143.976C136.283 149.495 136.814 155.216 136.699 161.044C131.399 161.243 126.134 161.243 120.674 161.241Z" fill="#D8F5F9"/>
<path d="M156.672 136.497C157.105 135.696 157.546 135.062 157.801 134.36C159.101 130.789 161.09 129.491 164.89 129.375C166.685 129.32 168.635 129.123 170.216 128.366C173.509 126.787 175.888 126.882 177.444 129.217C178.741 131.163 177.97 134.341 175.524 136.202C174.124 137.268 172.533 138.141 170.92 138.854C168.949 139.726 167.426 140.904 167.23 143.15C166.953 146.323 164.53 147.216 162.05 148.342C160.145 146.882 158.265 145.371 156.585 143.664C156.056 143.126 155.827 142.048 155.872 141.239C155.956 139.695 156.336 138.167 156.672 136.497ZM165.661 134.974C165.467 135.116 165.273 135.258 164.849 135.447C164.723 135.585 164.59 135.718 164.486 135.87C164.475 135.886 164.639 136.021 164.722 136.101C164.88 135.913 165.038 135.725 165.44 135.489C165.64 135.351 165.84 135.212 166.196 134.987C166.186 134.897 166.176 134.807 166.166 134.717C166.079 134.792 165.993 134.866 165.661 134.974ZM169.393 132.916C168.549 133.279 167.705 133.641 166.862 134.003C166.971 134.214 167.081 134.424 167.19 134.634C168.003 134.115 168.816 133.595 169.393 132.916ZM171.462 132.665C171.54 132.505 171.618 132.346 171.697 132.186C171.309 132.273 170.922 132.36 170.535 132.447C170.563 132.561 170.591 132.675 170.619 132.789C170.82 132.789 171.021 132.789 171.462 132.665Z" fill="#8ACDFC"/>
<path d="M145.369 172.065C145.362 171.416 145.387 170.868 145.424 170.156C148.258 169.787 148.371 169.675 148.383 166.87C148.39 165.396 148.367 163.921 148.59 162.254C152.976 162.026 157.13 161.99 161.284 161.953C162.487 162.683 163.674 163.047 164.93 161.732C165.331 162.007 165.592 162.346 165.91 162.8C165.883 163.606 165.501 164.447 165.762 164.964C167.117 167.646 166.237 170.106 165.181 172.727C158.758 172.723 152.425 172.584 145.884 172.457C145.532 172.415 145.441 172.314 145.369 172.065Z" fill="#FEFEFF"/>
<path d="M161.208 161.85C157.13 161.99 152.976 162.026 148.627 162.052C148.58 159.217 148.728 156.392 148.951 153.367C149.027 153.166 149.195 153.088 149.195 153.088C151.612 154.854 154.029 156.62 156.381 158.525C155.84 159.298 155.364 159.931 154.615 160.929C155.68 161.204 156.48 161.554 157.29 161.582C158.178 161.612 159.075 161.344 159.968 161.206C160.356 161.386 160.744 161.566 161.208 161.85Z" fill="#93C6EF"/>
<path d="M159.919 161.072C159.075 161.344 158.177 161.612 157.29 161.582C156.479 161.554 155.68 161.204 154.614 160.928C155.364 159.931 155.84 159.298 156.448 158.656C157.677 159.411 158.773 160.175 159.919 161.072Z" fill="#8ACDFC"/>
<path d="M149.199 152.886C149.194 153.088 149.026 153.166 148.934 153.172C148.842 150.286 148.842 147.394 148.842 144.503C148.963 144.502 149.084 144.501 149.205 144.5C149.205 147.228 149.205 149.956 149.199 152.886Z" fill="#363635"/>
<path d="M152.455 137.417C152.424 137.439 152.414 137.352 152.414 137.352C152.414 137.352 152.487 137.395 152.455 137.417Z" fill="#363635"/>
<path d="M153.314 135.697C153.281 135.719 153.347 135.674 153.314 135.697V135.697Z" fill="#363635"/>
<path d="M152.893 136.507C152.872 136.474 152.913 136.54 152.893 136.507V136.507Z" fill="#363635"/>
<path d="M151.976 138.269C151.955 138.236 152.039 138.224 152.039 138.224C152.039 138.224 151.996 138.301 151.976 138.269Z" fill="#363635"/>
<path d="M151.555 139.075C151.586 139.053 151.596 139.141 151.596 139.141C151.596 139.141 151.523 139.097 151.555 139.075Z" fill="#363635"/>
<path d="M151.116 139.988C151.095 139.956 151.178 139.943 151.178 139.943C151.178 139.943 151.136 140.021 151.116 139.988Z" fill="#363635"/>
<path d="M150.695 140.795C150.726 140.773 150.735 140.861 150.735 140.861C150.735 140.861 150.663 140.817 150.695 140.795Z" fill="#363635"/>
<path d="M150.306 141.717C150.274 141.739 150.265 141.651 150.265 141.651C150.265 141.651 150.337 141.694 150.306 141.717Z" fill="#363635"/>
<path d="M149.826 142.568C149.805 142.536 149.888 142.523 149.888 142.523C149.888 142.523 149.846 142.601 149.826 142.568Z" fill="#363635"/>
<path d="M149.404 143.375C149.436 143.353 149.445 143.441 149.445 143.441C149.445 143.441 149.373 143.397 149.404 143.375Z" fill="#363635"/>
<path d="M142.118 103.653C139.879 102.905 137.772 102.155 135.7 101.316C134.919 101 134.219 100.481 133.31 99.8197C129.864 97.6336 126.59 95.6822 123.316 93.7308C121.615 92.7125 120.851 91.194 120.973 89.0646C121.862 89.0718 122.692 89.2483 123.839 89.4401C126.004 90.0527 126.536 89.2271 126.451 87.4824C126.425 86.9561 126.898 86.4055 127.178 85.9585C127.338 86.2003 127.462 86.3496 127.622 86.6561C128.41 90.9724 130.852 93.4227 135.179 94.1788C136.123 94.6506 136.891 95.2114 137.742 95.4074C138.558 95.5951 139.703 95.8013 139.655 94.2808C141.904 94.9309 144.153 95.5811 146.67 96.3087C145.474 99.0262 145.29 102.122 142.118 103.653Z" fill="#FCC19F"/>
<path d="M127.142 85.866C126.898 86.4055 126.426 86.956 126.451 87.4824C126.536 89.2271 126.004 90.0526 124.003 89.4199C122.477 83.2206 124.696 77.9811 129.751 75.4518C135.032 72.8094 140.583 74.1931 144.843 79.3113C142.527 80.7546 142.1 83.2658 141.008 85.5694C138.154 83.0098 135.475 80.4505 132.935 77.7602C131.717 76.4703 130.713 76.1564 129.634 77.4639C133.178 81.1296 136.682 84.7557 140.187 88.3817C140.102 88.8687 140.016 89.3556 139.71 89.8864C135.688 86.1525 131.888 82.3748 128.085 78.595C124.922 81.9511 124.818 82.9405 127.142 85.866Z" fill="#270504"/>
<path d="M127.179 85.9586C124.818 82.9407 124.922 81.9513 128.085 78.5952C131.888 82.375 135.688 86.1526 139.622 90.009C139.629 91.4505 139.504 92.8135 139.517 94.2287C139.703 95.8015 138.558 95.5953 137.742 95.4076C136.891 95.2116 136.123 94.6507 135.166 94.0325C132.537 91.3767 130.061 88.9379 127.586 86.4991C127.462 86.3497 127.338 86.2004 127.179 85.9586Z" fill="#00B5C4"/>
<path d="M140.308 88.2763C136.682 84.756 133.177 81.1299 129.634 77.4642C130.713 76.1567 131.716 76.4706 132.934 77.7605C135.475 80.4508 138.154 83.0101 140.909 85.7018C140.837 86.5771 140.633 87.3738 140.308 88.2763Z" fill="#F5537F"/>
<path d="M50.3633 155.981C48.6942 158.392 46.1807 158.742 43.5554 158.145C41.7361 157.731 40.3552 156.474 40.0137 154.512C39.5447 151.818 40.8859 150.009 43.2943 148.847C44.0637 149.623 44.6669 150.281 45.27 150.94C45.298 151.289 45.3277 151.638 45.3538 151.987C45.6184 155.531 45.8249 155.727 49.3626 155.815C49.6412 155.822 49.9188 155.869 50.3633 155.981Z" fill="#FAFBFF"/>
<path d="M55.5727 161.057C53.6493 161.229 51.7136 161.233 49.5693 161.227C50.9575 159.966 52.5543 158.715 54.2514 157.335C54.7546 158.434 55.1575 159.662 55.5727 161.057Z" fill="#FAFBFF"/>
<path d="M63.0582 159.625C66.239 159.998 69.3237 160.49 72.5255 161.1C69.4831 161.231 66.3236 161.242 62.9605 161.251C62.8254 160.747 62.8938 160.245 63.0582 159.625Z" fill="#FAFBFF"/>
<path d="M45.351 150.807C44.6677 150.282 44.0645 149.623 43.4434 148.807C43.9437 148.422 44.4621 148.193 45.126 147.938C45.3247 148.833 45.3779 149.754 45.351 150.807Z" fill="#BAE2FA"/>
<path d="M45.3957 142.986C45.2388 142.249 45.1481 141.382 45.1338 140.387C45.2941 141.124 45.378 141.99 45.3957 142.986Z" fill="#BAE2FA"/>
<path d="M63.3623 127.557C67.6658 121.064 67.2382 114.5 63.6461 107.708C68.197 107.169 69.7367 108.024 70.4353 112.458C70.9342 115.625 71.0004 118.992 70.5079 122.152C69.7779 126.837 68.2839 127.726 63.3623 127.557Z" fill="#4E76EF"/>
<path d="M153.317 73.3014C153.301 73.2755 153.333 73.3274 153.317 73.3014V73.3014Z" fill="#FCC19F"/>
<path d="M123.352 93.8755C126.589 95.6822 129.863 97.6336 133.223 99.7062C132.883 99.8143 132.456 99.8013 131.874 99.8032C129.62 98.7007 127.523 97.5833 125.296 96.4124C124.573 95.5794 123.98 94.7998 123.352 93.8755Z" fill="#FCC405"/>
<path d="M115.701 140.037C115.517 140.053 115.331 139.986 115.145 139.92C115.252 139.874 115.36 139.827 115.58 139.785C115.693 139.789 115.698 139.954 115.701 140.037Z" fill="#DBEBFF"/>
<path d="M113.319 128.158C113.192 128.313 112.948 128.45 112.703 128.586C112.661 128.488 112.619 128.389 112.577 128.291C112.785 128.24 112.993 128.19 113.319 128.158Z" fill="#BAE2FA"/>
<path d="M169.511 132.996C168.816 133.595 168.003 134.115 167.19 134.634C167.08 134.424 166.971 134.214 166.861 134.003C167.705 133.641 168.549 133.279 169.511 132.996Z" fill="#DFF0FE"/>
<path d="M171.342 132.727C171.021 132.789 170.82 132.789 170.62 132.789C170.591 132.675 170.563 132.561 170.535 132.448C170.922 132.36 171.31 132.273 171.697 132.186C171.619 132.346 171.54 132.506 171.342 132.727Z" fill="#DFF0FE"/>
<path d="M165.197 135.537C165.039 135.725 164.88 135.913 164.722 136.101C164.639 136.021 164.475 135.886 164.486 135.871C164.59 135.718 164.724 135.586 164.993 135.458C165.138 135.469 165.197 135.537 165.197 135.537Z" fill="#DFF0FE"/>
<path d="M165.108 135.435C165.273 135.258 165.467 135.116 165.817 134.992C165.972 135.009 166.041 135.074 166.041 135.074C165.84 135.213 165.64 135.351 165.318 135.513C165.197 135.537 165.138 135.469 165.108 135.435Z" fill="#DFF0FE"/>
<path d="M165.939 134.975C165.993 134.866 166.079 134.792 166.165 134.718C166.175 134.808 166.186 134.898 166.118 135.031C166.04 135.074 165.972 135.009 165.939 134.975Z" fill="#DFF0FE"/>
<path d="M127.621 86.6562C130.061 88.9379 132.536 91.3767 135.025 93.962C130.852 93.4228 128.41 90.9725 127.621 86.6562Z" fill="#270504"/>
</g>
<defs>
<clipPath id="clip0_3888_5411">
<rect width="215" height="215" fill="white"/>
</clipPath>
</defs>
</svg>
