<svg width="24" height="24" viewBox="0 0 24 24" fill="none" xmlns="http://www.w3.org/2000/svg">
<g clip-path="url(#clip0_4273_10034)">
<path d="M20.9293 16.7102H3.02734C3.84765 16.7102 4.31146 16.281 4.57476 15.5697C5.84826 12.1344 2.45606 2.12354 11.9786 2.12354C21.501 2.12354 18.1082 12.1344 19.3819 15.5697C19.6456 16.281 20.1096 16.7102 20.9293 16.7102Z" fill="#F7D360"/>
<path d="M22.6625 18.4431C22.6625 19.4003 21.8863 20.1763 20.9292 20.1763H3.02722C2.54858 20.1763 2.11517 19.9824 1.80151 19.6688C1.48785 19.3551 1.29395 18.9217 1.29395 18.4431C1.29395 17.486 2.06994 16.71 3.02722 16.71H20.9292C21.4079 16.71 21.8413 16.9039 22.1549 17.2175C22.4686 17.5312 22.6625 17.9646 22.6625 18.4431Z" fill="#E58E13"/>
<path d="M19.3817 15.5698H10.0771C9.07402 15.5698 8.27184 14.7394 8.30297 13.7367C8.43407 9.49455 7.7575 2.20422 11.9087 2.12402C0.513677 2.18298 7.79778 16.7104 3.02734 16.7104H20.9292C20.1094 16.7104 19.6454 16.2812 19.3817 15.5698Z" fill="#E58E13"/>
<path d="M22.6626 18.4431C22.6626 19.4003 21.8864 20.1763 20.9294 20.1763H8.03582C7.55737 20.1763 7.12396 19.9824 6.8103 19.6688C6.49664 19.3551 6.30273 18.9217 6.30273 18.4431C6.30273 17.486 7.07873 16.71 8.03582 16.71H20.9294C21.408 16.71 21.8414 16.9039 22.1551 17.2175C22.4687 17.5312 22.6626 17.9646 22.6626 18.4431Z" fill="#F7D360"/>
<path d="M15.445 20.1768C15.445 21.7707 14.3694 23.1128 12.9053 23.5182C12.6102 23.5999 12.2994 23.6437 11.9786 23.6437C10.0637 23.6437 8.51172 22.0915 8.51172 20.1768H15.445Z" fill="#E58E13"/>
<path d="M15.2772 21.2461C14.9203 22.3477 14.0268 23.2079 12.9052 23.5182C12.2001 23.3232 11.5852 22.9111 11.137 22.3583C10.7757 21.9126 11.1017 21.2461 11.6753 21.2461H15.2772Z" fill="#F7D360"/>
<path d="M13.7405 2.25598C13.7444 2.21222 13.7458 2.16809 13.7458 2.12341C13.7458 1.14764 12.9545 0.356445 11.9789 0.356445C11.0026 0.356445 10.2119 1.14764 10.2119 2.12341C10.2119 2.16809 10.2132 2.21222 10.217 2.25598" fill="#E58E13"/>
<path d="M20.9293 16.3535H20.9278C20.2377 16.3531 19.848 15.995 19.625 15.1567C19.3971 14.2994 19.3894 13.0561 19.3813 11.7398C19.3716 10.1449 19.3606 8.33733 18.9642 6.72069C18.9173 6.52953 18.7241 6.41252 18.533 6.4594C18.342 6.50627 18.225 6.69927 18.2717 6.89043C18.6483 8.42558 18.659 10.1887 18.6685 11.7442C18.6769 13.1072 18.6846 14.3946 18.936 15.3398C19.0453 15.7509 19.202 16.0887 19.4046 16.3535H4.55199C4.75451 16.0887 4.91125 15.7509 5.02056 15.3398C5.27196 14.3946 5.27984 13.1072 5.28808 11.7442C5.30071 9.66319 5.31518 7.30461 6.16662 5.49956C7.12499 3.46764 9.02598 2.47979 11.9784 2.47979C13.5998 2.47979 14.9265 2.78448 15.9217 3.38561C16.7847 3.90673 17.4182 4.64739 17.8586 5.64989C17.9377 5.83007 18.1481 5.9121 18.3283 5.83281C18.5084 5.75371 18.5905 5.54351 18.5114 5.36315C18.0168 4.23742 17.2696 3.36675 16.2903 2.77532C15.6652 2.39776 14.9311 2.12548 14.0951 1.95959C14.0108 0.865172 13.094 0 11.9784 0C10.8627 0 9.94572 0.865355 9.86204 1.95996C9.06444 2.11798 8.3593 2.37268 7.75414 2.72332C6.78038 3.28765 6.02929 4.1195 5.52172 5.19542C4.60326 7.14275 4.58825 9.585 4.57525 11.7398C4.56719 13.0561 4.55968 14.2994 4.33154 15.1567C4.10851 15.995 3.71887 16.3531 3.02874 16.3535H3.02728C1.875 16.3535 0.9375 17.291 0.9375 18.4434C0.9375 19.5957 1.875 20.5332 3.02728 20.5332H5.28332C5.48015 20.5332 5.63982 20.3736 5.63982 20.1767C5.63982 19.9799 5.48015 19.8204 5.28332 19.8204H3.02728C2.26812 19.8204 1.65033 19.2026 1.65033 18.4434C1.65033 17.6843 2.26794 17.0667 3.0271 17.0665H3.02728H3.02856H20.9278H20.9291H20.9295C21.6884 17.0667 22.306 17.6843 22.306 18.4434C22.306 19.2026 21.6883 19.8204 20.9291 19.8204H6.70916C6.51232 19.8204 6.35283 19.9799 6.35283 20.1767C6.35283 20.3736 6.51232 20.5332 6.70916 20.5332H8.17235C8.35271 22.4749 9.9904 24 11.9784 24C13.9662 24 15.6039 22.4749 15.7842 20.5332H20.9293C22.0816 20.5332 23.0191 19.5957 23.0191 18.4434C23.0191 17.291 22.0816 16.3535 20.9293 16.3535ZM11.9784 0.712828C12.661 0.712828 13.2319 1.20044 13.3614 1.84552C12.9237 1.79388 12.463 1.76696 11.9784 1.76696C11.4937 1.76696 11.033 1.7937 10.5956 1.84533C10.725 1.20025 11.2958 0.712828 11.9784 0.712828ZM11.9784 23.2871C10.3839 23.2871 9.06645 22.0808 8.88902 20.5332H15.0675C14.8901 22.0808 13.5727 23.2871 11.9784 23.2871Z" fill="black"/>
<path d="M17.7019 2.23718C17.7083 2.24066 18.3429 2.60284 18.9673 3.4442C19.8037 4.57103 20.2276 5.97875 20.2276 7.62834C20.2276 7.82518 20.3873 7.98484 20.5841 7.98484C20.781 7.98484 20.9406 7.82518 20.9406 7.62834C20.9406 5.35747 20.1652 3.85015 19.5146 2.98571C18.7998 2.03576 18.0781 1.63055 18.0478 1.6137C17.8758 1.51885 17.6601 1.58111 17.5645 1.7525C17.469 1.92407 17.5307 2.14086 17.7019 2.23718Z" fill="black"/>
<path d="M20.3909 2.36791C20.4482 2.40545 21.7957 3.30981 21.7957 5.58507C21.7957 5.78191 21.9554 5.94139 22.1522 5.94139C22.3491 5.94139 22.5085 5.78191 22.5085 5.58507C22.5085 2.90148 20.8461 1.81256 20.7753 1.76751C20.6099 1.66223 20.3913 1.71093 20.2851 1.87591C20.1789 2.04071 20.2267 2.2608 20.3909 2.36791Z" fill="black"/>
<path d="M3.37292 7.9849C3.56976 7.9849 3.72943 7.82523 3.72943 7.62839C3.72943 5.9788 4.1535 4.57109 4.98974 3.44426C5.61029 2.6082 6.24108 2.24528 6.255 2.23723C6.42657 2.14183 6.48882 1.9254 6.39379 1.75346C6.29839 1.58116 6.0816 1.51872 5.9093 1.61376C5.8789 1.6306 5.15728 2.03581 4.44244 2.98576C3.79205 3.8502 3.0166 5.35752 3.0166 7.62839C3.0166 7.82523 3.17609 7.9849 3.37292 7.9849Z" fill="black"/>
<path d="M1.80475 5.94138C2.00159 5.94138 2.16107 5.78189 2.16107 5.58505C2.16107 3.31162 3.50653 2.40672 3.56585 2.36808C3.73065 2.26206 3.77899 2.04252 3.6737 1.87699C3.56805 1.71092 3.34777 1.66203 3.18151 1.76768C3.11084 1.81272 1.44824 2.90147 1.44824 5.58505C1.44824 5.78189 1.60791 5.94138 1.80475 5.94138Z" fill="black"/>
</g>
<defs>
<clipPath id="clip0_4273_10034">
<rect width="24" height="24" fill="white"/>
</clipPath>
</defs>
</svg>
