<svg width="20" height="20" viewBox="0 0 20 20" fill="none" xmlns="http://www.w3.org/2000/svg">
<path d="M15.5652 0H4.43478C3.25889 0.000908413 2.13142 0.461956 1.29994 1.28191C0.468452 2.10186 0.000921187 3.2137 0 4.37328V15.3494C0.000921187 16.509 0.468452 17.6208 1.29994 18.4407C2.13142 19.2607 3.25889 19.7217 4.43478 19.7227H15.5652C16.7411 19.7217 17.8686 19.2607 18.7001 18.4407C19.5315 17.6208 19.9991 16.509 20 15.3494V4.37328C19.9991 3.2137 19.5315 2.10186 18.7001 1.28191C17.8686 0.461956 16.7411 0.000908413 15.5652 0ZM15.9443 10.8595C15.6744 11.1242 15.3094 11.2733 14.9287 11.2745H11.433V14.7217C11.433 15.0965 11.2821 15.4559 11.0133 15.7209C10.7446 15.986 10.3801 16.1348 10 16.1348C9.61993 16.1348 9.25543 15.986 8.98668 15.7209C8.71794 15.4559 8.56696 15.0965 8.56696 14.7217V11.2745H5.0887C4.89888 11.2768 4.7105 11.2419 4.53443 11.172C4.35835 11.102 4.19809 10.9983 4.0629 10.8669C3.9277 10.7355 3.82026 10.579 3.74677 10.4064C3.67329 10.2338 3.63523 10.0485 3.63478 9.86133C3.63451 9.67577 3.67157 9.49201 3.74381 9.32068C3.81606 9.14935 3.92205 8.99385 4.05565 8.86319C4.32565 8.59846 4.69057 8.44934 5.0713 8.44816H8.56696V5.01813C8.56466 4.83095 8.6 4.64518 8.67095 4.47155C8.74189 4.29792 8.84703 4.13987 8.98028 4.00655C9.11354 3.87323 9.27226 3.76728 9.44729 3.69482C9.62232 3.62235 9.81017 3.58482 10 3.58438C10.1882 3.58411 10.3745 3.62065 10.5483 3.6919C10.722 3.76314 10.8797 3.86766 11.0122 3.99941C11.2806 4.26566 11.4318 4.62552 11.433 5.00098V8.44816H14.9287C15.3091 8.44816 15.6739 8.59693 15.9432 8.86186C16.2125 9.12678 16.3643 9.48622 16.3652 9.86133C16.3655 10.0469 16.3284 10.2306 16.2562 10.402C16.1839 10.5733 16.078 10.7288 15.9443 10.8595Z" fill="white"/>
</svg>
