<svg width="283" height="261" viewBox="0 0 283 261" fill="none" xmlns="http://www.w3.org/2000/svg">
<path d="M270.384 261H202.874C200.99 261 199.464 259.495 199.464 257.637C199.464 255.779 200.99 254.273 202.874 254.273H270.384C273.581 254.273 276.181 251.708 276.181 248.555V191.041C276.181 189.183 277.707 187.678 279.59 187.678C281.474 187.678 283 189.183 283 191.041V248.555C283 255.417 277.341 261 270.384 261ZM80.1265 261H12.6157C5.65932 261 0 255.417 0 248.555V191.041C0 189.183 1.52684 187.678 3.40964 187.678C5.29244 187.678 6.81928 189.183 6.81928 191.041V248.555C6.81928 251.708 9.41947 254.273 12.6157 254.273H80.1265C82.0093 254.273 83.5361 255.779 83.5361 257.637C83.5361 259.495 82.0093 261 80.1265 261ZM279.59 73.3222C277.707 73.3222 276.181 71.816 276.181 69.9588V41.2017V12.4446C276.181 9.29173 273.581 6.7268 270.384 6.7268H202.874C200.99 6.7268 199.464 5.22067 199.464 3.3634C199.464 1.50613 200.99 0 202.874 0H270.384C277.341 0 283 5.58257 283 12.4446V69.9588C283 71.816 281.474 73.3222 279.59 73.3222ZM3.40964 73.3222C1.52684 73.3222 0 71.816 0 69.9588V12.4446C0 5.58257 5.65932 0 12.6157 0H77.0578C78.9406 0 80.4675 1.50613 80.4675 3.3634C80.4675 5.22067 78.9406 6.7268 77.0578 6.7268H12.6157C9.41947 6.7268 6.81928 9.29173 6.81928 12.4446V69.9588C6.81928 71.816 5.29244 73.3222 3.40964 73.3222Z" fill="#C0E6E9"/>
</svg>
