<svg width="17" height="21" viewBox="0 0 17 21" fill="none" xmlns="http://www.w3.org/2000/svg">
<path d="M3.15928 12.7065H1.65142C1.25151 12.7065 0.867977 12.8654 0.585198 13.1482C0.302418 13.431 0.143555 13.8145 0.143555 14.2144V20.2459C0.143555 20.4458 0.222987 20.6376 0.364376 20.779C0.505766 20.9204 0.697531 20.9998 0.897487 20.9998H3.91321C4.11317 20.9998 4.30494 20.9204 4.44632 20.779C4.58771 20.6376 4.66715 20.4458 4.66715 20.2459V14.2144C4.66715 13.8145 4.50828 13.431 4.2255 13.1482C3.94272 12.8654 3.55919 12.7065 3.15928 12.7065ZM3.15928 19.4919H1.65142V14.2144H3.15928V19.4919Z" fill="white"/>
<path d="M9.19151 10.4448H7.68365C7.28373 10.4448 6.9002 10.6037 6.61742 10.8865C6.33465 11.1692 6.17578 11.5528 6.17578 11.9527V20.2459C6.17578 20.4459 6.25521 20.6377 6.3966 20.7791C6.53799 20.9204 6.72976 20.9999 6.92971 20.9999H9.94544C10.1454 20.9999 10.3372 20.9204 10.4786 20.7791C10.6199 20.6377 10.6994 20.4459 10.6994 20.2459V11.9527C10.6994 11.5528 10.5405 11.1692 10.2577 10.8865C9.97495 10.6037 9.59142 10.4448 9.19151 10.4448Z" fill="white"/>
<path d="M15.2228 8.18311H13.7149C13.315 8.18311 12.9315 8.34197 12.6487 8.62475C12.3659 8.90753 12.207 9.29106 12.207 9.69097V20.246C12.207 20.446 12.2865 20.6377 12.4279 20.7791C12.5692 20.9205 12.761 20.9999 12.961 20.9999H15.9767C16.1766 20.9999 16.3684 20.9205 16.5098 20.7791C16.6512 20.6377 16.7306 20.446 16.7306 20.246V9.69097C16.7306 9.29106 16.5718 8.90753 16.289 8.62475C16.0062 8.34197 15.6227 8.18311 15.2228 8.18311Z" fill="white"/>
<path d="M11.076 0.101008C10.9614 0.0348363 10.8313 0 10.699 0C10.5667 0 10.4366 0.0348363 10.322 0.101008L5.79844 2.72469C5.68419 2.79097 5.58936 2.88609 5.52344 3.00054C5.45751 3.115 5.42281 3.24476 5.42281 3.37684C5.42281 3.50892 5.45751 3.63869 5.52344 3.75314C5.58936 3.86759 5.68419 3.96272 5.79844 4.02899L6.36389 4.36072C5.79764 5.60495 4.98636 6.72224 3.97855 7.64585C2.97074 8.56946 1.78708 9.28043 0.498302 9.73626C0.333739 9.79557 0.194921 9.91026 0.105628 10.0607C0.0163355 10.2111 -0.017875 10.3879 0.00885743 10.5607C0.0355899 10.7336 0.121602 10.8918 0.252158 11.0082C0.382715 11.1247 0.549691 11.1921 0.724482 11.1989H0.769718C2.52496 11.0987 4.23502 10.604 5.77267 9.75167C7.31032 8.8993 8.63599 7.71118 9.65104 6.27571L10.322 6.66021C10.4366 6.72639 10.5667 6.76122 10.699 6.76122C10.8313 6.76122 10.9614 6.72639 11.076 6.66021C11.191 6.59379 11.2865 6.49814 11.3527 6.38296C11.4189 6.26778 11.4535 6.13714 11.4529 6.00429V0.726771C11.4483 0.599068 11.4112 0.474643 11.3453 0.365182C11.2794 0.255721 11.1867 0.164817 11.076 0.101008Z" fill="white"/>
</svg>
