<svg width="21" height="21" viewBox="0 0 21 21" fill="none" xmlns="http://www.w3.org/2000/svg">
<path d="M10.459 16.0781C13.1773 16.0781 15.3809 15.16 15.3809 14.0273C15.3809 12.8947 13.1773 11.9766 10.459 11.9766C7.74071 11.9766 5.53711 12.8947 5.53711 14.0273C5.53711 15.16 7.74071 16.0781 10.459 16.0781Z" fill="white"/>
<path d="M10.459 19.7697C8.98558 19.7697 7.58153 19.5227 6.50541 19.0744C6.12031 18.9139 5.80125 18.7386 5.53711 18.5557V18.9494C5.53711 20.082 7.74071 21.0002 10.459 21.0002C13.1773 21.0002 15.3809 20.082 15.3809 18.9494V18.5557C15.1167 18.7385 14.7977 18.9139 14.4126 19.0744C13.3364 19.5227 11.9324 19.7697 10.459 19.7697Z" fill="white"/>
<path d="M10.459 17.3087C8.98558 17.3087 7.58153 17.0618 6.50541 16.6135C6.12031 16.453 5.80125 16.2776 5.53711 16.0947V16.4884C5.53711 17.621 7.74071 18.5392 10.459 18.5392C13.1773 18.5392 15.3809 17.621 15.3809 16.4884V16.0947C15.1167 16.2776 14.7977 16.453 14.4126 16.6135C13.3364 17.0618 11.9324 17.3087 10.459 17.3087Z" fill="white"/>
<path d="M9.8433 10.7611C9.84338 10.7561 9.84375 10.7511 9.84375 10.7461C9.84375 9.61349 7.64014 8.69531 4.92188 8.69531C2.20361 8.69531 0 9.61349 0 10.7461C0 11.8466 2.08044 12.7445 4.6919 12.7946C5.00304 12.3272 5.55216 11.8386 6.50541 11.4414C7.43039 11.056 8.59794 10.82 9.8433 10.7611Z" fill="white"/>
<path d="M0 15.2744V15.6681C0 16.7139 1.87876 17.5768 4.30664 17.703V16.4735C3.06112 16.4146 1.8934 16.1786 0.968297 15.7931C0.583201 15.6326 0.264141 15.4573 0 15.2744Z" fill="white"/>
<path d="M4.30676 14.0125C3.0612 13.9537 1.89345 13.7177 0.968338 13.3322C0.583201 13.1717 0.264141 12.9963 0 12.8135V13.2072C0 14.253 1.87876 15.1159 4.30664 15.2421V14.0685L4.30709 14.0688C4.30685 14.0548 4.30664 14.041 4.30664 14.0275C4.30664 14.0226 4.30672 14.0175 4.30676 14.0125Z" fill="white"/>
<path d="M7.99808 3.6914H8.61332V6.76757C8.61332 7.10734 8.88878 7.3828 9.22855 7.3828H11.6895C12.0293 7.3828 12.3047 7.10734 12.3047 6.76757V3.6914H12.92C13.1688 3.6914 13.3931 3.54153 13.4884 3.31159C13.5835 3.0817 13.5309 2.81707 13.355 2.64111L10.894 0.180171C10.6538 -0.0600571 10.2642 -0.0600571 10.024 0.180171L7.56303 2.64111C7.38707 2.81707 7.33445 3.08166 7.42965 3.31159C7.52492 3.54148 7.74924 3.6914 7.99808 3.6914Z" fill="white"/>
<path d="M0.615268 4.51171H1.2305V6.76757C1.2305 7.10734 1.50596 7.3828 1.84574 7.3828H4.30667C4.64645 7.3828 4.92191 7.10734 4.92191 6.76757V4.51171H5.53714C5.78599 4.51171 6.0103 4.36184 6.10554 4.1319C6.20074 3.90201 6.14811 3.63738 5.97216 3.46142L3.51122 1.00048C3.27099 0.760255 2.88142 0.760255 2.64115 1.00048L0.180216 3.46142C0.00425865 3.63738 -0.0483644 3.90197 0.0468329 4.1319C0.142112 4.3618 0.366427 4.51171 0.615268 4.51171Z" fill="white"/>
<path d="M15.3809 4.51171H15.9961V6.76757C15.9961 7.10734 16.2716 7.3828 16.6114 7.3828H19.0723C19.4121 7.3828 19.6875 7.10734 19.6875 6.76757V4.51171H20.3028C20.5516 4.51171 20.7759 4.36184 20.8712 4.1319C20.9664 3.90201 20.9137 3.63738 20.7378 3.46142L18.2768 1.00048C18.0366 0.760255 17.647 0.760255 17.4068 1.00048L14.9458 3.46142C14.7699 3.63738 14.7173 3.90197 14.8125 4.1319C14.9077 4.3618 15.132 4.51171 15.3809 4.51171Z" fill="white"/>
<path d="M20.918 10.7461C20.918 9.61349 18.7144 8.69531 15.9961 8.69531C13.2778 8.69531 11.0742 9.61349 11.0742 10.7461C11.0742 10.7511 11.0746 10.7561 11.0747 10.7611C12.32 10.82 13.4876 11.056 14.4125 11.4414C15.3658 11.8386 15.9149 12.3272 16.226 12.7946C18.8375 12.7445 20.918 11.8466 20.918 10.7461Z" fill="white"/>
<path d="M16.6113 16.4735V17.703C19.0392 17.5768 20.918 16.7139 20.918 15.6681V15.2744C20.6538 15.4573 20.3348 15.6327 19.9497 15.7931C19.0246 16.1786 17.8568 16.4146 16.6113 16.4735Z" fill="white"/>
<path d="M16.6117 14.0125C16.6117 14.0175 16.6118 14.0226 16.6118 14.0275C16.6118 14.041 16.6116 14.0548 16.6113 14.0688L16.6118 14.0685V15.2421C19.0397 15.1159 20.9184 14.253 20.9184 13.2072V12.8135C20.6543 12.9963 20.3352 13.1717 19.9501 13.3322C19.025 13.7177 17.8573 13.9537 16.6117 14.0125Z" fill="white"/>
</svg>
