<svg width="21" height="21" viewBox="0 0 21 21" fill="none" xmlns="http://www.w3.org/2000/svg">
<g clip-path="url(#clip0_4199_11776)">
<path d="M11.1481 7.24166C10.9384 7.2 10.7217 7.17773 10.5 7.17773C8.66808 7.17773 7.17773 8.66808 7.17773 10.5C7.17773 12.3319 8.66808 13.8223 10.5 13.8223C12.3319 13.8223 13.8223 12.3319 13.8223 10.5C13.8223 10.2783 13.8 10.0616 13.7583 9.85192L11.8051 11.8051C11.4565 12.1538 10.993 12.3457 10.5 12.3457C10.007 12.3457 9.5435 12.1538 9.19487 11.8051C8.84624 11.4565 8.6543 10.993 8.6543 10.5C8.6543 10.007 8.84624 9.5435 9.19487 9.19487L11.1481 7.24166Z" fill="white"/>
<path d="M20.0603 6.16003L18.7366 7.48375C18.6041 7.61625 18.4548 7.72616 18.2936 7.81139C18.5852 8.65462 18.7441 9.55904 18.7441 10.5C18.7441 15.0458 15.0458 18.7441 10.5 18.7441C5.95415 18.7441 2.25586 15.0458 2.25586 10.5C2.25586 5.95415 5.95415 2.25586 10.5 2.25586C11.4413 2.25586 12.3462 2.41496 13.1896 2.70671C13.275 2.54537 13.3841 2.39541 13.5164 2.26323L14.84 0.939674C13.5164 0.336456 12.0469 0 10.5 0C4.71023 0 0 4.71023 0 10.5C0 16.2898 4.71023 21 10.5 21C16.2898 21 21 16.2898 21 10.5C21 8.9531 20.6635 7.48359 20.0603 6.16003Z" fill="white"/>
<path d="M13.1131 5.2766L13.001 3.94743C12.2238 3.64959 11.3807 3.48633 10.5 3.48633C6.63268 3.48633 3.48633 6.63268 3.48633 10.5C3.48633 14.3673 6.63268 17.5137 10.5 17.5137C14.3673 17.5137 17.5137 14.3673 17.5137 10.5C17.5137 9.61929 17.3504 8.77622 17.0526 7.99901L15.7234 7.88686L14.7478 8.86226C14.9446 9.37079 15.0527 9.9229 15.0527 10.5C15.0527 13.0104 13.0104 15.0527 10.5 15.0527C7.98956 15.0527 5.94727 13.0104 5.94727 10.5C5.94727 7.98956 7.98956 5.94727 10.5 5.94727C11.0771 5.94727 11.6292 6.05541 12.1377 6.25216L13.1131 5.2766Z" fill="white"/>
<path d="M14.2082 3.62L14.3874 5.74256L10.065 10.0649C9.82468 10.3051 9.82468 10.6947 10.065 10.9349C10.185 11.055 10.3425 11.1151 10.5 11.1151C10.6575 11.1151 10.815 11.055 10.935 10.9349L15.2573 6.61254L17.3799 6.7915C17.3972 6.79294 17.4143 6.79375 17.4316 6.79375C17.5941 6.79375 17.7508 6.72934 17.8666 6.6135L20.4767 4.00324C20.6461 3.83405 20.7018 3.58187 20.6196 3.35693C20.5373 3.13198 20.3321 2.97529 20.0935 2.95526L18.2039 2.79584L18.0446 0.906402C18.0244 0.667678 17.8678 0.462439 17.643 0.380248C17.418 0.297896 17.1658 0.353812 16.9965 0.523002L14.3864 3.13326C14.2582 3.26144 14.193 3.43944 14.2082 3.62Z" fill="white"/>
</g>
<defs>
<clipPath id="clip0_4199_11776">
<rect width="21" height="21" fill="white"/>
</clipPath>
</defs>
</svg>
