<svg width="21" height="21" viewBox="0 0 21 21" fill="none" xmlns="http://www.w3.org/2000/svg">
<path fill-rule="evenodd" clip-rule="evenodd" d="M13.8907 11.1366C13.5611 10.823 13.0372 10.8275 12.7132 11.1467C12.3892 11.466 12.3846 11.9822 12.703 12.307L15.0717 14.641L13.9655 15.7311L11.5967 13.397C11.3858 13.1819 11.0735 13.0956 10.7798 13.1713C10.4861 13.2471 10.2567 13.4731 10.1798 13.7624C10.103 14.0518 10.1905 14.3596 10.4089 14.5674L12.5568 16.6846C11.9513 16.9334 11.2953 17.0402 10.6407 16.9966C10.5825 17.5812 10.3485 18.1354 9.96875 18.5882C10.2838 18.641 10.6026 18.6687 10.9221 18.671C12.4816 18.6733 13.9778 18.0637 15.0802 16.9767L16.8509 15.2088C17.1757 14.8845 17.1735 14.3625 16.8458 14.041L13.8907 11.1366Z" fill="white"/>
<path fill-rule="evenodd" clip-rule="evenodd" d="M1.53002 10.6783C1.78021 10.4375 2.07098 10.2415 2.38934 10.0989C1.36939 8.41719 1.43807 6.30392 2.56512 4.68994C3.69217 3.07597 5.67072 2.25754 7.62926 2.59516L7.99298 2.23678C8.34862 1.88562 8.73828 1.5696 9.15638 1.29322C6.41012 0.277228 3.31222 1.11751 1.48057 3.37524C-0.351079 5.63297 -0.50063 8.79554 1.11002 11.2113C1.22925 11.0186 1.37014 10.8398 1.53002 10.6783Z" fill="white"/>
<path fill-rule="evenodd" clip-rule="evenodd" d="M2.12924 11.2581C2.98355 10.4163 4.36538 10.4163 5.21969 11.2581L9.18265 15.1629C10.0414 16.009 10.0414 17.3841 9.18265 18.2302C8.32834 19.072 6.94651 19.072 6.0922 18.2302L2.12924 14.3254C1.27053 13.4793 1.27053 12.1042 2.12924 11.2581Z" fill="white"/>
<path fill-rule="evenodd" clip-rule="evenodd" d="M18.1742 2.82177C15.5266 0.213055 11.2341 0.213055 8.58649 2.82177L4.69141 6.6589L5.28613 7.24407C6.31073 8.25117 7.96928 8.25117 8.99389 7.24407L10.5 5.76169L17.5762 12.8599L18.1759 12.2689C20.8235 9.66014 20.8235 5.43054 18.1759 2.82177H18.1742Z" fill="white"/>
</svg>
