<svg width="19" height="15" viewBox="0 0 19 15" fill="none" xmlns="http://www.w3.org/2000/svg">
<g clip-path="url(#clip0_3992_2670)">
<path d="M4.49901 5.56965L10.3054 0.622128C10.8146 0.194841 11.6126 0.539669 11.6126 1.21433V3.90549C15.8686 4.23532 18.9998 5.60714 18.9998 9.88C18.9998 11.874 17.6926 13.853 16.2486 14.8875C15.8002 15.2098 15.1542 14.805 15.3214 14.2803C16.5906 10.2773 15.1922 8.76306 11.605 8.35826V11.1019C11.605 11.7766 10.807 12.1289 10.2978 11.6941L4.49141 6.74657C4.12661 6.43922 4.12661 5.8845 4.49901 5.56965Z" fill="#262626"/>
<path d="M0.2736 6.74677L6.08 11.6943C6.5816 12.1216 7.3872 11.7768 7.3872 11.1021C7.3872 10.7798 7.2428 10.4649 6.992 10.255L3.8076 7.54138C3.3972 7.19655 3.1692 6.6943 3.1692 6.16207C3.1692 5.62983 3.4048 5.12758 3.8076 4.78276L6.992 2.06911C7.2428 1.85922 7.3872 1.54438 7.3872 1.22204C7.3872 0.547374 6.5892 0.19505 6.08 0.629833L0.2736 5.57736C-0.0912 5.88471 -0.0912 6.43943 0.2736 6.74677Z" fill="#262626"/>
</g>
<defs>
<clipPath id="clip0_3992_2670">
<rect width="19" height="15" fill="white"/>
</clipPath>
</defs>
</svg>
