<svg width="20" height="20" viewBox="0 0 20 20" fill="none" xmlns="http://www.w3.org/2000/svg">
<path d="M19 3.25V6.625H15.625" stroke="white" stroke-width="2" stroke-linecap="round" stroke-linejoin="round"/>
<path d="M1 16.75V13.375H4.375" stroke="white" stroke-width="2" stroke-linecap="round" stroke-linejoin="round"/>
<path d="M17.6085 5.19283C16.7211 3.78832 15.4623 2.65684 13.9714 1.92372C12.4806 1.19059 10.816 0.884409 9.16183 1.03911C7.50771 1.19379 5.92868 1.80332 4.59963 2.80017C3.27059 3.79701 2.2434 5.14227 1.63184 6.68697" stroke="white" stroke-width="2" stroke-linecap="round" stroke-linejoin="round"/>
<path d="M2.3916 14.8071C3.27898 16.2117 4.5378 17.3431 6.02863 18.0762C7.51945 18.8094 9.18413 19.1155 10.8382 18.9608C12.4923 18.8061 14.0714 18.1966 15.4004 17.1999C16.7295 16.203 17.7566 14.8577 18.3682 13.313" stroke="white" stroke-width="2" stroke-linecap="round" stroke-linejoin="round"/>
<path d="M11.125 13.375C10 13.375 7.75 12.7 7.75 10C7.75 7.3 10 6.625 11.125 6.625C12.25 6.625 12.25 6.625 12.25 6.625" stroke="white" stroke-width="2" stroke-linecap="round" stroke-linejoin="round"/>
<path d="M11.6875 10H6.625" stroke="white" stroke-width="2" stroke-linecap="round" stroke-linejoin="round"/>
</svg>
