<svg width="29" height="26" viewBox="0 0 29 26" fill="none" xmlns="http://www.w3.org/2000/svg">
<path d="M12.3187 25.5249C12.3148 25.5249 12.3103 25.5249 12.3064 25.5249C12.1466 25.5217 11.9958 25.4534 11.8875 25.3361L0.836349 13.3194C0.646857 13.1132 0.629455 12.8025 0.795099 12.5763C0.960744 12.3507 1.26238 12.2734 1.51633 12.392L11.631 17.128C11.716 17.1679 11.8166 17.1486 11.8817 17.0809L27.3105 0.955397C27.5193 0.736901 27.8609 0.713053 28.0981 0.901256C28.3353 1.08946 28.3901 1.42719 28.2244 1.68049L12.8768 25.1917C12.8549 25.2259 12.8291 25.2568 12.8008 25.2858L12.7331 25.3535C12.6229 25.4631 12.4734 25.5249 12.3187 25.5249Z" fill="black"/>
</svg>
