<svg width="25" height="25" viewBox="0 0 25 25" fill="none" xmlns="http://www.w3.org/2000/svg">
<path d="M24.2188 4.0145C24.2181 3.46202 23.9984 2.93235 23.6077 2.54173C23.217 2.1511 22.6872 1.93143 22.1348 1.93091H2.86562C2.31308 1.93132 1.78327 2.15095 1.39248 2.54159C1.0017 2.93223 0.781871 3.46195 0.78125 4.0145V16.6708C0.781871 17.2232 1.00164 17.7529 1.39234 18.1435C1.78304 18.5342 2.31275 18.7538 2.86523 18.7543H10.0137V19.9083H9.81836C9.08442 19.9095 8.3809 20.2016 7.86193 20.7206C7.34295 21.2395 7.05085 21.9431 7.04961 22.677C7.04961 22.7806 7.09076 22.88 7.16402 22.9532C7.23728 23.0265 7.33663 23.0676 7.44023 23.0676H17.5574C17.661 23.0676 17.7604 23.0265 17.8336 22.9532C17.9069 22.88 17.948 22.7806 17.948 22.677C17.9468 21.9431 17.6547 21.2395 17.1357 20.7206C16.6168 20.2016 15.9132 19.9095 15.1793 19.9083H14.984V18.7559H22.1324C22.6853 18.756 23.2156 18.5366 23.6068 18.1459C23.998 17.7552 24.2181 17.2252 24.2188 16.6723V4.01606V4.0145ZM2.86562 2.71216H22.1344C22.4798 2.71236 22.811 2.84962 23.0553 3.09379C23.2996 3.33796 23.4371 3.66909 23.4375 4.0145V14.4293H1.5625V4.0145C1.56291 3.66909 1.70036 3.33796 1.94468 3.09379C2.189 2.84962 2.52021 2.71236 2.86562 2.71216ZM17.1301 22.2879H7.86992C7.96103 21.8379 8.2048 21.4332 8.55999 21.1422C8.91518 20.8512 9.35998 20.6918 9.81914 20.6911H15.1809C15.64 20.6918 16.0848 20.8512 16.44 21.1422C16.7952 21.4332 17.039 21.8379 17.1301 22.2879ZM14.2055 19.9098H10.7945V18.7559H14.2055V19.9098ZM22.1352 17.9747H2.86562C2.52021 17.9745 2.189 17.8372 1.94468 17.593C1.70036 17.3489 1.56291 17.0177 1.5625 16.6723V15.2106H23.4375V16.6723C23.4371 17.0177 23.2996 17.3489 23.0553 17.593C22.811 17.8372 22.4798 17.9745 22.1344 17.9747H22.1352Z" fill="#505050"/>
<path d="M3.26367 5.0481H7.2707C7.3743 5.0481 7.47366 5.00694 7.54692 4.93368C7.62017 4.86043 7.66133 4.76107 7.66133 4.65747C7.66133 4.55387 7.62017 4.45451 7.54692 4.38126C7.47366 4.308 7.3743 4.26685 7.2707 4.26685H3.26367C3.16007 4.26685 3.06071 4.308 2.98746 4.38126C2.9142 4.45451 2.87305 4.55387 2.87305 4.65747C2.87305 4.76107 2.9142 4.86043 2.98746 4.93368C3.06071 5.00694 3.16007 5.0481 3.26367 5.0481Z" fill="#505050"/>
<path d="M9.04688 5.0481H13.1672C13.2708 5.0481 13.3701 5.00694 13.4434 4.93368C13.5167 4.86043 13.5578 4.76107 13.5578 4.65747C13.5578 4.55387 13.5167 4.45451 13.4434 4.38126C13.3701 4.308 13.2708 4.26685 13.1672 4.26685H9.04688C8.94327 4.26685 8.84392 4.308 8.77066 4.38126C8.69741 4.45451 8.65625 4.55387 8.65625 4.65747C8.65625 4.76107 8.69741 4.86043 8.77066 4.93368C8.84392 5.00694 8.94327 5.0481 9.04688 5.0481Z" fill="#505050"/>
<path d="M3.12207 6.96838C3.12207 7.07198 3.16323 7.17134 3.23648 7.2446C3.30974 7.31785 3.40909 7.35901 3.5127 7.35901H19.3299C19.4335 7.35901 19.5328 7.31785 19.6061 7.2446C19.6794 7.17134 19.7205 7.07198 19.7205 6.96838C19.7205 6.86478 19.6794 6.76543 19.6061 6.69217C19.5328 6.61891 19.4335 6.57776 19.3299 6.57776H3.5127C3.40909 6.57776 3.30974 6.61891 3.23648 6.69217C3.16323 6.76543 3.12207 6.86478 3.12207 6.96838Z" fill="#505050"/>
<path d="M3.26367 9.55151H6.62813C6.73173 9.55151 6.83108 9.51036 6.90434 9.4371C6.97759 9.36385 7.01875 9.26449 7.01875 9.16089C7.01875 9.05729 6.97759 8.95793 6.90434 8.88468C6.83108 8.81142 6.73173 8.77026 6.62813 8.77026H3.26367C3.16007 8.77026 3.06071 8.81142 2.98746 8.88468C2.9142 8.95793 2.87305 9.05729 2.87305 9.16089C2.87305 9.26449 2.9142 9.36385 2.98746 9.4371C3.06071 9.51036 3.16007 9.55151 3.26367 9.55151Z" fill="#505050"/>
<path d="M3.26367 11.3281H13.3566C13.4602 11.3281 13.5596 11.287 13.6329 11.2137C13.7061 11.1405 13.7473 11.0411 13.7473 10.9375C13.7473 10.8339 13.7061 10.7345 13.6329 10.6613C13.5596 10.588 13.4602 10.5469 13.3566 10.5469H3.26367C3.16007 10.5469 3.06071 10.588 2.98746 10.6613C2.9142 10.7345 2.87305 10.8339 2.87305 10.9375C2.87305 11.0411 2.9142 11.1405 2.98746 11.2137C3.06071 11.287 3.16007 11.3281 3.26367 11.3281Z" fill="#505050"/>
<path d="M3.26367 13.1804H7.99023C8.09383 13.1804 8.19319 13.1393 8.26645 13.066C8.3397 12.9928 8.38086 12.8934 8.38086 12.7898C8.38086 12.6862 8.3397 12.5868 8.26645 12.5136C8.19319 12.4403 8.09383 12.3992 7.99023 12.3992H3.26367C3.16007 12.3992 3.06071 12.4403 2.98746 12.5136C2.9142 12.5868 2.87305 12.6862 2.87305 12.7898C2.87305 12.8934 2.9142 12.9928 2.98746 13.066C3.06071 13.1393 3.16007 13.1804 3.26367 13.1804Z" fill="#505050"/>
</svg>
