<svg width="17" height="14" viewBox="0 0 17 14" fill="none" xmlns="http://www.w3.org/2000/svg">
<path d="M16.6467 5.29642C15.7652 3.71449 13.1949 0 8.5 0C3.80508 0 1.23482 3.71449 0.353281 5.29642C0.120859 5.71347 0 6.18415 0 6.66216C0 7.14017 0.120859 7.61085 0.353281 8.02791C1.23482 9.60984 3.80508 13.3243 8.5 13.3243C13.1949 13.3243 15.7652 9.60984 16.6467 8.02791C16.8791 7.61052 17 7.14017 17 6.66216C17 6.18415 16.8791 5.71347 16.6467 5.29642ZM8.5 11.3257C5.93672 11.3257 3.85156 9.23376 3.85156 6.66216C3.85156 4.09057 5.93672 1.99865 8.5 1.99865C11.0633 1.99865 13.1484 4.09057 13.1484 6.66216C13.1484 9.23376 11.0633 11.3257 8.5 11.3257ZM11.0384 5.87703C11.1147 6.12519 11.1562 6.38901 11.1562 6.66216C11.1562 8.1315 9.96459 9.32703 8.5 9.32703C7.03541 9.32703 5.84375 8.1315 5.84375 6.66216C5.84375 5.19282 7.03541 3.9973 8.5 3.9973C8.77227 3.9973 9.0349 4.0386 9.2826 4.11555C8.82174 4.32474 8.5 4.79009 8.5 5.32973C8.5 6.06457 9.09566 6.66216 9.82812 6.66216C10.366 6.66216 10.8299 6.33938 11.0384 5.87703Z" fill="white"/>
</svg>
