<svg width="14" height="14" viewBox="0 0 14 14" fill="none" xmlns="http://www.w3.org/2000/svg">
<g clip-path="url(#clip0_4752_12081)">
<path d="M11.9249 13.8905L11.0089 13.2927C12.2267 11.4263 12.8828 9.25522 12.9061 7.01357C12.8828 4.77191 12.2267 2.60086 11.0089 0.734436L11.9249 0.136719C13.258 2.1796 13.9755 4.55573 13.9999 7.00822L14 7.01367L13.9999 7.01912C13.9755 9.47151 13.258 11.8476 11.9249 13.8905ZM10.9648 7.02072L10.965 7.01357L10.9648 7.0063C10.9397 5.10207 10.3685 3.26288 9.313 1.68741L8.40425 2.29623C9.34035 3.69322 9.84749 5.32423 9.87109 7.01357C9.84749 8.70279 9.34035 10.3338 8.40425 11.7308L9.313 12.3396C10.3685 10.7643 10.9397 8.92496 10.9648 7.02072ZM7.30655 10.0079C7.75206 9.0542 7.97711 8.01514 7.95724 7.00278C7.93118 5.67094 7.50597 4.37735 6.72784 3.26213L5.83084 3.88805C6.48463 4.8251 6.84181 5.90956 6.86371 7.02425C6.87589 7.64899 6.7758 8.28772 6.57147 8.90231L0.684875 4.37639L0.404816 5.01704C0.38826 5.05486 0 5.95731 0 7.20497C0 8.49942 0.740097 9.65619 0.771606 9.70479L1.68944 9.10985C1.68346 9.10066 1.09375 8.16403 1.09375 7.20497C1.09375 6.80165 1.14363 6.4417 1.20345 6.1548L7.01805 10.6254L7.30655 10.0079Z" fill="white"/>
</g>
<defs>
<clipPath id="clip0_4752_12081">
<rect width="14" height="14" fill="white"/>
</clipPath>
</defs>
</svg>
