<svg width="19" height="19" viewBox="0 0 19 19" fill="none" xmlns="http://www.w3.org/2000/svg">
<g clip-path="url(#clip0_5890_5472)">
<path d="M1.74938 7.0752H2.34562C3.08306 7.04799 3.08313 5.98915 2.34562 5.96191H1.74938C1.01198 5.98912 1.01187 7.04796 1.74938 7.0752Z" fill="black"/>
<path d="M17.2509 11.9243H16.6547C15.9173 11.9515 15.9171 13.0104 16.6547 13.0376H17.2509C17.9883 13.0104 17.9884 11.9515 17.2509 11.9243Z" fill="black"/>
<path d="M6.51953 2.90178C6.82695 2.90178 7.07617 2.65256 7.07617 2.34514V1.74891C7.04897 1.01147 5.99013 1.01139 5.96289 1.74891V2.34514C5.96289 2.65256 6.21208 2.90178 6.51953 2.90178Z" fill="black"/>
<path d="M12.4814 16.0977C12.174 16.0977 11.9248 16.3469 11.9248 16.6543V17.2505C11.952 17.9879 13.0108 17.988 13.0381 17.2505V16.6543C13.0381 16.3469 12.7889 16.0977 12.4814 16.0977Z" fill="black"/>
<path d="M3.17344 3.96042C3.71345 4.46344 4.46325 3.7158 3.96183 3.17437L3.54149 2.75277C3.00151 2.24979 2.25164 2.99728 2.7531 3.53882L3.17344 3.96042Z" fill="black"/>
<path d="M15.8266 15.0389C15.2867 14.5359 14.5368 15.2834 15.0383 15.825L15.4586 16.2466C15.9986 16.7496 16.7484 16.002 16.247 15.4605L15.8266 15.0389Z" fill="black"/>
<path d="M1.99595 15.318C1.86317 15.1854 1.73952 15.046 1.62504 14.9009L0.16304 16.3629C-0.0543467 16.5803 -0.0543467 16.9327 0.16304 17.1501L1.84988 18.837C2.06727 19.0543 2.4197 19.0543 2.63708 18.837L4.09856 17.3755C3.79672 17.163 2.29319 15.6007 1.99595 15.318Z" fill="black"/>
<path d="M6.04395 7.89735L7.73038 9.58371L8.63065 8.6837C9.09371 8.22053 9.09886 7.46558 8.63062 6.99719C8.16601 6.53254 7.4089 6.53169 6.94303 6.99763L6.04395 7.89735Z" fill="black"/>
<path d="M12.0026 10.3697C11.538 9.9051 10.7809 9.90425 10.315 10.3702L9.41602 11.2698L11.1025 12.9562L12.0027 12.0563C12.4657 11.5931 12.4709 10.8381 12.0026 10.3697Z" fill="black"/>
<path d="M4.83538 8.26314C4.6181 8.0459 4.2659 8.04571 4.04851 8.2628L2.78442 9.52768C1.39913 10.9113 1.40087 13.1494 2.78434 14.5312L4.46874 16.2177C5.84936 17.5966 8.09462 17.5952 9.47453 16.2169C9.47453 16.2169 10.7375 14.9531 10.7377 14.953C10.9552 14.7358 10.9555 14.3829 10.738 14.1654L4.83538 8.26314Z" fill="black"/>
<path d="M18.8369 1.8494L17.15 0.162552C16.9327 -0.054835 16.5802 -0.054835 16.3628 0.162552L14.9014 1.62403C15.0466 1.73825 15.186 1.86157 15.3187 1.99408C15.6082 2.29886 17.1544 3.79066 17.3749 4.09859L18.8369 2.6366C19.0542 2.41921 19.0542 2.06678 18.8369 1.8494Z" fill="black"/>
<path d="M16.2162 9.47211C17.6016 8.08833 17.5996 5.85023 16.2162 4.46854L14.5318 2.78214C13.1519 1.4039 10.9067 1.40386 9.52608 2.78288C9.52608 2.78288 8.2631 4.04664 8.26291 4.04679C8.04542 4.26395 8.04504 4.61683 8.26258 4.83436L14.1652 10.7367C14.3824 10.9539 14.7346 10.9541 14.952 10.737L16.2162 9.47211Z" fill="black"/>
</g>
<defs>
<clipPath id="clip0_5890_5472">
<rect width="19" height="19" fill="white"/>
</clipPath>
</defs>
</svg>
