<svg width="19" height="19" viewBox="0 0 19 19" fill="none" xmlns="http://www.w3.org/2000/svg">
<g clip-path="url(#clip0_4143_9316)">
<path d="M0.742039 17.6641C0.646408 17.6641 0.549998 17.6456 0.458189 17.6075C0.180834 17.4927 0 17.2221 0 16.9219V5.04688C0 3.00066 1.66469 1.33594 3.71094 1.33594H15.2891C17.3353 1.33594 19 3.00066 19 5.04688V10.9844C19 13.0306 17.3353 14.6953 15.2891 14.6953H4.32577C4.12753 14.6953 3.94116 14.7725 3.80093 14.9127L1.26699 17.4467C1.12501 17.5887 0.935156 17.6641 0.742039 17.6641ZM3.71094 2.82031C2.48321 2.82031 1.48438 3.81915 1.48438 5.04688V15.1301L2.75136 13.8631C3.17196 13.4425 3.73109 13.2109 4.32577 13.2109H15.2891C16.5168 13.2109 17.5156 12.2121 17.5156 10.9844V5.04688C17.5156 3.81915 16.5168 2.82031 15.2891 2.82031H3.71094Z" fill="white"/>
<path d="M9.49971 10.2423C8.91602 10.2423 8.36431 10.018 7.94627 9.6108L3.80635 5.57861C3.51274 5.2926 3.50655 4.82273 3.79255 4.52908C4.07855 4.23547 4.54843 4.22923 4.84204 4.51524L8.98192 8.54743C9.12127 8.6831 9.30514 8.75784 9.49971 8.75784C9.69427 8.75784 9.87811 8.68314 10.0174 8.54743L14.1574 4.5152C14.451 4.2292 14.9209 4.2354 15.2069 4.52904C15.4929 4.82269 15.4867 5.29257 15.193 5.57857L11.0531 9.6108C10.6351 10.018 10.0834 10.2423 9.49971 10.2423Z" fill="#FAC106"/>
</g>
<defs>
<clipPath id="clip0_4143_9316">
<rect width="19" height="19" fill="white"/>
</clipPath>
</defs>
</svg>
