<svg width="17" height="17" viewBox="0 0 17 17" fill="none" xmlns="http://www.w3.org/2000/svg">
<path d="M4.95833 0H2.83333C1.27075 0 0 1.27075 0 2.83333V4.95833C0 6.52092 1.27075 7.79167 2.83333 7.79167H4.95833C6.52092 7.79167 7.79167 6.52092 7.79167 4.95833V2.83333C7.79167 1.27075 6.52092 0 4.95833 0ZM6.375 4.95833C6.375 5.73962 5.73962 6.375 4.95833 6.375H2.83333C2.05204 6.375 1.41667 5.73962 1.41667 4.95833V2.83333C1.41667 2.05204 2.05204 1.41667 2.83333 1.41667H4.95833C5.73962 1.41667 6.375 2.05204 6.375 2.83333V4.95833ZM4.95833 3.54167V4.25C4.95833 4.641 4.641 4.95833 4.25 4.95833H3.54167C3.15067 4.95833 2.83333 4.641 2.83333 4.25V3.54167C2.83333 3.15067 3.15067 2.83333 3.54167 2.83333H4.25C4.641 2.83333 4.95833 3.15067 4.95833 3.54167ZM12.0417 7.79167H14.1667C15.7292 7.79167 17 6.52092 17 4.95833V2.83333C17 1.27075 15.7292 0 14.1667 0H12.0417C10.4791 0 9.20833 1.27075 9.20833 2.83333V4.95833C9.20833 6.52092 10.4791 7.79167 12.0417 7.79167ZM10.625 2.83333C10.625 2.05204 11.2604 1.41667 12.0417 1.41667H14.1667C14.948 1.41667 15.5833 2.05204 15.5833 2.83333V4.95833C15.5833 5.73962 14.948 6.375 14.1667 6.375H12.0417C11.2604 6.375 10.625 5.73962 10.625 4.95833V2.83333ZM12.0417 4.25V3.54167C12.0417 3.15067 12.359 2.83333 12.75 2.83333H13.4583C13.8493 2.83333 14.1667 3.15067 14.1667 3.54167V4.25C14.1667 4.641 13.8493 4.95833 13.4583 4.95833H12.75C12.359 4.95833 12.0417 4.641 12.0417 4.25ZM4.95833 9.20833H2.83333C1.27075 9.20833 0 10.4791 0 12.0417V14.1667C0 15.7292 1.27075 17 2.83333 17H4.95833C6.52092 17 7.79167 15.7292 7.79167 14.1667V12.0417C7.79167 10.4791 6.52092 9.20833 4.95833 9.20833ZM6.375 14.1667C6.375 14.948 5.73962 15.5833 4.95833 15.5833H2.83333C2.05204 15.5833 1.41667 14.948 1.41667 14.1667V12.0417C1.41667 11.2604 2.05204 10.625 2.83333 10.625H4.95833C5.73962 10.625 6.375 11.2604 6.375 12.0417V14.1667ZM4.95833 12.75V13.4583C4.95833 13.8493 4.641 14.1667 4.25 14.1667H3.54167C3.15067 14.1667 2.83333 13.8493 2.83333 13.4583V12.75C2.83333 12.359 3.15067 12.0417 3.54167 12.0417H4.25C4.641 12.0417 4.95833 12.359 4.95833 12.75ZM12.0417 10.2708V10.9792C12.0417 11.5657 11.5657 12.0417 10.9792 12.0417H10.2708C9.68433 12.0417 9.20833 11.5657 9.20833 10.9792V10.2708C9.20833 9.68433 9.68433 9.20833 10.2708 9.20833H10.9792C11.5657 9.20833 12.0417 9.68433 12.0417 10.2708ZM14.1667 13.1042C14.1667 13.6907 13.6907 14.1667 13.1042 14.1667C12.5177 14.1667 12.0417 13.6907 12.0417 13.1042C12.0417 12.5177 12.5177 12.0417 13.1042 12.0417C13.6907 12.0417 14.1667 12.5177 14.1667 13.1042ZM12.0417 15.2292V15.9375C12.0417 16.524 11.5657 17 10.9792 17H10.2708C9.68433 17 9.20833 16.524 9.20833 15.9375V15.2292C9.20833 14.6427 9.68433 14.1667 10.2708 14.1667H10.9792C11.5657 14.1667 12.0417 14.6427 12.0417 15.2292ZM17 10.2708V10.9792C17 11.5657 16.524 12.0417 15.9375 12.0417H15.2292C14.6427 12.0417 14.1667 11.5657 14.1667 10.9792V10.2708C14.1667 9.68433 14.6427 9.20833 15.2292 9.20833H15.9375C16.524 9.20833 17 9.68433 17 10.2708Z" fill="black"/>
</svg>
