<svg width="18" height="18" viewBox="0 0 18 18" fill="none" xmlns="http://www.w3.org/2000/svg">
<g clip-path="url(#clip0_4230_9749)">
<path opacity="0.991" fill-rule="evenodd" clip-rule="evenodd" d="M11.373 2.02148C11.354 2.02359 11.3422 2.03531 11.3379 2.05664C11.3623 2.13794 11.3974 2.18481 11.4434 2.19727C11.9005 3.53851 11.5606 4.63423 10.4238 5.48437C9.4133 6.04213 8.41718 6.01871 7.43555 5.41406C7.13123 5.18618 6.88514 4.91077 6.69727 4.58789C6.71266 4.59018 6.72441 4.58434 6.73242 4.57031C6.66795 4.43067 6.59763 4.31933 6.52148 4.23633C6.24023 3.55665 6.24023 2.87695 6.52148 2.19727C6.5674 2.18481 6.60255 2.13794 6.62695 2.05664C6.62259 2.03531 6.61089 2.02359 6.5918 2.02148C7.0895 1.05714 7.88636 0.553233 8.98242 0.509766C10.0785 0.553233 10.8753 1.05714 11.373 2.02148Z" fill="#FEFEFE"/>
<path opacity="0.937" fill-rule="evenodd" clip-rule="evenodd" d="M6.5918 2.02148C6.61089 2.02359 6.62259 2.03531 6.62695 2.05664C6.60255 2.13794 6.5674 2.18481 6.52148 2.19727C6.5353 2.13455 6.55871 2.07596 6.5918 2.02148Z" fill="#EAEAEA"/>
<path opacity="0.937" fill-rule="evenodd" clip-rule="evenodd" d="M11.373 2.02148C11.4061 2.07596 11.4295 2.13455 11.4434 2.19727C11.3974 2.18481 11.3623 2.13794 11.3379 2.05664C11.3422 2.03531 11.354 2.02359 11.373 2.02148Z" fill="#EAEAEA"/>
<path opacity="0.933" fill-rule="evenodd" clip-rule="evenodd" d="M6.69727 4.58789C6.62084 4.48189 6.56223 4.36468 6.52148 4.23633C6.59763 4.31933 6.66795 4.43067 6.73242 4.57031C6.72441 4.58434 6.71266 4.59018 6.69727 4.58789Z" fill="#EEEEEE"/>
<path opacity="0.988" fill-rule="evenodd" clip-rule="evenodd" d="M13.9748 6.27529C14.1136 6.42139 14.2601 6.58547 14.4143 6.76747C14.4283 6.75946 14.4342 6.74772 14.4319 6.73232C14.8359 7.34105 14.9238 7.99727 14.6955 8.70107C14.208 9.79165 13.3701 10.2428 12.1819 10.0546C11.9092 9.99338 11.6631 9.88204 11.4436 9.7206C11.459 9.72288 11.4707 9.71705 11.4787 9.70302C11.2967 9.54886 11.1327 9.40236 10.9866 9.26357C10.6749 8.89147 10.5226 8.45786 10.5295 7.96279C10.5276 7.44107 10.6916 6.98404 11.0217 6.59169C11.0194 6.60709 11.0253 6.61883 11.0393 6.62685C11.1389 6.52725 11.2385 6.42762 11.3381 6.32802C11.3301 6.31399 11.3184 6.30816 11.303 6.31044C12.0596 5.74664 12.8682 5.67046 13.7287 6.08193C13.826 6.13013 13.908 6.19457 13.9748 6.27529Z" fill="#FEFEFE"/>
<path opacity="0.353" fill-rule="evenodd" clip-rule="evenodd" d="M13.9746 6.27539C14.1614 6.39183 14.3137 6.54416 14.4316 6.73242C14.4339 6.74782 14.4281 6.75956 14.4141 6.76758C14.2599 6.58557 14.1134 6.4215 13.9746 6.27539Z" fill="#F1F1F1"/>
<path opacity="0.733" fill-rule="evenodd" clip-rule="evenodd" d="M11.3032 6.31054C11.3186 6.30826 11.3304 6.31409 11.3384 6.32812C11.2388 6.42772 11.1391 6.52735 11.0395 6.62695C11.0255 6.61893 11.0197 6.60719 11.022 6.59179C11.104 6.48632 11.1977 6.39256 11.3032 6.31054Z" fill="#EAEAEA"/>
<path opacity="0.986" fill-rule="evenodd" clip-rule="evenodd" d="M-0.0175781 16.119C-0.0175781 13.494 -0.0175781 10.869 -0.0175781 8.24402C0.0692459 8.09457 0.198152 7.99498 0.369141 7.94519C0.749074 7.90631 1.12408 7.92976 1.49414 8.01551C1.83281 8.19027 2.03789 8.46568 2.10938 8.84168C2.13281 11.0682 2.13281 13.2948 2.10938 15.5214C2.02148 16.0311 1.72266 16.33 1.21289 16.4178C0.931641 16.4413 0.650391 16.4413 0.369141 16.4178C0.198152 16.3681 0.0692459 16.2685 -0.0175781 16.119Z" fill="#FEFEFE"/>
<path opacity="0.987" fill-rule="evenodd" clip-rule="evenodd" d="M17.2789 12.2168C17.3642 12.2866 17.4697 12.3627 17.5953 12.4453C17.6282 12.4696 17.6516 12.4638 17.6656 12.4277C17.807 12.5703 17.9125 12.7343 17.982 12.9199C17.982 13.1426 17.982 13.3653 17.982 13.5879C17.89 13.8465 17.726 14.0516 17.4898 14.2031C16.1304 15.1641 14.771 16.125 13.4117 17.0859C13.0937 17.3052 12.7421 17.4341 12.357 17.4727C10.6109 17.4961 8.8648 17.4961 7.11869 17.4727C6.8186 17.4504 6.53735 17.3743 6.27494 17.2441C6.09399 17.1174 5.88306 17.0002 5.64213 16.8926C5.62079 16.8969 5.60908 16.9086 5.60698 16.9277C5.05674 16.6761 4.51769 16.4065 3.98979 16.1191C3.73828 15.9574 3.45703 15.8051 3.14604 15.6621C3.12471 15.6665 3.11299 15.6782 3.11088 15.6973C3.11017 13.466 3.11017 11.2278 3.11088 8.98243C3.87268 8.97656 4.63441 8.98243 5.39604 9C5.88278 9.03333 6.3281 9.18567 6.73198 9.45704C7.53452 10.0048 8.34312 10.5439 9.15776 11.0742C10.0367 11.0859 10.9156 11.0977 11.7945 11.1094C12.3042 11.1973 12.6031 11.4961 12.691 12.0059C12.7439 12.6789 12.4451 13.0949 11.7945 13.2539C10.0835 13.2656 8.37261 13.2774 6.66166 13.2891C6.27849 13.4542 6.1906 13.7179 6.39799 14.0801C6.47737 14.1479 6.56526 14.2007 6.66166 14.2383C8.74759 14.2617 10.8335 14.2617 12.9195 14.2383C14.1148 13.5703 15.3101 12.9023 16.5054 12.2344C16.7664 12.13 17.0242 12.1242 17.2789 12.2168Z" fill="#FEFEFE"/>
<path opacity="0.353" fill-rule="evenodd" clip-rule="evenodd" d="M11.4434 9.7207C11.2551 9.60275 11.1028 9.45042 10.9863 9.26367C11.1324 9.40247 11.2965 9.54896 11.4785 9.70313C11.4705 9.71715 11.4588 9.72299 11.4434 9.7207Z" fill="#F1F1F1"/>
<path opacity="0.388" fill-rule="evenodd" clip-rule="evenodd" d="M17.2793 12.2168C17.4241 12.2599 17.5531 12.3302 17.666 12.4277C17.6521 12.4638 17.6286 12.4696 17.5957 12.4453C17.4701 12.3627 17.3647 12.2865 17.2793 12.2168Z" fill="#F0F0F0"/>
<path opacity="0.396" fill-rule="evenodd" clip-rule="evenodd" d="M3.11133 15.6973C3.11344 15.6782 3.12516 15.6665 3.14648 15.6621C3.45747 15.8051 3.73873 15.9574 3.99023 16.1191C3.69281 15.988 3.39986 15.8474 3.11133 15.6973Z" fill="#F0F0F0"/>
<path opacity="0.945" fill-rule="evenodd" clip-rule="evenodd" d="M5.60742 16.9277C5.60953 16.9086 5.62124 16.8969 5.64258 16.8926C5.8835 17.0002 6.09444 17.1174 6.27539 17.2441C6.04832 17.1482 5.82567 17.0427 5.60742 16.9277Z" fill="#EEEEEE"/>
</g>
<defs>
<clipPath id="clip0_4230_9749">
<rect width="18" height="18" fill="white"/>
</clipPath>
</defs>
</svg>
