<svg width="14" height="14" viewBox="0 0 14 14" fill="none" xmlns="http://www.w3.org/2000/svg">
<path d="M4.44547 3.62072C5.13983 3.06517 5.98282 2.625 6.9998 2.625C9.41603 2.625 11.3748 4.58375 11.3748 7C11.3748 9.41622 9.41603 11.375 6.9998 11.375C5.1011 11.375 3.48344 10.1648 2.87876 8.47327C2.77032 8.16988 2.46437 7.96647 2.1492 8.03326L1.57854 8.15424C1.26337 8.22103 1.05933 8.53195 1.15599 8.83931C1.93721 11.3232 4.2572 13.125 6.9998 13.125C10.3825 13.125 13.1248 10.3827 13.1248 7C13.1248 3.61726 10.3825 0.875 6.9998 0.875C5.37608 0.875 4.11134 1.61493 3.20159 2.37684L2.16227 1.33752C1.99544 1.17069 1.74454 1.12078 1.52656 1.21107C1.30858 1.30136 1.16646 1.51406 1.16646 1.75V4.95833C1.16646 5.2805 1.42763 5.54167 1.74979 5.54167H4.95812C5.19406 5.54167 5.40677 5.39954 5.49705 5.18156C5.58734 4.96359 5.53744 4.71269 5.3706 4.54585L4.44547 3.62072Z" fill="white"/>
</svg>
