<svg width="21" height="21" viewBox="0 0 21 21" fill="none" xmlns="http://www.w3.org/2000/svg">
<path d="M1.31328 13.9276C1.16234 13.9276 1.01141 13.8699 0.895906 13.7544C0.664906 13.524 0.664906 13.1499 0.895906 12.9196L2.77409 11.0414C3.00509 10.8104 3.3785 10.8104 3.60884 11.0414C3.83984 11.2718 3.83984 11.6458 3.60884 11.8762L1.73066 13.7544C1.61581 13.8699 1.46487 13.9276 1.31328 13.9276Z" fill="white"/>
<path d="M2.83379 18.7575C2.68285 18.7575 2.53191 18.6997 2.41641 18.5842C2.18541 18.3539 2.18541 17.9798 2.41641 17.7495L5.94966 14.2162C6.18066 13.9852 6.55407 13.9852 6.78441 14.2162C7.01541 14.4466 7.01541 14.8206 6.78441 15.051L3.25116 18.5849C3.13566 18.7004 2.98473 18.7575 2.83379 18.7575Z" fill="white"/>
<path d="M7.66387 20.2782C7.51293 20.2782 7.36199 20.2204 7.24649 20.1049C7.01549 19.8746 7.01549 19.5005 7.24649 19.2702L9.12468 17.392C9.35568 17.161 9.72909 17.161 9.95943 17.392C10.1904 17.6223 10.1904 17.9964 9.95943 18.2267L8.08124 20.1049C7.9664 20.2204 7.81546 20.2782 7.66387 20.2782Z" fill="white"/>
<path d="M18.0293 1.36778L2.60479 5.96809C1.43994 6.31525 1.35857 7.93356 2.48207 8.39621L9.10494 11.1256C9.13382 11.0553 9.17582 10.9897 9.23291 10.9333L12.6198 7.54637C12.8508 7.31537 13.2242 7.31537 13.4546 7.54637C13.6856 7.77671 13.6856 8.15078 13.4546 8.38112L10.0677 11.768C10.0106 11.8251 9.94494 11.8678 9.87472 11.8967L12.6054 18.5228C13.0674 19.6443 14.6831 19.563 15.0296 18.4001L19.6312 2.96968C19.9239 1.98925 19.0104 1.07575 18.0293 1.36778Z" fill="white"/>
</svg>
