<svg width="16" height="13" viewBox="0 0 16 13" fill="none" xmlns="http://www.w3.org/2000/svg">
<path d="M2.59949 9.92216C2.69604 9.82206 2.82879 9.76367 2.96958 9.76367H15.7377C15.971 9.76367 16.0877 10.0556 15.9228 10.2266L13.4005 12.8416C13.304 12.9417 13.1712 13.0001 13.0304 13.0001H0.262288C0.0289704 13.0001 -0.0876891 12.7082 0.0772424 12.5372L2.59949 9.92216Z" fill="white"/>
<path d="M2.59949 0.158486C2.70006 0.0583893 2.83281 0 2.96958 0H15.7377C15.971 0 16.0877 0.291948 15.9228 0.462945L13.4005 3.07796C13.304 3.17806 13.1712 3.23645 13.0304 3.23645H0.262288C0.0289704 3.23645 -0.0876891 2.9445 0.0772424 2.7735L2.59949 0.158486Z" fill="white"/>
<path d="M13.4005 5.00907C13.304 4.90898 13.1712 4.85059 13.0304 4.85059H0.262288C0.0289704 4.85059 -0.0876891 5.14253 0.0772424 5.31353L2.59949 7.92854C2.69604 8.02864 2.82879 8.08703 2.96958 8.08703H15.7377C15.971 8.08703 16.0877 7.79508 15.9228 7.62409L13.4005 5.00907Z" fill="white"/>
</svg>
