<svg width="45" height="45" viewBox="0 0 45 45" fill="none" xmlns="http://www.w3.org/2000/svg">
<path d="M44.6138 19.3463C44.0989 19.8611 43.2642 19.8611 42.7493 19.3463C31.5838 8.18074 13.4161 8.18074 2.25057 19.3463C1.73571 19.8611 0.901011 19.8611 0.386147 19.3463C-0.128716 18.8314 -0.128716 17.9967 0.386147 17.4819C3.37109 14.4969 6.85208 12.1856 10.7324 10.6121C14.4796 9.09251 18.4388 8.32198 22.5 8.32198C26.5612 8.32198 30.5204 9.09251 34.2677 10.6121C38.148 12.1856 41.629 14.4969 44.6139 17.4819C45.1286 17.9966 45.1286 18.8314 44.6138 19.3463Z" fill="white"/>
<path d="M38.9654 24.9947C38.4505 25.5096 37.6158 25.5096 37.1009 24.9947C29.05 16.9438 15.95 16.9438 7.89901 24.9947C7.38415 25.5096 6.54945 25.5096 6.03458 24.9947C5.51972 24.4798 5.51972 23.6452 6.03458 23.1303C10.4326 18.7322 16.2802 16.3102 22.5 16.3101C28.7199 16.3101 34.5674 18.7322 38.9654 23.1303C39.4801 23.6452 39.4801 24.4798 38.9654 24.9947Z" fill="white"/>
<path d="M33.3169 30.6431C32.8021 31.158 31.9674 31.158 31.4525 30.6431C26.5161 25.7067 18.4839 25.7067 13.5474 30.6431C13.0326 31.158 12.1979 31.158 11.683 30.6431C11.1682 30.1283 11.1682 29.2936 11.683 28.7787C17.6475 22.8142 27.3524 22.8142 33.3169 28.7787C33.8318 29.2935 33.8318 30.1283 33.3169 30.6431Z" fill="white"/>
<path d="M27.6685 36.2916C27.1537 36.8065 26.319 36.8065 25.8041 36.2916C23.9822 34.4697 21.0178 34.4697 19.1959 36.2916C18.681 36.8065 17.8463 36.8065 17.3315 36.2916C16.8166 35.7767 16.8166 34.942 17.3315 34.4272C20.1814 31.5772 24.8186 31.5772 27.6685 34.4272C28.1834 34.9419 28.1834 35.7767 27.6685 36.2916Z" fill="white"/>
</svg>
